<?xml version="1.0" encoding="utf-8"?>
<!-- Generator: Adobe Illustrator 14.0.0, SVG Export Plug-In . SVG Version: 6.00 Build 43363)  -->
<!DOCTYPE svg PUBLIC "-//W3C//DTD SVG 1.1//EN" "http://www.w3.org/Graphics/SVG/1.1/DTD/svg11.dtd">
<svg version="1.1" id="Layer_1" xmlns="http://www.w3.org/2000/svg" xmlns:xlink="http://www.w3.org/1999/xlink" x="0px" y="0px"
	 width="380px" height="380px" viewBox="0 0 380 380" enable-background="new 0 0 380 380" xml:space="preserve">
<g>
	<path fill="#FFFFFF" d="M10,186.792L10,186.792c0-49.707,40.346-90,90.112-90l0,0c23.901,0,46.822,9.483,63.723,26.361
		c16.897,16.878,26.394,39.77,26.394,63.639l0,0c0,49.706-40.346,89.999-90.116,89.999l0,0C50.345,276.791,10,236.498,10,186.792z"
		/>
	<path fill="none" stroke="#595959" stroke-linejoin="round" stroke-miterlimit="10" d="M10,186.792L10,186.792
		c0-49.707,40.346-90,90.112-90l0,0c23.901,0,46.822,9.483,63.723,26.361c16.897,16.878,26.394,39.77,26.394,63.639l0,0
		c0,49.706-40.346,89.999-90.116,89.999l0,0C50.345,276.791,10,236.498,10,186.792z"/>
	<path fill="#FFFFFF" d="M99.881,279.999L99.881,279.999c0-49.705,40.346-89.998,90.115-89.998l0,0
		c23.897,0,46.819,9.48,63.719,26.357c16.9,16.879,26.394,39.771,26.394,63.641l0,0c0,49.705-40.346,90.001-90.112,90.001l0,0
		C140.226,370,99.881,329.704,99.881,279.999z"/>
	<path fill="none" stroke="#595959" stroke-linejoin="round" stroke-miterlimit="10" d="M99.881,279.999L99.881,279.999
		c0-49.705,40.346-89.998,90.115-89.998l0,0c23.897,0,46.819,9.48,63.719,26.357c16.9,16.879,26.394,39.771,26.394,63.641l0,0
		c0,49.705-40.346,90.001-90.112,90.001l0,0C140.226,370,99.881,329.704,99.881,279.999z"/>
	<path fill="#FFFFFF" d="M189.771,186.792L189.771,186.792c0-49.707,40.345-90,90.112-90l0,0c23.901,0,46.822,9.483,63.722,26.361
		C360.504,140.032,370,162.923,370,186.792l0,0c0,49.706-40.347,89.999-90.116,89.999l0,0
		C230.116,276.791,189.771,236.498,189.771,186.792z"/>
	<path fill="none" stroke="#595959" stroke-linejoin="round" stroke-miterlimit="10" d="M189.771,186.792L189.771,186.792
		c0-49.707,40.345-90,90.112-90l0,0c23.901,0,46.822,9.483,63.722,26.361C360.504,140.032,370,162.923,370,186.792l0,0
		c0,49.706-40.347,89.999-90.116,89.999l0,0C230.116,276.791,189.771,236.498,189.771,186.792z"/>
	<path fill="#FFFFFF" d="M99.881,99.999L99.881,99.999C99.881,50.295,140.226,10,189.996,10l0,0c23.897,0,46.819,9.482,63.719,26.36
		c16.9,16.878,26.394,39.77,26.394,63.638l0,0c0,49.707-40.346,90-90.112,90l0,0C140.226,189.998,99.881,149.705,99.881,99.999z"/>
	<path fill="none" stroke="#595959" stroke-linejoin="round" stroke-miterlimit="10" d="M99.881,99.999L99.881,99.999
		C99.881,50.295,140.226,10,189.996,10l0,0c23.897,0,46.819,9.482,63.719,26.36c16.9,16.878,26.394,39.77,26.394,63.638l0,0
		c0,49.707-40.346,90-90.112,90l0,0C140.226,189.998,99.881,149.705,99.881,99.999z"/>
	<path fill="#FFFFFF" d="M126.576,186.792L126.576,186.792c0-34.978,28.393-63.334,63.42-63.334l0,0
		c16.817,0,32.949,6.674,44.843,18.551c11.891,11.877,18.574,27.985,18.574,44.783l0,0c0,34.978-28.394,63.334-63.417,63.334l0,0
		C154.969,250.126,126.576,221.77,126.576,186.792z"/>
	<path fill="none" stroke="#595959" stroke-linejoin="round" stroke-miterlimit="10" d="M126.576,186.792L126.576,186.792
		c0-34.978,28.393-63.334,63.42-63.334l0,0c16.817,0,32.949,6.674,44.843,18.551c11.891,11.877,18.574,27.985,18.574,44.783l0,0
		c0,34.978-28.394,63.334-63.417,63.334l0,0C154.969,250.126,126.576,221.77,126.576,186.792z"/>
	<path fill-opacity="0" d="M10,164.699h126.837v38.979H10V164.699z"/>
	<path d="M30.942,177.107h5.12c1.019,0,1.772,0.044,2.269,0.127c0.504,0.084,0.95,0.26,1.343,0.53
		c0.394,0.261,0.719,0.614,0.979,1.063c0.261,0.446,0.393,0.943,0.393,1.492c0,0.605-0.165,1.16-0.491,1.663
		c-0.317,0.492-0.751,0.866-1.302,1.116c0.775,0.224,1.372,0.61,1.793,1.16c0.419,0.549,0.628,1.191,0.628,1.926
		c0,0.587-0.135,1.154-0.405,1.704c-0.27,0.549-0.639,0.992-1.106,1.325c-0.465,0.327-1.043,0.528-1.733,0.601
		c-0.429,0.046-1.47,0.075-3.12,0.084h-4.366V177.107z M33.531,179.232v2.958h1.691c1.008,0,1.634-0.013,1.876-0.041
		c0.449-0.057,0.798-0.209,1.049-0.461c0.253-0.25,0.38-0.583,0.38-0.993c0-0.399-0.113-0.719-0.336-0.961
		c-0.214-0.252-0.537-0.404-0.967-0.461c-0.252-0.028-0.989-0.041-2.211-0.041H33.531z M33.531,184.328v3.419h2.392
		c0.934,0,1.527-0.028,1.777-0.084c0.383-0.075,0.695-0.245,0.938-0.516c0.242-0.271,0.363-0.629,0.363-1.075
		c0-0.392-0.093-0.717-0.278-0.977c-0.188-0.271-0.457-0.467-0.813-0.587c-0.354-0.122-1.119-0.18-2.294-0.18H33.531z
		 M49.222,186.952l2.448,0.405c-0.308,0.894-0.803,1.578-1.482,2.051c-0.683,0.467-1.532,0.699-2.548,0.699
		c-1.622,0-2.82-0.526-3.596-1.578c-0.606-0.848-0.909-1.913-0.909-3.196c0-1.536,0.4-2.737,1.204-3.604
		c0.801-0.874,1.818-1.312,3.048-1.312c1.383,0,2.468,0.457,3.261,1.369c0.803,0.912,1.19,2.307,1.162,4.188h-6.156
		c0.019,0.727,0.215,1.294,0.587,1.704c0.382,0.399,0.854,0.601,1.413,0.601c0.393,0,0.718-0.104,0.979-0.31
		C48.894,187.755,49.091,187.418,49.222,186.952z M49.361,184.467c-0.018-0.709-0.204-1.242-0.561-1.606
		c-0.343-0.371-0.765-0.559-1.258-0.559c-0.542,0-0.984,0.19-1.33,0.572c-0.354,0.392-0.527,0.923-0.517,1.593H49.361z
		 M56.259,177.107v4.707c0.793-0.93,1.738-1.397,2.839-1.397c0.568,0,1.077,0.108,1.527,0.323c0.454,0.203,0.801,0.469,1.033,0.793
		c0.235,0.328,0.393,0.691,0.476,1.09c0.085,0.392,0.126,1.006,0.126,1.843v5.431h-2.462v-4.9c0-0.969-0.047-1.583-0.14-1.843
		s-0.261-0.467-0.503-0.616c-0.232-0.158-0.527-0.237-0.881-0.237c-0.403,0-0.765,0.098-1.094,0.294
		c-0.317,0.195-0.55,0.492-0.699,0.894c-0.15,0.399-0.223,0.987-0.223,1.758v4.649h-2.465v-12.79H56.259z M66.582,183.461
		l-2.225-0.405c0.253-0.895,0.682-1.555,1.287-1.982c0.617-0.438,1.526-0.657,2.73-0.657c1.1,0,1.916,0.132,2.446,0.392
		c0.542,0.26,0.92,0.59,1.134,0.99c0.225,0.392,0.336,1.121,0.336,2.194l-0.028,2.861c0,0.81,0.038,1.41,0.113,1.802
		c0.083,0.381,0.232,0.796,0.447,1.242h-2.434c-0.067-0.167-0.145-0.41-0.24-0.726c-0.036-0.15-0.064-0.245-0.083-0.292
		c-0.421,0.407-0.873,0.717-1.356,0.92c-0.478,0.204-0.983,0.307-1.526,0.307c-0.951,0-1.702-0.256-2.253-0.769
		c-0.55-0.521-0.823-1.178-0.823-1.967c0-0.531,0.118-1.003,0.361-1.413c0.253-0.407,0.602-0.719,1.052-0.933
		c0.457-0.225,1.113-0.416,1.971-0.575c1.147-0.214,1.939-0.413,2.379-0.598v-0.253c0-0.464-0.116-0.796-0.349-0.99
		c-0.235-0.206-0.672-0.309-1.314-0.309c-0.439,0-0.785,0.084-1.036,0.253C66.927,182.722,66.731,183.023,66.582,183.461z
		 M69.87,185.444c-0.317,0.103-0.816,0.229-1.495,0.376c-0.683,0.15-1.127,0.294-1.331,0.433c-0.325,0.224-0.49,0.513-0.49,0.866
		c0,0.335,0.126,0.628,0.379,0.879c0.262,0.252,0.592,0.379,0.992,0.379c0.439,0,0.857-0.145,1.261-0.433
		c0.297-0.224,0.493-0.495,0.586-0.812c0.065-0.214,0.099-0.613,0.099-1.199V185.444z M77.256,189.897l-3.735-9.271h2.575
		l1.749,4.735l0.517,1.578c0.132-0.402,0.215-0.668,0.253-0.797c0.075-0.26,0.158-0.521,0.251-0.781l1.777-4.735h2.519l-3.682,9.271
		H77.256z M84.67,179.371v-2.264h2.465v2.264H84.67z M84.67,189.897v-9.271h2.465v9.271H84.67z M89.072,185.137
		c0-0.819,0.201-1.611,0.602-2.374c0.41-0.763,0.984-1.346,1.723-1.745c0.736-0.4,1.558-0.601,2.462-0.601
		c1.408,0,2.561,0.457,3.457,1.369c0.894,0.912,1.343,2.062,1.343,3.449c0,1.404-0.452,2.567-1.358,3.49
		c-0.904,0.92-2.046,1.382-3.428,1.382c-0.848,0-1.659-0.191-2.434-0.573c-0.765-0.392-1.354-0.954-1.765-1.688
		C89.273,187.101,89.072,186.199,89.072,185.137z M91.591,185.263c0,0.92,0.22,1.629,0.658,2.122
		c0.439,0.484,0.979,0.727,1.623,0.727c0.643,0,1.18-0.243,1.608-0.727c0.439-0.493,0.659-1.207,0.659-2.137
		c0-0.913-0.22-1.608-0.659-2.093c-0.429-0.495-0.966-0.74-1.608-0.74c-0.644,0-1.184,0.245-1.623,0.74
		C91.81,183.64,91.591,184.34,91.591,185.263z M106.7,189.897v-1.381c-0.336,0.493-0.782,0.884-1.343,1.173
		c-0.551,0.278-1.127,0.418-1.733,0.418c-0.626,0-1.187-0.135-1.68-0.405c-0.496-0.278-0.854-0.665-1.077-1.157
		c-0.225-0.495-0.336-1.178-0.336-2.054v-5.864h2.462v4.258c0,1.305,0.041,2.104,0.127,2.403c0.093,0.289,0.256,0.521,0.488,0.698
		c0.243,0.168,0.55,0.25,0.924,0.25c0.419,0,0.794-0.111,1.119-0.335c0.336-0.232,0.565-0.516,0.688-0.851
		c0.118-0.345,0.181-1.183,0.181-2.513v-3.911h2.462v9.271H106.7z M113.877,189.897h-2.462v-9.271h2.294v1.327
		c0.382-0.624,0.729-1.034,1.036-1.229c0.317-0.204,0.677-0.307,1.077-0.307c0.561,0,1.095,0.155,1.609,0.461l-0.755,2.137
		c-0.41-0.26-0.793-0.392-1.149-0.392c-0.344,0-0.638,0.093-0.881,0.278c-0.243,0.186-0.434,0.532-0.573,1.034
		c-0.13,0.493-0.196,1.526-0.196,3.101V189.897z"/>
	<path fill="#00FF00" fill-opacity="0.4881" d="M10,186.792L10,186.792c0-49.707,40.346-90,90.112-90l0,0
		c23.901,0,46.822,9.483,63.723,26.361c16.897,16.878,26.394,39.77,26.394,63.639l0,0c0,49.706-40.346,89.999-90.116,89.999l0,0
		C50.345,276.791,10,236.498,10,186.792z"/>
	<path fill="none" stroke="#595959" stroke-linejoin="round" stroke-miterlimit="10" d="M10,186.792L10,186.792
		c0-49.707,40.346-90,90.112-90l0,0c23.901,0,46.822,9.483,63.723,26.361c16.897,16.878,26.394,39.77,26.394,63.639l0,0
		c0,49.706-40.346,89.999-90.116,89.999l0,0C50.345,276.791,10,236.498,10,186.792z"/>
	<path fill-opacity="0" d="M243.162,164.699H370v38.979H243.162V164.699z"/>
	<path d="M280.147,189.897h-2.813l-1.119-2.905h-5.119l-1.065,2.905h-2.742l4.995-12.79h2.744L280.147,189.897z M275.391,184.83
		l-1.765-4.748l-1.735,4.748H275.391z M285.763,180.626v1.957h-1.679v3.74c0,0.755,0.015,1.196,0.041,1.327
		c0.038,0.121,0.113,0.225,0.225,0.307c0.121,0.075,0.261,0.111,0.421,0.111c0.223,0,0.553-0.078,0.992-0.237l0.209,1.912
		c-0.578,0.243-1.225,0.364-1.945,0.364c-0.447,0-0.847-0.075-1.201-0.225c-0.356-0.147-0.617-0.338-0.785-0.572
		c-0.157-0.24-0.269-0.562-0.336-0.962c-0.054-0.28-0.083-0.853-0.083-1.719v-4.047h-1.134v-1.957h1.134v-1.843l2.463-1.423v3.266
		H285.763z M291.728,180.626v1.957h-1.679v3.74c0,0.755,0.013,1.196,0.041,1.327c0.038,0.121,0.11,0.225,0.225,0.307
		c0.121,0.075,0.261,0.111,0.419,0.111c0.225,0,0.555-0.078,0.994-0.237l0.209,1.912c-0.578,0.243-1.227,0.364-1.945,0.364
		c-0.447,0-0.847-0.075-1.204-0.225c-0.354-0.147-0.614-0.338-0.782-0.572c-0.157-0.24-0.271-0.562-0.336-0.962
		c-0.057-0.28-0.083-0.853-0.083-1.719v-4.047h-1.134v-1.957h1.134v-1.843l2.463-1.423v3.266H291.728z M298.811,186.952l2.449,0.405
		c-0.308,0.894-0.803,1.578-1.482,2.051c-0.683,0.467-1.532,0.699-2.548,0.699c-1.622,0-2.82-0.526-3.597-1.578
		c-0.606-0.848-0.908-1.913-0.908-3.196c0-1.536,0.4-2.737,1.203-3.604c0.802-0.874,1.819-1.312,3.049-1.312
		c1.382,0,2.467,0.457,3.261,1.369c0.803,0.912,1.19,2.307,1.161,4.188h-6.155c0.018,0.727,0.214,1.294,0.587,1.704
		c0.382,0.399,0.854,0.601,1.412,0.601c0.393,0,0.719-0.104,0.979-0.31C298.486,187.755,298.68,187.418,298.811,186.952z
		 M298.951,184.467c-0.019-0.709-0.204-1.242-0.561-1.606c-0.344-0.371-0.766-0.559-1.258-0.559c-0.54,0-0.984,0.19-1.33,0.572
		c-0.354,0.392-0.527,0.923-0.518,1.593H298.951z M311.849,189.897h-2.462v-4.732c0-0.998-0.052-1.64-0.155-1.928
		c-0.101-0.296-0.273-0.526-0.517-0.683c-0.232-0.168-0.517-0.253-0.853-0.253c-0.421,0-0.803,0.118-1.149,0.351
		c-0.336,0.232-0.568,0.539-0.698,0.92c-0.12,0.381-0.183,1.09-0.183,2.124v4.202h-2.449v-9.271h2.281v1.369
		c0.811-1.052,1.835-1.578,3.063-1.578c0.543,0,1.036,0.098,1.485,0.294c0.447,0.196,0.783,0.446,1.008,0.753
		c0.232,0.298,0.396,0.644,0.488,1.033c0.093,0.381,0.14,0.925,0.14,1.634V189.897z M318.592,180.626v1.957h-1.679v3.74
		c0,0.755,0.016,1.196,0.044,1.327c0.036,0.121,0.11,0.225,0.222,0.307c0.121,0.075,0.262,0.111,0.421,0.111
		c0.223,0,0.556-0.078,0.992-0.237l0.212,1.912c-0.579,0.243-1.228,0.364-1.945,0.364c-0.449,0-0.85-0.075-1.203-0.225
		c-0.354-0.147-0.616-0.338-0.783-0.572c-0.16-0.24-0.271-0.562-0.336-0.962c-0.057-0.28-0.085-0.853-0.085-1.719v-4.047h-1.135
		v-1.957h1.135v-1.843l2.462-1.423v3.266H318.592z M320.302,179.371v-2.264h2.463v2.264H320.302z M320.302,189.897v-9.271h2.463
		v9.271H320.302z M324.707,185.137c0-0.819,0.198-1.611,0.602-2.374c0.408-0.763,0.981-1.346,1.72-1.745
		c0.737-0.4,1.559-0.601,2.462-0.601c1.409,0,2.561,0.457,3.457,1.369c0.896,0.912,1.343,2.062,1.343,3.449
		c0,1.404-0.452,2.567-1.358,3.49c-0.903,0.92-2.046,1.382-3.428,1.382c-0.848,0-1.659-0.191-2.434-0.573
		c-0.766-0.392-1.354-0.954-1.762-1.688C324.905,187.101,324.707,186.199,324.707,185.137z M327.224,185.263
		c0,0.92,0.218,1.629,0.656,2.122c0.439,0.484,0.979,0.727,1.623,0.727c0.646,0,1.181-0.243,1.609-0.727
		c0.439-0.493,0.659-1.207,0.659-2.137c0-0.913-0.22-1.608-0.659-2.093c-0.429-0.495-0.964-0.74-1.609-0.74
		c-0.644,0-1.184,0.245-1.623,0.74C327.442,183.64,327.224,184.34,327.224,185.263z M344.67,189.897h-2.462v-4.732
		c0-0.998-0.051-1.64-0.155-1.928c-0.1-0.296-0.273-0.526-0.517-0.683c-0.231-0.168-0.519-0.253-0.854-0.253
		c-0.419,0-0.801,0.118-1.146,0.351c-0.336,0.232-0.569,0.539-0.7,0.92c-0.119,0.381-0.181,1.09-0.181,2.124v4.202h-2.449v-9.271
		h2.28v1.369c0.812-1.052,1.835-1.578,3.063-1.578c0.543,0,1.037,0.098,1.483,0.294c0.45,0.196,0.785,0.446,1.008,0.753
		c0.234,0.298,0.397,0.644,0.491,1.033c0.092,0.381,0.139,0.925,0.139,1.634V189.897z"/>
	<path fill="#00FF00" fill-opacity="0.4881" d="M189.771,186.792L189.771,186.792c0-49.707,40.345-90,90.112-90l0,0
		c23.901,0,46.822,9.483,63.722,26.361C360.504,140.032,370,162.923,370,186.792l0,0c0,49.706-40.347,89.999-90.116,89.999l0,0
		C230.116,276.791,189.771,236.498,189.771,186.792z"/>
	<path fill="none" stroke="#595959" stroke-linejoin="round" stroke-miterlimit="10" d="M189.771,186.792L189.771,186.792
		c0-49.707,40.345-90,90.112-90l0,0c23.901,0,46.822,9.483,63.722,26.361C360.504,140.032,370,162.923,370,186.792l0,0
		c0,49.706-40.347,89.999-90.116,89.999l0,0C230.116,276.791,189.771,236.498,189.771,186.792z"/>
	<path fill-opacity="0" d="M126.576,57.816h126.837v38.976H126.576V57.816z"/>
	<path d="M153.427,83.013V70.225h2.589v12.788H153.427z M166.909,83.013h-2.462v-4.732c0-0.996-0.052-1.64-0.155-1.929
		c-0.104-0.296-0.273-0.525-0.517-0.684c-0.235-0.167-0.52-0.25-0.855-0.25c-0.418,0-0.8,0.116-1.146,0.348
		c-0.336,0.232-0.568,0.539-0.7,0.921c-0.121,0.381-0.181,1.09-0.181,2.124v4.202h-2.449v-9.269h2.281v1.366
		c0.812-1.051,1.832-1.577,3.063-1.577c0.54,0,1.036,0.098,1.483,0.294c0.446,0.196,0.782,0.446,1.007,0.755
		c0.233,0.296,0.398,0.642,0.491,1.032c0.093,0.381,0.14,0.927,0.14,1.634V83.013z M173.651,73.744v1.954h-1.68v3.74
		c0,0.755,0.014,1.196,0.042,1.327c0.039,0.122,0.113,0.224,0.225,0.307c0.121,0.075,0.261,0.113,0.419,0.113
		c0.225,0,0.555-0.079,0.994-0.239l0.209,1.913c-0.578,0.243-1.227,0.363-1.945,0.363c-0.446,0-0.847-0.075-1.203-0.222
		c-0.354-0.149-0.615-0.34-0.783-0.572c-0.157-0.243-0.271-0.565-0.336-0.964c-0.057-0.279-0.082-0.854-0.082-1.717v-4.049h-1.135
		v-1.954h1.135V71.9l2.461-1.425v3.269H173.651z M180.734,80.066l2.449,0.405c-0.307,0.895-0.804,1.578-1.482,2.051
		c-0.683,0.467-1.532,0.699-2.548,0.699c-1.622,0-2.82-0.526-3.596-1.578c-0.607-0.845-0.909-1.913-0.909-3.196
		c0-1.536,0.4-2.737,1.204-3.604c0.801-0.874,1.818-1.312,3.048-1.312c1.382,0,2.467,0.457,3.261,1.369
		c0.803,0.913,1.19,2.309,1.162,4.188h-6.156c0.019,0.728,0.215,1.294,0.587,1.704c0.382,0.399,0.854,0.6,1.413,0.6
		c0.393,0,0.718-0.103,0.979-0.307C180.409,80.873,180.602,80.533,180.734,80.066z M180.874,77.582
		c-0.018-0.707-0.203-1.243-0.561-1.606c-0.344-0.371-0.765-0.557-1.258-0.557c-0.54,0-0.984,0.191-1.33,0.572
		c-0.354,0.389-0.527,0.92-0.517,1.59H180.874z M193.772,83.013h-2.462v-4.732c0-0.996-0.052-1.64-0.152-1.929
		c-0.104-0.296-0.276-0.525-0.52-0.684c-0.232-0.167-0.517-0.25-0.852-0.25c-0.422,0-0.804,0.116-1.147,0.348
		c-0.336,0.232-0.571,0.539-0.7,0.921c-0.121,0.381-0.184,1.09-0.184,2.124v4.202h-2.448v-9.269h2.28v1.366
		c0.812-1.051,1.834-1.577,3.064-1.577c0.542,0,1.035,0.098,1.484,0.294c0.447,0.196,0.783,0.446,1.008,0.755
		c0.233,0.296,0.396,0.642,0.489,1.032c0.092,0.381,0.139,0.927,0.139,1.634V83.013z M200.514,73.744v1.954h-1.679v3.74
		c0,0.755,0.016,1.196,0.044,1.327c0.036,0.122,0.11,0.224,0.222,0.307c0.121,0.075,0.262,0.113,0.422,0.113
		c0.222,0,0.555-0.079,0.991-0.239l0.212,1.913c-0.578,0.243-1.227,0.363-1.945,0.363c-0.449,0-0.85-0.075-1.203-0.222
		c-0.354-0.149-0.616-0.34-0.783-0.572c-0.16-0.243-0.271-0.565-0.336-0.964c-0.057-0.279-0.085-0.854-0.085-1.717v-4.049h-1.135
		v-1.954h1.135V71.9l2.462-1.425v3.269H200.514z M202.227,72.486v-2.261h2.461v2.261H202.227z M202.227,83.013v-9.269h2.461v9.269
		H202.227z M206.63,78.252c0-0.82,0.198-1.611,0.602-2.375c0.408-0.763,0.983-1.342,1.721-1.745c0.736-0.399,1.558-0.6,2.462-0.6
		c1.408,0,2.56,0.457,3.456,1.369c0.896,0.913,1.343,2.062,1.343,3.449c0,1.405-0.452,2.57-1.356,3.49
		c-0.906,0.923-2.048,1.382-3.43,1.382c-0.848,0-1.659-0.191-2.434-0.572c-0.765-0.39-1.354-0.954-1.762-1.689
		C206.828,80.216,206.63,79.313,206.63,78.252z M209.147,78.378c0,0.92,0.218,1.629,0.656,2.121
		c0.439,0.485,0.979,0.727,1.623,0.727c0.646,0,1.181-0.242,1.609-0.727c0.439-0.492,0.659-1.204,0.659-2.136
		c0-0.91-0.22-1.609-0.659-2.093c-0.429-0.493-0.964-0.74-1.609-0.74c-0.644,0-1.184,0.247-1.623,0.74
		C209.365,76.754,209.147,77.455,209.147,78.378z M226.593,83.013h-2.462v-4.732c0-0.996-0.051-1.64-0.154-1.929
		c-0.101-0.296-0.274-0.525-0.518-0.684c-0.232-0.167-0.516-0.25-0.853-0.25c-0.421,0-0.803,0.116-1.149,0.348
		c-0.335,0.232-0.568,0.539-0.696,0.921c-0.122,0.381-0.185,1.09-0.185,2.124v4.202h-2.448v-9.269h2.28v1.366
		c0.813-1.051,1.835-1.577,3.064-1.577c0.542,0,1.036,0.098,1.483,0.294c0.449,0.196,0.784,0.446,1.007,0.755
		c0.235,0.296,0.397,0.642,0.491,1.032c0.092,0.381,0.139,0.927,0.139,1.634V83.013z"/>
	<path fill-opacity="0" d="M126.576,271.584h126.837v38.979H126.576V271.584z"/>
	<path d="M172.22,292.623l2.519-0.254c0.16,0.848,0.467,1.472,0.925,1.872c0.465,0.392,1.09,0.585,1.875,0.585
		c0.84,0,1.468-0.175,1.889-0.528c0.418-0.355,0.63-0.765,0.63-1.229c0-0.307-0.09-0.563-0.266-0.768
		c-0.179-0.215-0.485-0.4-0.925-0.56c-0.308-0.11-0.997-0.298-2.069-0.557c-1.39-0.346-2.366-0.769-2.925-1.271
		c-0.793-0.707-1.19-1.565-1.19-2.569c0-0.652,0.186-1.26,0.561-1.828c0.372-0.569,0.904-1,1.594-1.299
		c0.7-0.298,1.545-0.445,2.534-0.445c1.604,0,2.811,0.354,3.625,1.059c0.818,0.699,1.247,1.64,1.286,2.82l-2.589,0.113
		c-0.113-0.663-0.351-1.137-0.713-1.425c-0.364-0.289-0.912-0.433-1.638-0.433c-0.757,0-1.343,0.154-1.764,0.46
		c-0.279,0.207-0.419,0.47-0.419,0.797c0,0.306,0.129,0.567,0.393,0.78c0.325,0.271,1.119,0.556,2.376,0.854
		c1.262,0.297,2.188,0.604,2.785,0.92c0.607,0.318,1.077,0.751,1.413,1.299c0.347,0.55,0.52,1.229,0.52,2.04
		c0,0.734-0.207,1.424-0.617,2.064c-0.4,0.635-0.975,1.109-1.721,1.426c-0.746,0.307-1.679,0.459-2.798,0.459
		c-1.614,0-2.859-0.371-3.735-1.117C172.907,295.144,172.388,294.057,172.22,292.623z M184.725,296.782v-12.79h2.449v6.787
		l2.883-3.269h3.022l-3.177,3.394l3.401,5.878h-2.645l-2.338-4.159l-1.147,1.186v2.974H184.725z M194.771,286.256v-2.264h2.462
		v2.264H194.771z M194.771,296.782v-9.271h2.462v9.271H194.771z M199.748,296.782v-12.79h2.462v12.79H199.748z M204.722,296.782
		v-12.79h2.462v12.79H204.722z"/>
	<path fill="#00FF00" fill-opacity="0.4881" d="M99.881,100.001L99.881,100.001c0-49.706,40.346-89.999,90.115-89.999l0,0
		c23.897,0,46.819,9.48,63.719,26.358c16.9,16.878,26.394,39.77,26.394,63.641l0,0c0,49.704-40.346,90-90.112,90l0,0
		C140.226,190.001,99.881,149.705,99.881,100.001z"/>
	<path fill="none" stroke="#595959" stroke-linejoin="round" stroke-miterlimit="10" d="M99.881,100.001L99.881,100.001
		c0-49.706,40.346-89.999,90.115-89.999l0,0c23.897,0,46.819,9.48,63.719,26.358c16.9,16.878,26.394,39.77,26.394,63.641l0,0
		c0,49.704-40.346,90-90.112,90l0,0C140.226,190.001,99.881,149.705,99.881,100.001z"/>
	<path fill="#00FF00" fill-opacity="0.4881" d="M99.881,279.999L99.881,279.999c0-49.705,40.346-89.998,90.115-89.998l0,0
		c23.897,0,46.819,9.48,63.719,26.357c16.9,16.879,26.394,39.771,26.394,63.641l0,0c0,49.705-40.346,90.001-90.112,90.001l0,0
		C140.226,370,99.881,329.704,99.881,279.999z"/>
	<path fill="none" stroke="#595959" stroke-linejoin="round" stroke-miterlimit="10" d="M99.881,279.999L99.881,279.999
		c0-49.705,40.346-89.998,90.115-89.998l0,0c23.897,0,46.819,9.48,63.719,26.357c16.9,16.879,26.394,39.771,26.394,63.641l0,0
		c0,49.705-40.346,90.001-90.112,90.001l0,0C140.226,370,99.881,329.704,99.881,279.999z"/>
	<path fill="#00FF00" d="M126.576,186.792L126.576,186.792c0-34.978,28.393-63.334,63.42-63.334l0,0
		c16.817,0,32.949,6.674,44.843,18.551c11.891,11.877,18.574,27.985,18.574,44.783l0,0c0,34.978-28.394,63.334-63.417,63.334l0,0
		C154.969,250.126,126.576,221.77,126.576,186.792z"/>
	<path fill="none" stroke="#595959" stroke-linejoin="round" stroke-miterlimit="10" d="M126.576,186.792L126.576,186.792
		c0-34.978,28.393-63.334,63.42-63.334l0,0c16.817,0,32.949,6.674,44.843,18.551c11.891,11.877,18.574,27.985,18.574,44.783l0,0
		c0,34.978-28.394,63.334-63.417,63.334l0,0C154.969,250.126,126.576,221.77,126.576,186.792z"/>
	<path fill-opacity="0" d="M126.576,167.303h126.837v38.978H126.576V167.303z"/>
	<path d="M145.018,179.711h4.728c1.063,0,1.875,0.08,2.436,0.237c0.755,0.224,1.397,0.622,1.93,1.188
		c0.542,0.56,0.953,1.248,1.232,2.068c0.278,0.816,0.418,1.827,0.418,3.028c0,1.052-0.129,1.958-0.39,2.722
		c-0.328,0.931-0.788,1.68-1.385,2.248c-0.449,0.438-1.057,0.781-1.821,1.033c-0.568,0.179-1.327,0.266-2.278,0.266h-4.869V179.711z
		 M147.606,181.876v8.474h1.93c0.719,0,1.24-0.043,1.568-0.125c0.419-0.104,0.765-0.279,1.036-0.531
		c0.279-0.25,0.503-0.66,0.672-1.229c0.175-0.575,0.264-1.364,0.264-2.359c0-0.987-0.089-1.745-0.264-2.276
		c-0.169-0.531-0.411-0.938-0.729-1.227c-0.318-0.299-0.714-0.502-1.188-0.616c-0.364-0.075-1.075-0.11-2.129-0.11H147.606z
		 M157.937,181.974v-2.263h2.462v2.263H157.937z M157.937,192.501v-9.271h2.462v9.271H157.937z M165.263,192.501h-2.462v-9.271
		h2.294v1.328c0.382-0.624,0.729-1.034,1.035-1.229c0.318-0.204,0.678-0.307,1.078-0.307c0.561,0,1.095,0.155,1.609,0.462
		l-0.757,2.137c-0.409-0.263-0.793-0.392-1.147-0.392c-0.344,0-0.638,0.093-0.881,0.278c-0.243,0.186-0.434,0.531-0.573,1.034
		c-0.132,0.492-0.196,1.526-0.196,3.098V192.501z M175.256,189.555l2.448,0.405c-0.307,0.894-0.803,1.578-1.482,2.051
		c-0.682,0.467-1.529,0.699-2.547,0.699c-1.622,0-2.821-0.526-3.596-1.578c-0.607-0.848-0.909-1.912-0.909-3.196
		c0-1.536,0.399-2.737,1.203-3.604c0.801-0.874,1.818-1.312,3.051-1.312c1.38,0,2.468,0.457,3.261,1.369
		c0.8,0.913,1.188,2.307,1.159,4.188h-6.155c0.018,0.725,0.214,1.294,0.586,1.704c0.383,0.399,0.855,0.602,1.413,0.602
		c0.393,0,0.721-0.104,0.981-0.31C174.93,190.358,175.127,190.019,175.256,189.555z M175.394,187.07
		c-0.018-0.709-0.203-1.243-0.558-1.606c-0.346-0.371-0.765-0.56-1.261-0.56c-0.539,0-0.983,0.191-1.327,0.572
		c-0.356,0.392-0.527,0.923-0.52,1.593H175.394z M187.945,185.967l-2.421,0.446c-0.083-0.482-0.271-0.846-0.561-1.088
		c-0.29-0.252-0.661-0.376-1.119-0.376c-0.614,0-1.105,0.214-1.47,0.642c-0.361,0.417-0.545,1.122-0.545,2.108
		c0,1.098,0.184,1.875,0.545,2.331c0.375,0.456,0.873,0.686,1.499,0.686c0.464,0,0.85-0.132,1.146-0.392
		c0.3-0.271,0.509-0.727,0.63-1.369l2.405,0.404c-0.24,1.109-0.721,1.946-1.438,2.513c-0.711,0.559-1.661,0.838-2.854,0.838
		c-1.364,0-2.449-0.428-3.261-1.283c-0.804-0.856-1.203-2.039-1.203-3.547c0-1.536,0.405-2.727,1.217-3.575
		c0.811-0.856,1.906-1.284,3.288-1.284c1.129,0,2.022,0.248,2.687,0.74C187.162,184.245,187.647,184.98,187.945,185.967z
		 M194.056,183.229v1.957h-1.68v3.74c0,0.755,0.016,1.195,0.044,1.327c0.037,0.121,0.112,0.222,0.223,0.306
		c0.121,0.075,0.261,0.111,0.421,0.111c0.223,0,0.556-0.077,0.992-0.237l0.212,1.913c-0.579,0.241-1.228,0.363-1.946,0.363
		c-0.448,0-0.85-0.075-1.203-0.225c-0.354-0.146-0.614-0.338-0.782-0.572c-0.16-0.242-0.271-0.562-0.336-0.961
		c-0.057-0.281-0.085-0.853-0.085-1.72v-4.046h-1.135v-1.957h1.135v-1.843l2.461-1.423v3.266H194.056z M195.769,181.974v-2.263
		h2.462v2.263H195.769z M195.769,192.501v-9.271h2.462v9.271H195.769z M200.171,187.74c0-0.82,0.199-1.611,0.602-2.374
		c0.408-0.763,0.985-1.346,1.721-1.745c0.736-0.399,1.558-0.601,2.462-0.601c1.408,0,2.561,0.457,3.457,1.369
		c0.896,0.913,1.344,2.062,1.344,3.449c0,1.404-0.452,2.567-1.356,3.49c-0.907,0.921-2.049,1.382-3.432,1.382
		c-0.847,0-1.657-0.19-2.433-0.573c-0.765-0.391-1.354-0.953-1.763-1.688C200.37,189.705,200.171,188.799,200.171,187.74z
		 M202.69,187.867c0,0.92,0.217,1.626,0.656,2.121c0.439,0.485,0.979,0.727,1.621,0.727c0.646,0,1.182-0.242,1.61-0.727
		c0.438-0.495,0.658-1.206,0.658-2.136c0-0.913-0.22-1.611-0.658-2.093c-0.429-0.495-0.964-0.74-1.61-0.74
		c-0.643,0-1.182,0.245-1.621,0.74C202.907,186.24,202.69,186.944,202.69,187.867z M220.135,192.501h-2.461v-4.732
		c0-0.998-0.053-1.639-0.156-1.928c-0.1-0.297-0.273-0.526-0.516-0.683c-0.232-0.168-0.518-0.253-0.853-0.253
		c-0.422,0-0.804,0.116-1.149,0.351c-0.337,0.232-0.569,0.539-0.698,0.92c-0.122,0.381-0.183,1.09-0.183,2.121v4.204h-2.449v-9.271
		h2.28v1.369c0.812-1.052,1.834-1.578,3.064-1.578c0.542,0,1.035,0.098,1.482,0.294c0.449,0.196,0.785,0.446,1.007,0.753
		c0.235,0.299,0.399,0.642,0.491,1.033c0.094,0.381,0.14,0.926,0.14,1.635V192.501z M224.457,186.065l-2.225-0.405
		c0.251-0.894,0.683-1.554,1.286-1.982c0.617-0.438,1.527-0.657,2.729-0.657c1.104,0,1.919,0.131,2.449,0.392
		c0.542,0.26,0.92,0.59,1.134,0.99c0.226,0.392,0.336,1.121,0.336,2.193l-0.028,2.861c0,0.81,0.038,1.411,0.113,1.801
		c0.082,0.383,0.233,0.795,0.447,1.243h-2.436c-0.065-0.168-0.146-0.409-0.238-0.727c-0.036-0.149-0.064-0.247-0.083-0.294
		c-0.421,0.409-0.873,0.717-1.358,0.923c-0.476,0.203-0.984,0.307-1.524,0.307c-0.951,0-1.702-0.256-2.253-0.768
		c-0.55-0.521-0.826-1.179-0.826-1.97c0-0.528,0.122-1,0.363-1.41c0.254-0.407,0.603-0.719,1.05-0.935
		c0.457-0.222,1.116-0.413,1.974-0.573c1.147-0.214,1.939-0.413,2.379-0.598v-0.253c0-0.466-0.115-0.796-0.349-0.992
		c-0.234-0.204-0.671-0.307-1.317-0.307c-0.437,0-0.783,0.085-1.033,0.253C224.802,185.325,224.606,185.627,224.457,186.065z
		 M227.745,188.047c-0.318,0.103-0.815,0.227-1.498,0.376c-0.68,0.149-1.124,0.294-1.328,0.433c-0.328,0.225-0.49,0.514-0.49,0.866
		c0,0.335,0.126,0.628,0.379,0.879c0.262,0.252,0.593,0.377,0.992,0.377c0.439,0,0.858-0.146,1.261-0.431
		c0.298-0.225,0.494-0.495,0.586-0.813c0.065-0.214,0.099-0.613,0.099-1.198V188.047z M232.584,192.501v-12.79h2.464v12.79H232.584z
		"/>
</g>
</svg>
