<?xml version="1.0" encoding="utf-8"?>
<!-- Generator: Adobe Illustrator 14.0.0, SVG Export Plug-In . SVG Version: 6.00 Build 43363)  -->
<!DOCTYPE svg PUBLIC "-//W3C//DTD SVG 1.1//EN" "http://www.w3.org/Graphics/SVG/1.1/DTD/svg11.dtd">
<svg version="1.1" id="Layer_1" xmlns="http://www.w3.org/2000/svg" xmlns:xlink="http://www.w3.org/1999/xlink" x="0px" y="0px"
	 width="380px" height="380px" viewBox="230.945 107.64 380 380" enable-background="new 230.945 107.64 380 380"
	 xml:space="preserve">
<g>
	<g>
		<g>
			<circle fill="#E4E5E6" stroke="#595959" stroke-width="0.25" cx="421.935" cy="298.346" r="136.393"/>
			<g>
				<path fill="#FFFFFF" stroke="#595959" stroke-linejoin="round" stroke-miterlimit="10" d="M602.875,299.06v101.432l0,0
					c0,43.571-35.32,78.892-78.891,78.891h-56.416l0,0L422.486,434.3l45.082-45.08l0,0l45.146,0.001l0.002-0.001l-0.002-90.16
					H602.875z"/>
				<path fill="#FF0000" fill-opacity="0.5" d="M602.875,299.06v101.432l0,0c0,43.571-35.32,78.892-78.891,78.891h-56.416l0,0
					L422.486,434.3l45.082-45.08l0,0l45.146,0.001l0.002-0.001l-0.002-90.16H602.875z"/>
				<path fill="none" stroke="#595959" stroke-linejoin="round" stroke-miterlimit="10" d="M602.875,299.06v101.432l0,0
					c0,43.571-35.32,78.892-78.891,78.891h-56.416l0,0L422.486,434.3l45.082-45.08l0,0l45.146,0.001l0.002-0.001l-0.002-90.16
					H602.875z"/>
			</g>
			<g>
				<path fill="#FFFFFF" stroke="#595959" stroke-linejoin="round" stroke-miterlimit="10" d="M422.437,478.263H321.005l0,0
					c-43.571,0-78.892-35.321-78.891-78.891l-0.001-56.416l0,0l45.082-45.083l45.081,45.083l0,0l-0.001,45.146l0.001,0.002
					l90.161-0.002V478.263z"/>
				<path fill="#FF0000" fill-opacity="0.5" d="M422.437,478.263H321.005l0,0c-43.571,0-78.892-35.321-78.891-78.891l-0.001-56.416
					l0,0l45.082-45.083l45.081,45.083l0,0l-0.001,45.146l0.001,0.002l90.161-0.002V478.263z"/>
				<path fill="none" stroke="#595959" stroke-linejoin="round" stroke-miterlimit="10" d="M422.437,478.263H321.005l0,0
					c-43.571,0-78.892-35.321-78.891-78.891l-0.001-56.416l0,0l45.082-45.083l45.081,45.083l0,0l-0.001,45.146l0.001,0.002
					l90.161-0.002V478.263z"/>
			</g>
			<g>
				<path fill="#FFFFFF" stroke="#595959" stroke-linejoin="round" stroke-miterlimit="10" d="M422.519,117.219h101.432l0,0
					c43.57,0,78.891,35.32,78.891,78.891v56.416l0,0l-45.082,45.082l-45.08-45.082l0,0v-45.146v-0.002l-90.16,0.002V117.219z"/>
				<path fill="#FF0000" fill-opacity="0.5" d="M422.519,117.219h101.432l0,0c43.57,0,78.891,35.32,78.891,78.891v56.416l0,0
					l-45.082,45.082l-45.08-45.082l0,0v-45.146v-0.002l-90.16,0.002V117.219z"/>
				<path fill="none" stroke="#595959" stroke-linejoin="round" stroke-miterlimit="10" d="M422.519,117.219h101.432l0,0
					c43.57,0,78.891,35.32,78.891,78.891v56.416l0,0l-45.082,45.082l-45.08-45.082l0,0v-45.146v-0.002l-90.16,0.002V117.219z"/>
			</g>
			<g>
				<path fill="#FFFFFF" stroke="#595959" stroke-linejoin="round" stroke-miterlimit="10" d="M242.089,297.575l0.001-101.432l0,0
					c-0.001-43.57,35.319-78.892,78.891-78.891l56.415,0.001l0,0l45.083,45.082l-45.082,45.079l0,0l-45.147,0l-0.001,0l0.001,90.161
					H242.089z"/>
				<path fill="#FF0000" fill-opacity="0.5" d="M242.089,297.575l0.001-101.432l0,0c-0.001-43.57,35.319-78.892,78.891-78.891
					l56.415,0.001l0,0l45.083,45.082l-45.082,45.079l0,0l-45.147,0l-0.001,0l0.001,90.161H242.089z"/>
				<path fill="none" stroke="#595959" stroke-linejoin="round" stroke-miterlimit="10" d="M242.089,297.575l0.001-101.432l0,0
					c-0.001-43.57,35.319-78.892,78.891-78.891l56.415,0.001l0,0l45.083,45.082l-45.082,45.079l0,0l-45.147,0l-0.001,0l0.001,90.161
					H242.089z"/>
			</g>
			<path fill-opacity="0" d="M510.5,226.647h88.023v48.002H510.5V226.647z"/>
			<path fill="#FF0000" d="M559.656,255.03v2.883h-10.871c0.121-1.094,0.475-2.127,1.061-3.098c0.586-0.973,1.752-2.266,3.496-3.879
				c1.393-1.303,2.25-2.188,2.57-2.652c0.43-0.641,0.645-1.275,0.645-1.904c0-0.686-0.188-1.217-0.563-1.592
				s-0.889-0.563-1.541-0.563s-1.172,0.197-1.559,0.596c-0.375,0.387-0.59,1.033-0.646,1.939l-3.098-0.314
				c0.188-1.701,0.768-2.924,1.74-3.664c0.971-0.75,2.188-1.127,3.645-1.127c1.592,0,2.84,0.432,3.746,1.293
				c0.916,0.863,1.375,1.934,1.375,3.215c0,0.73-0.133,1.426-0.396,2.088c-0.256,0.652-0.664,1.338-1.227,2.057
				c-0.377,0.486-1.057,1.176-2.039,2.07c-0.973,0.895-1.592,1.492-1.855,1.791c-0.266,0.297-0.477,0.584-0.631,0.861H559.656z"/>
			<path fill-opacity="0" d="M242.166,314.676h88.021v48.004h-88.021V314.676z"/>
			<path fill="#FF0000" d="M286.101,329.686c1.568,0,2.795,0.559,3.678,1.674c1.051,1.326,1.574,3.525,1.574,6.596
				c0,3.061-0.529,5.266-1.59,6.613c-0.873,1.104-2.094,1.656-3.662,1.656c-1.58,0-2.857-0.607-3.828-1.822
				c-0.963-1.215-1.443-3.375-1.443-6.48c0-3.049,0.531-5.242,1.592-6.578C283.306,330.239,284.531,329.686,286.101,329.686z
				 M286.101,332.256c-0.377,0-0.713,0.121-1.012,0.363c-0.299,0.244-0.525,0.674-0.68,1.293c-0.221,0.795-0.33,2.143-0.33,4.043
				s0.094,3.211,0.281,3.928c0.199,0.707,0.441,1.178,0.729,1.408c0.299,0.232,0.635,0.35,1.012,0.35
				c0.375,0,0.707-0.117,0.994-0.35c0.297-0.242,0.529-0.674,0.695-1.291c0.211-0.797,0.314-2.145,0.314-4.045
				s-0.1-3.203-0.297-3.91c-0.189-0.707-0.426-1.182-0.713-1.426C286.808,332.377,286.476,332.256,286.101,332.256z"/>
			<path fill-opacity="0" d="M334.498,135.284h88.021v48.002h-88.021V135.284z"/>
			<path fill="#FF0000" d="M381.117,166.549h-3.1V154.85c-1.137,1.061-2.475,1.846-4.01,2.354v-2.818
				c0.807-0.264,1.686-0.768,2.635-1.508c0.951-0.74,1.602-1.602,1.955-2.584h2.52V166.549z"/>
			<path fill-opacity="0" d="M422.486,405.737h88.023v48.004h-88.023V405.737z"/>
			<path fill="#FF0000" d="M461.052,432.713l3.016-0.363c0.09,0.762,0.344,1.348,0.762,1.754c0.422,0.398,0.93,0.598,1.525,0.598
				c0.641,0,1.182-0.242,1.625-0.73c0.441-0.484,0.662-1.137,0.662-1.953c0-0.785-0.209-1.402-0.629-1.855
				c-0.42-0.465-0.934-0.699-1.543-0.699c-0.396,0-0.871,0.078-1.424,0.234l0.348-2.52c0.84,0.023,1.48-0.16,1.922-0.547
				c0.443-0.387,0.664-0.898,0.664-1.543c0-0.539-0.166-0.969-0.498-1.289c-0.32-0.332-0.752-0.5-1.293-0.5
				c-0.529,0-0.982,0.188-1.359,0.566c-0.375,0.363-0.602,0.898-0.678,1.605l-2.867-0.496c0.199-0.973,0.496-1.754,0.895-2.336
				c0.408-0.586,0.973-1.047,1.689-1.379c0.719-0.34,1.525-0.512,2.42-0.512c1.525,0,2.746,0.484,3.662,1.457
				c0.764,0.797,1.145,1.695,1.145,2.703c0,1.414-0.779,2.547-2.338,3.395c0.93,0.199,1.67,0.648,2.221,1.344
				c0.553,0.684,0.83,1.52,0.83,2.504c0,1.414-0.52,2.621-1.559,3.629c-1.027,1.004-2.314,1.508-3.861,1.508
				c-1.469,0-2.689-0.422-3.662-1.262C461.765,435.178,461.207,434.073,461.052,432.713z"/>
			<path fill-opacity="0" d="M239.976,243.43h92.299v51.412h-92.299V243.43z"/>
			<path d="M269.752,265.194v-9.113h1.838v4.043l3.73-4.043h2.469l-3.432,3.545l3.613,5.568h-2.369l-2.52-4.275l-1.492,1.525v2.75
				H269.752z M284.908,265.194h-1.74v-3.363c0-0.719-0.039-1.182-0.115-1.393c-0.066-0.209-0.188-0.369-0.365-0.48
				c-0.166-0.121-0.365-0.182-0.596-0.182c-0.311,0-0.586,0.082-0.828,0.248c-0.232,0.166-0.393,0.387-0.482,0.662
				c-0.088,0.277-0.131,0.785-0.131,1.525v2.982h-1.758v-6.596h1.625v0.961c0.574-0.738,1.303-1.109,2.188-1.109
				c0.375,0,0.723,0.072,1.043,0.215c0.32,0.133,0.564,0.311,0.73,0.531c0.164,0.209,0.275,0.453,0.33,0.729
				c0.066,0.266,0.1,0.652,0.1,1.16V265.194z M286.285,261.797c0-0.574,0.145-1.133,0.432-1.674
				c0.287-0.553,0.691-0.967,1.211-1.242c0.518-0.287,1.104-0.432,1.756-0.432c0.994,0,1.813,0.326,2.453,0.979
				c0.641,0.641,0.961,1.457,0.961,2.451s-0.326,1.824-0.979,2.486c-0.641,0.652-1.447,0.979-2.42,0.979
				c-0.607,0-1.188-0.139-1.74-0.414c-0.541-0.277-0.955-0.674-1.242-1.193C286.429,263.206,286.285,262.559,286.285,261.797z
				 M288.076,261.897c0,0.652,0.154,1.154,0.463,1.508c0.311,0.342,0.691,0.514,1.145,0.514c0.463,0,0.846-0.172,1.143-0.514
				c0.311-0.354,0.465-0.861,0.465-1.525c0-0.641-0.154-1.131-0.465-1.475c-0.297-0.354-0.68-0.529-1.143-0.529
				c-0.453,0-0.834,0.176-1.145,0.529C288.23,260.749,288.076,261.245,288.076,261.897z M295.685,265.194l-2.09-6.596h1.707
				l1.227,4.326l1.145-4.326h1.689l1.094,4.326l1.26-4.326h1.723l-2.121,6.596h-1.674l-1.143-4.242l-1.111,4.242H295.685z"/>
			<path d="M251.709,271.352h3.348c0.762,0,1.342,0.061,1.74,0.184c0.531,0.154,0.982,0.436,1.359,0.844
				c0.387,0.398,0.68,0.891,0.879,1.477c0.197,0.574,0.297,1.287,0.297,2.137c0,0.752-0.088,1.398-0.264,1.939
				c-0.232,0.662-0.559,1.199-0.979,1.607c-0.32,0.32-0.752,0.563-1.293,0.729c-0.408,0.133-0.955,0.199-1.641,0.199h-3.447V271.352
				z M253.549,272.893v6.033h1.359c0.52,0,0.895-0.027,1.127-0.082c0.299-0.078,0.541-0.205,0.729-0.383
				c0.199-0.176,0.359-0.469,0.48-0.877c0.133-0.41,0.199-0.967,0.199-1.674c0-0.697-0.066-1.232-0.199-1.607
				c-0.121-0.387-0.293-0.686-0.514-0.895c-0.221-0.211-0.502-0.355-0.846-0.432c-0.264-0.055-0.773-0.084-1.523-0.084H253.549z
				 M260.486,277.071c0-0.574,0.145-1.133,0.432-1.674c0.287-0.553,0.689-0.967,1.209-1.244c0.52-0.287,1.105-0.43,1.756-0.43
				c0.996,0,1.813,0.326,2.453,0.977c0.641,0.641,0.961,1.459,0.961,2.453s-0.326,1.822-0.977,2.486
				c-0.641,0.652-1.447,0.977-2.42,0.977c-0.607,0-1.188-0.137-1.74-0.414c-0.541-0.275-0.955-0.674-1.242-1.193
				C260.631,278.479,260.486,277.833,260.486,277.071z M262.275,277.17c0,0.65,0.156,1.154,0.465,1.508
				c0.309,0.342,0.691,0.514,1.143,0.514c0.465,0,0.846-0.172,1.145-0.514c0.309-0.354,0.463-0.861,0.463-1.525
				c0-0.641-0.154-1.133-0.463-1.475c-0.299-0.354-0.68-0.531-1.145-0.531c-0.451,0-0.834,0.178-1.143,0.531
				C262.431,276.02,262.275,276.518,262.275,277.17z M274.658,280.467h-1.74v-3.363c0-0.719-0.039-1.184-0.117-1.393
				c-0.066-0.211-0.188-0.371-0.363-0.48c-0.166-0.121-0.365-0.182-0.598-0.182c-0.309,0-0.584,0.082-0.828,0.248
				c-0.232,0.166-0.393,0.387-0.48,0.662c-0.088,0.277-0.133,0.785-0.133,1.525v2.982h-1.756v-6.596h1.623v0.961
				c0.574-0.74,1.305-1.109,2.188-1.109c0.377,0,0.725,0.07,1.045,0.215c0.32,0.133,0.563,0.309,0.729,0.531
				c0.166,0.209,0.275,0.451,0.332,0.729c0.066,0.266,0.1,0.652,0.1,1.16V280.467z M276.4,271.385h1.74v1.244
				c0,0.508-0.045,0.91-0.133,1.209c-0.09,0.287-0.254,0.547-0.498,0.779c-0.242,0.232-0.547,0.414-0.91,0.547l-0.35-0.729
				c0.354-0.111,0.604-0.266,0.746-0.465c0.154-0.209,0.238-0.492,0.248-0.846H276.4V271.385z M283.002,273.872v1.393h-1.193v2.65
				c0,0.543,0.012,0.857,0.033,0.945s0.072,0.166,0.148,0.232c0.09,0.055,0.188,0.082,0.299,0.082c0.166,0,0.398-0.061,0.695-0.182
				l0.15,1.359c-0.398,0.176-0.857,0.264-1.375,0.264c-0.311,0-0.592-0.049-0.846-0.148c-0.254-0.109-0.443-0.248-0.564-0.414
				c-0.109-0.178-0.193-0.404-0.248-0.68c-0.033-0.209-0.049-0.625-0.049-1.242v-2.867h-0.797v-1.393h0.797v-1.309l1.756-1.027
				v2.336H283.002z M287.777,280.467v-9.115h1.838v4.045l3.73-4.045h2.469l-3.432,3.547l3.613,5.568h-2.369l-2.52-4.275
				l-1.492,1.525v2.75H287.777z M302.933,280.467h-1.74v-3.363c0-0.719-0.039-1.184-0.115-1.393
				c-0.066-0.211-0.188-0.371-0.365-0.48c-0.166-0.121-0.365-0.182-0.596-0.182c-0.311,0-0.586,0.082-0.83,0.248
				c-0.23,0.166-0.391,0.387-0.48,0.662c-0.088,0.277-0.133,0.785-0.133,1.525v2.982h-1.756v-6.596h1.625v0.961
				c0.574-0.74,1.303-1.109,2.188-1.109c0.375,0,0.723,0.07,1.043,0.215c0.32,0.133,0.564,0.309,0.729,0.531
				c0.166,0.209,0.277,0.451,0.332,0.729c0.066,0.266,0.1,0.652,0.1,1.16V280.467z M304.31,277.071c0-0.574,0.145-1.133,0.432-1.674
				c0.287-0.553,0.691-0.967,1.209-1.244c0.52-0.287,1.105-0.43,1.758-0.43c0.994,0,1.813,0.326,2.453,0.977
				c0.641,0.641,0.961,1.459,0.961,2.453s-0.326,1.822-0.979,2.486c-0.641,0.652-1.447,0.977-2.42,0.977
				c-0.607,0-1.188-0.137-1.74-0.414c-0.541-0.275-0.955-0.674-1.242-1.193C304.455,278.479,304.31,277.833,304.31,277.071z
				 M306.101,277.17c0,0.65,0.154,1.154,0.463,1.508c0.311,0.342,0.691,0.514,1.145,0.514c0.463,0,0.846-0.172,1.143-0.514
				c0.311-0.354,0.465-0.861,0.465-1.525c0-0.641-0.154-1.133-0.465-1.475c-0.297-0.354-0.68-0.531-1.143-0.531
				c-0.453,0-0.834,0.178-1.145,0.531C306.256,276.02,306.101,276.518,306.101,277.17z M313.709,280.467l-2.088-6.596h1.707
				l1.227,4.326l1.145-4.326h1.689l1.094,4.326l1.26-4.326h1.723l-2.121,6.596h-1.674l-1.143-4.242l-1.111,4.242H313.709z"/>
			<path fill-opacity="0" d="M325.879,405.737h96.607v51.414h-96.607V405.737z"/>
			<path d="M339.765,418.389h3.348c0.762,0,1.342,0.059,1.74,0.18c0.529,0.156,0.982,0.438,1.359,0.848
				c0.387,0.395,0.678,0.887,0.877,1.473c0.199,0.574,0.299,1.289,0.299,2.141c0,0.75-0.088,1.395-0.266,1.938
				c-0.232,0.664-0.557,1.199-0.977,1.605c-0.32,0.32-0.752,0.566-1.293,0.73c-0.41,0.133-0.957,0.199-1.641,0.199h-3.447V418.389z
				 M341.605,419.928v6.031h1.357c0.52,0,0.896-0.027,1.129-0.082c0.297-0.078,0.541-0.203,0.729-0.379
				c0.199-0.18,0.359-0.473,0.48-0.879c0.133-0.41,0.199-0.969,0.199-1.676c0-0.695-0.066-1.23-0.199-1.605
				c-0.121-0.387-0.293-0.688-0.514-0.895c-0.221-0.211-0.504-0.355-0.846-0.434c-0.266-0.055-0.773-0.082-1.525-0.082H341.605z
				 M348.543,424.104c0-0.574,0.143-1.133,0.43-1.672c0.287-0.555,0.691-0.969,1.211-1.242c0.52-0.289,1.104-0.434,1.756-0.434
				c0.994,0,1.813,0.328,2.453,0.98c0.641,0.641,0.961,1.457,0.961,2.453c0,0.992-0.326,1.82-0.979,2.484
				c-0.641,0.652-1.447,0.977-2.418,0.977c-0.607,0-1.188-0.137-1.74-0.414c-0.541-0.277-0.957-0.672-1.244-1.191
				C348.685,425.514,348.543,424.866,348.543,424.104z M350.332,424.206c0,0.652,0.154,1.152,0.465,1.508
				c0.309,0.34,0.689,0.512,1.143,0.512c0.465,0,0.846-0.172,1.145-0.512c0.309-0.355,0.463-0.863,0.463-1.523
				c0-0.645-0.154-1.133-0.463-1.477c-0.299-0.355-0.68-0.531-1.145-0.531c-0.453,0-0.834,0.176-1.143,0.531
				C350.486,423.057,350.332,423.553,350.332,424.206z M362.713,427.502h-1.738v-3.363c0-0.719-0.039-1.184-0.117-1.395
				c-0.066-0.207-0.188-0.367-0.365-0.48c-0.164-0.121-0.363-0.18-0.596-0.18c-0.309,0-0.586,0.082-0.828,0.246
				c-0.232,0.168-0.393,0.387-0.48,0.664c-0.09,0.277-0.133,0.785-0.133,1.523v2.984h-1.758v-6.594h1.625v0.961
				c0.574-0.742,1.303-1.113,2.188-1.113c0.375,0,0.723,0.074,1.043,0.215c0.32,0.133,0.564,0.313,0.73,0.531
				c0.166,0.211,0.275,0.453,0.332,0.73c0.064,0.266,0.098,0.652,0.098,1.16V427.502z M364.455,418.42h1.74v1.242
				c0,0.508-0.043,0.914-0.133,1.211c-0.088,0.289-0.254,0.547-0.496,0.777c-0.244,0.234-0.547,0.414-0.912,0.547l-0.348-0.727
				c0.354-0.113,0.602-0.266,0.746-0.465c0.154-0.211,0.236-0.492,0.248-0.844h-0.846V418.42z M371.058,420.909v1.391h-1.193v2.652
				c0,0.539,0.01,0.855,0.033,0.941c0.021,0.09,0.07,0.168,0.148,0.234c0.088,0.055,0.188,0.082,0.299,0.082
				c0.166,0,0.396-0.059,0.695-0.184l0.148,1.359c-0.396,0.18-0.855,0.266-1.375,0.266c-0.309,0-0.59-0.051-0.846-0.148
				c-0.254-0.109-0.441-0.25-0.563-0.414c-0.111-0.176-0.193-0.402-0.248-0.68c-0.033-0.211-0.051-0.625-0.051-1.242v-2.867h-0.795
				v-1.391h0.795v-1.313l1.758-1.027v2.34H371.058z M375.832,427.502v-9.113h1.84v4.043l3.729-4.043h2.469l-3.43,3.547l3.613,5.566
				h-2.371l-2.518-4.277l-1.492,1.527v2.75H375.832z M390.99,427.502h-1.74v-3.363c0-0.719-0.039-1.184-0.115-1.395
				c-0.066-0.207-0.189-0.367-0.365-0.48c-0.166-0.121-0.365-0.18-0.598-0.18c-0.309,0-0.584,0.082-0.828,0.246
				c-0.232,0.168-0.393,0.387-0.48,0.664s-0.133,0.785-0.133,1.523v2.984h-1.756v-6.594h1.623v0.961
				c0.574-0.742,1.305-1.113,2.188-1.113c0.377,0,0.725,0.074,1.045,0.215c0.32,0.133,0.563,0.313,0.729,0.531
				c0.166,0.211,0.277,0.453,0.332,0.73c0.066,0.266,0.1,0.652,0.1,1.16V427.502z M392.367,424.104c0-0.574,0.145-1.133,0.432-1.672
				c0.287-0.555,0.689-0.969,1.209-1.242c0.52-0.289,1.105-0.434,1.756-0.434c0.996,0,1.813,0.328,2.453,0.98
				c0.641,0.641,0.961,1.457,0.961,2.453c0,0.992-0.324,1.82-0.977,2.484c-0.641,0.652-1.447,0.977-2.42,0.977
				c-0.607,0-1.188-0.137-1.74-0.414c-0.541-0.277-0.955-0.672-1.242-1.191C392.511,425.514,392.367,424.866,392.367,424.104z
				 M394.158,424.206c0,0.652,0.154,1.152,0.463,1.508c0.309,0.34,0.691,0.512,1.143,0.512c0.465,0,0.846-0.172,1.145-0.512
				c0.309-0.355,0.465-0.863,0.465-1.523c0-0.645-0.156-1.133-0.465-1.477c-0.299-0.355-0.68-0.531-1.145-0.531
				c-0.451,0-0.834,0.176-1.143,0.531C394.312,423.057,394.158,423.553,394.158,424.206z M401.765,427.502l-2.088-6.594h1.707
				l1.227,4.324l1.143-4.324h1.691l1.094,4.324l1.26-4.324h1.723l-2.121,6.594h-1.674l-1.143-4.242l-1.111,4.242H401.765z"/>
			<path d="M339.765,433.659h3.348c0.762,0,1.342,0.063,1.74,0.184c0.529,0.156,0.982,0.438,1.359,0.848
				c0.387,0.395,0.678,0.887,0.877,1.473c0.199,0.574,0.299,1.289,0.299,2.137c0,0.754-0.088,1.398-0.266,1.941
				c-0.232,0.66-0.557,1.199-0.977,1.605c-0.32,0.32-0.752,0.566-1.293,0.73c-0.41,0.133-0.957,0.199-1.641,0.199h-3.447V433.659z
				 M341.605,435.202v6.031h1.357c0.52,0,0.896-0.027,1.129-0.082c0.297-0.078,0.541-0.203,0.729-0.379
				c0.199-0.18,0.359-0.473,0.48-0.879c0.133-0.41,0.199-0.969,0.199-1.676c0-0.695-0.066-1.23-0.199-1.605
				c-0.121-0.387-0.293-0.688-0.514-0.895c-0.221-0.211-0.504-0.355-0.846-0.434c-0.266-0.055-0.773-0.082-1.525-0.082H341.605z
				 M348.543,439.377c0-0.574,0.143-1.133,0.43-1.672c0.287-0.555,0.691-0.969,1.211-1.246c0.52-0.285,1.104-0.43,1.756-0.43
				c0.994,0,1.813,0.328,2.453,0.977c0.641,0.645,0.961,1.461,0.961,2.453c0,0.996-0.326,1.824-0.979,2.488
				c-0.641,0.652-1.447,0.977-2.418,0.977c-0.607,0-1.188-0.137-1.74-0.414c-0.541-0.277-0.957-0.676-1.244-1.191
				C348.685,440.788,348.543,440.139,348.543,439.377z M350.332,439.479c0,0.648,0.154,1.152,0.465,1.508
				c0.309,0.34,0.689,0.512,1.143,0.512c0.465,0,0.846-0.172,1.145-0.512c0.309-0.355,0.463-0.863,0.463-1.527
				c0-0.641-0.154-1.133-0.463-1.473c-0.299-0.355-0.68-0.531-1.145-0.531c-0.453,0-0.834,0.176-1.143,0.531
				C350.486,438.327,350.332,438.827,350.332,439.479z M362.713,442.776h-1.738v-3.363c0-0.719-0.039-1.184-0.117-1.395
				c-0.066-0.207-0.188-0.367-0.365-0.48c-0.164-0.121-0.363-0.18-0.596-0.18c-0.309,0-0.586,0.082-0.828,0.246
				c-0.232,0.168-0.393,0.387-0.48,0.664c-0.09,0.277-0.133,0.785-0.133,1.523v2.984h-1.758v-6.598h1.625v0.961
				c0.574-0.738,1.303-1.109,2.188-1.109c0.375,0,0.723,0.074,1.043,0.215c0.32,0.133,0.564,0.313,0.73,0.531
				c0.166,0.211,0.275,0.453,0.332,0.73c0.064,0.266,0.098,0.652,0.098,1.16V442.776z M364.455,433.694h1.74v1.242
				c0,0.508-0.043,0.91-0.133,1.211c-0.088,0.285-0.254,0.547-0.496,0.777c-0.244,0.234-0.547,0.414-0.912,0.547l-0.348-0.727
				c0.354-0.113,0.602-0.266,0.746-0.465c0.154-0.211,0.236-0.492,0.248-0.848h-0.846V433.694z M371.058,436.178v1.395h-1.193v2.652
				c0,0.539,0.01,0.855,0.033,0.941c0.021,0.09,0.07,0.168,0.148,0.234c0.088,0.055,0.188,0.082,0.299,0.082
				c0.166,0,0.396-0.063,0.695-0.184l0.148,1.359c-0.396,0.176-0.855,0.266-1.375,0.266c-0.309,0-0.59-0.051-0.846-0.148
				c-0.254-0.109-0.441-0.25-0.563-0.414c-0.111-0.176-0.193-0.402-0.248-0.68c-0.033-0.211-0.051-0.625-0.051-1.242v-2.867h-0.795
				v-1.395h0.795v-1.309l1.758-1.027v2.336H371.058z M375.832,442.776v-9.117h1.84v4.047l3.729-4.047h2.469l-3.43,3.547l3.613,5.57
				h-2.371l-2.518-4.277l-1.492,1.527v2.75H375.832z M390.99,442.776h-1.74v-3.363c0-0.719-0.039-1.184-0.115-1.395
				c-0.066-0.207-0.189-0.367-0.365-0.48c-0.166-0.121-0.365-0.18-0.598-0.18c-0.309,0-0.584,0.082-0.828,0.246
				c-0.232,0.168-0.393,0.387-0.48,0.664s-0.133,0.785-0.133,1.523v2.984h-1.756v-6.598h1.623v0.961
				c0.574-0.738,1.305-1.109,2.188-1.109c0.377,0,0.725,0.074,1.045,0.215c0.32,0.133,0.563,0.313,0.729,0.531
				c0.166,0.211,0.277,0.453,0.332,0.73c0.066,0.266,0.1,0.652,0.1,1.16V442.776z M392.367,439.377c0-0.574,0.145-1.133,0.432-1.672
				c0.287-0.555,0.689-0.969,1.209-1.246c0.52-0.285,1.105-0.43,1.756-0.43c0.996,0,1.813,0.328,2.453,0.977
				c0.641,0.645,0.961,1.461,0.961,2.453c0,0.996-0.324,1.824-0.977,2.488c-0.641,0.652-1.447,0.977-2.42,0.977
				c-0.607,0-1.188-0.137-1.74-0.414c-0.541-0.277-0.955-0.676-1.242-1.191C392.511,440.788,392.367,440.139,392.367,439.377z
				 M394.158,439.479c0,0.648,0.154,1.152,0.463,1.508c0.309,0.34,0.691,0.512,1.143,0.512c0.465,0,0.846-0.172,1.145-0.512
				c0.309-0.355,0.465-0.863,0.465-1.527c0-0.641-0.156-1.133-0.465-1.473c-0.299-0.355-0.68-0.531-1.145-0.531
				c-0.451,0-0.834,0.176-1.143,0.531C394.312,438.327,394.158,438.827,394.158,439.479z M401.765,442.776l-2.088-6.598h1.707
				l1.227,4.328l1.143-4.328h1.691l1.094,4.328l1.26-4.328h1.723l-2.121,6.598h-1.674l-1.143-4.242l-1.111,4.242H401.765z"/>
			<path fill-opacity="0" d="M423.656,136.247h88.021v51.412h-88.021V136.247z"/>
			<path d="M451.291,158.012v-9.115h1.84v4.043l3.729-4.043h2.471l-3.432,3.547l3.613,5.568h-2.369l-2.52-4.277l-1.492,1.525v2.752
				H451.291z M466.449,158.012h-1.74v-3.365c0-0.719-0.039-1.182-0.115-1.393c-0.066-0.209-0.189-0.369-0.365-0.48
				c-0.166-0.121-0.365-0.182-0.598-0.182c-0.309,0-0.584,0.082-0.828,0.248c-0.232,0.166-0.393,0.387-0.48,0.664
				c-0.088,0.275-0.133,0.783-0.133,1.523v2.984h-1.756v-6.596h1.623v0.961c0.574-0.74,1.305-1.111,2.188-1.111
				c0.377,0,0.725,0.072,1.045,0.215c0.32,0.133,0.563,0.311,0.729,0.531c0.166,0.209,0.277,0.453,0.332,0.729
				c0.066,0.266,0.1,0.652,0.1,1.16V158.012z M467.826,154.614c0-0.574,0.145-1.133,0.432-1.674
				c0.287-0.553,0.689-0.967,1.209-1.242c0.52-0.287,1.105-0.432,1.758-0.432c0.994,0,1.811,0.326,2.451,0.979
				c0.641,0.641,0.963,1.457,0.963,2.453c0,0.994-0.326,1.822-0.979,2.484c-0.641,0.652-1.447,0.979-2.42,0.979
				c-0.607,0-1.188-0.139-1.74-0.414c-0.541-0.277-0.955-0.674-1.242-1.193C467.97,156.022,467.826,155.375,467.826,154.614z
				 M469.617,154.713c0,0.652,0.154,1.154,0.463,1.508c0.309,0.342,0.691,0.514,1.145,0.514c0.463,0,0.844-0.172,1.143-0.514
				c0.309-0.354,0.465-0.861,0.465-1.523c0-0.643-0.156-1.133-0.465-1.477c-0.299-0.354-0.68-0.529-1.143-0.529
				c-0.453,0-0.836,0.176-1.145,0.529C469.771,153.565,469.617,154.061,469.617,154.713z M477.224,158.012l-2.088-6.596h1.707
				l1.227,4.324l1.143-4.324h1.691l1.094,4.324l1.26-4.324h1.723l-2.121,6.596h-1.674l-1.143-4.244l-1.111,4.244H477.224z"/>
			<path d="M451.291,173.284v-9.113h1.84v4.043l3.729-4.043h2.471l-3.432,3.545l3.613,5.568h-2.369l-2.52-4.275l-1.492,1.525v2.75
				H451.291z M466.449,173.284h-1.74v-3.363c0-0.719-0.039-1.182-0.115-1.393c-0.066-0.209-0.189-0.369-0.365-0.48
				c-0.166-0.121-0.365-0.182-0.598-0.182c-0.309,0-0.584,0.082-0.828,0.248c-0.232,0.166-0.393,0.387-0.48,0.662
				c-0.088,0.277-0.133,0.785-0.133,1.525v2.982h-1.756v-6.596h1.623v0.961c0.574-0.74,1.305-1.109,2.188-1.109
				c0.377,0,0.725,0.072,1.045,0.215c0.32,0.133,0.563,0.311,0.729,0.531c0.166,0.209,0.277,0.453,0.332,0.729
				c0.066,0.266,0.1,0.652,0.1,1.16V173.284z M467.826,169.887c0-0.574,0.145-1.133,0.432-1.674
				c0.287-0.553,0.689-0.967,1.209-1.244c0.52-0.287,1.105-0.43,1.758-0.43c0.994,0,1.811,0.326,2.451,0.977
				c0.641,0.643,0.963,1.459,0.963,2.453s-0.326,1.824-0.979,2.486c-0.641,0.652-1.447,0.979-2.42,0.979
				c-0.607,0-1.188-0.139-1.74-0.416c-0.541-0.275-0.955-0.674-1.242-1.191C467.97,171.295,467.826,170.649,467.826,169.887z
				 M469.617,169.987c0,0.65,0.154,1.154,0.463,1.508c0.309,0.342,0.691,0.514,1.145,0.514c0.463,0,0.844-0.172,1.143-0.514
				c0.309-0.354,0.465-0.861,0.465-1.525c0-0.641-0.156-1.133-0.465-1.475c-0.299-0.354-0.68-0.529-1.143-0.529
				c-0.453,0-0.836,0.176-1.145,0.529C469.771,168.836,469.617,169.334,469.617,169.987z M477.224,173.284l-2.088-6.596h1.707
				l1.227,4.326l1.143-4.326h1.691l1.094,4.326l1.26-4.326h1.723l-2.121,6.596h-1.674l-1.143-4.242l-1.111,4.242H477.224z"/>
			<path fill-opacity="0" d="M511.687,306.459h92.297v51.41h-92.297V306.459z"/>
			<path d="M523.418,319.108h3.348c0.764,0,1.344,0.061,1.74,0.184c0.531,0.154,0.984,0.436,1.359,0.844
				c0.387,0.398,0.68,0.891,0.879,1.477c0.199,0.574,0.297,1.287,0.297,2.137c0,0.752-0.088,1.398-0.264,1.939
				c-0.232,0.662-0.559,1.199-0.979,1.607c-0.32,0.32-0.752,0.563-1.293,0.729c-0.408,0.133-0.955,0.199-1.641,0.199h-3.447V319.108
				z M525.258,320.649v6.033h1.359c0.52,0,0.895-0.027,1.127-0.082c0.299-0.078,0.541-0.205,0.729-0.383
				c0.199-0.176,0.359-0.469,0.48-0.877c0.133-0.41,0.199-0.967,0.199-1.674c0-0.697-0.066-1.232-0.199-1.607
				c-0.121-0.387-0.291-0.686-0.514-0.896c-0.221-0.209-0.502-0.354-0.844-0.43c-0.266-0.055-0.773-0.084-1.525-0.084H525.258z
				 M532.195,324.827c0-0.576,0.145-1.133,0.432-1.674c0.287-0.553,0.689-0.967,1.209-1.244c0.52-0.287,1.105-0.43,1.758-0.43
				c0.994,0,1.811,0.326,2.451,0.977c0.641,0.641,0.963,1.459,0.963,2.453s-0.326,1.822-0.979,2.486
				c-0.641,0.652-1.447,0.977-2.42,0.977c-0.607,0-1.188-0.137-1.74-0.414c-0.541-0.275-0.955-0.674-1.242-1.193
				C532.34,326.235,532.195,325.588,532.195,324.827z M533.986,324.926c0,0.65,0.154,1.154,0.463,1.508
				c0.311,0.342,0.691,0.514,1.145,0.514c0.463,0,0.844-0.172,1.143-0.514c0.309-0.354,0.465-0.863,0.465-1.525
				c0-0.641-0.156-1.133-0.465-1.475c-0.299-0.354-0.68-0.531-1.143-0.531c-0.453,0-0.834,0.178-1.145,0.531
				C534.14,323.776,533.986,324.274,533.986,324.926z M546.367,328.223h-1.74v-3.363c0-0.719-0.039-1.184-0.115-1.393
				c-0.066-0.211-0.189-0.371-0.365-0.48c-0.166-0.121-0.365-0.184-0.598-0.184c-0.309,0-0.584,0.084-0.828,0.25
				c-0.232,0.166-0.393,0.387-0.48,0.662c-0.088,0.277-0.133,0.785-0.133,1.525v2.982h-1.756v-6.596h1.623v0.961
				c0.576-0.74,1.305-1.109,2.188-1.109c0.377,0,0.725,0.07,1.045,0.215c0.32,0.133,0.563,0.309,0.729,0.529
				c0.166,0.211,0.277,0.453,0.332,0.73c0.066,0.266,0.1,0.652,0.1,1.16V328.223z M548.109,319.141h1.74v1.244
				c0,0.508-0.045,0.91-0.133,1.209c-0.088,0.287-0.254,0.547-0.498,0.779c-0.242,0.232-0.547,0.414-0.91,0.547l-0.35-0.729
				c0.355-0.111,0.604-0.266,0.746-0.465c0.156-0.211,0.238-0.492,0.25-0.846h-0.846V319.141z M554.711,321.627v1.393h-1.193v2.65
				c0,0.543,0.012,0.857,0.033,0.945s0.072,0.166,0.15,0.232c0.088,0.055,0.188,0.082,0.297,0.082c0.166,0,0.398-0.061,0.697-0.182
				l0.148,1.359c-0.398,0.176-0.855,0.264-1.375,0.264c-0.311,0-0.592-0.049-0.846-0.148c-0.254-0.111-0.441-0.248-0.563-0.414
				c-0.111-0.178-0.195-0.404-0.25-0.68c-0.033-0.209-0.049-0.625-0.049-1.242v-2.867h-0.797v-1.393h0.797v-1.309l1.756-1.027v2.336
				H554.711z M559.486,328.223v-9.115h1.84v4.045l3.729-4.045h2.469l-3.43,3.547l3.611,5.568h-2.369l-2.52-4.275l-1.49,1.525v2.75
				H559.486z M574.642,328.223h-1.74v-3.363c0-0.719-0.037-1.184-0.115-1.393c-0.066-0.211-0.188-0.371-0.365-0.48
				c-0.166-0.121-0.363-0.184-0.596-0.184c-0.309,0-0.586,0.084-0.828,0.25c-0.232,0.166-0.393,0.387-0.48,0.662
				c-0.09,0.277-0.133,0.785-0.133,1.525v2.982h-1.758v-6.596h1.625v0.961c0.574-0.74,1.303-1.109,2.188-1.109
				c0.375,0,0.723,0.07,1.043,0.215c0.32,0.133,0.564,0.309,0.73,0.529c0.164,0.211,0.275,0.453,0.33,0.73
				c0.066,0.266,0.1,0.652,0.1,1.16V328.223z M576.021,324.827c0-0.576,0.143-1.133,0.43-1.674c0.287-0.553,0.691-0.967,1.211-1.244
				c0.52-0.287,1.104-0.43,1.756-0.43c0.994,0,1.813,0.326,2.453,0.977c0.641,0.641,0.961,1.459,0.961,2.453
				s-0.326,1.822-0.979,2.486c-0.641,0.652-1.447,0.977-2.418,0.977c-0.609,0-1.189-0.137-1.74-0.414
				c-0.543-0.275-0.957-0.674-1.244-1.193C576.164,326.235,576.021,325.588,576.021,324.827z M577.81,324.926
				c0,0.65,0.154,1.154,0.465,1.508c0.309,0.342,0.689,0.514,1.143,0.514c0.465,0,0.846-0.172,1.143-0.514
				c0.311-0.354,0.465-0.863,0.465-1.525c0-0.641-0.154-1.133-0.465-1.475c-0.297-0.354-0.678-0.531-1.143-0.531
				c-0.453,0-0.834,0.178-1.143,0.531C577.965,323.776,577.81,324.274,577.81,324.926z M585.42,328.223l-2.09-6.596h1.707
				l1.227,4.326l1.145-4.326h1.689l1.094,4.326l1.26-4.326h1.725l-2.123,6.596h-1.672l-1.145-4.242l-1.109,4.242H585.42z"/>
			<path d="M541.461,343.497v-9.115h1.84v4.043l3.729-4.043h2.469l-3.43,3.547l3.611,5.568h-2.369l-2.52-4.275l-1.49,1.523v2.752
				H541.461z M556.617,343.497h-1.74v-3.365c0-0.717-0.037-1.182-0.115-1.391c-0.066-0.211-0.188-0.371-0.365-0.48
				c-0.164-0.123-0.363-0.184-0.596-0.184c-0.309,0-0.586,0.084-0.828,0.248c-0.232,0.166-0.393,0.387-0.48,0.664
				c-0.09,0.275-0.133,0.783-0.133,1.523v2.984h-1.758v-6.596h1.625v0.961c0.574-0.74,1.303-1.111,2.188-1.111
				c0.375,0,0.723,0.072,1.043,0.217c0.32,0.133,0.564,0.309,0.73,0.529c0.166,0.211,0.275,0.453,0.33,0.73
				c0.066,0.264,0.1,0.65,0.1,1.158V343.497z M557.996,340.098c0-0.574,0.143-1.131,0.43-1.674c0.287-0.551,0.691-0.967,1.211-1.242
				c0.52-0.287,1.104-0.432,1.756-0.432c0.994,0,1.813,0.326,2.453,0.979c0.641,0.641,0.961,1.459,0.961,2.453
				s-0.326,1.822-0.979,2.484c-0.641,0.652-1.447,0.979-2.418,0.979c-0.609,0-1.189-0.139-1.74-0.414
				c-0.543-0.275-0.957-0.674-1.244-1.193C558.138,341.508,557.996,340.862,557.996,340.098z M559.785,340.198
				c0,0.652,0.154,1.154,0.465,1.508c0.309,0.344,0.689,0.514,1.143,0.514c0.465,0,0.846-0.17,1.145-0.514
				c0.309-0.354,0.463-0.861,0.463-1.523c0-0.641-0.154-1.133-0.463-1.475c-0.299-0.354-0.68-0.531-1.145-0.531
				c-0.453,0-0.834,0.178-1.143,0.531C559.939,339.049,559.785,339.547,559.785,340.198z M567.394,343.497l-2.088-6.596h1.707
				l1.225,4.324l1.145-4.324h1.689l1.094,4.324l1.26-4.324h1.725l-2.121,6.596h-1.674l-1.145-4.242l-1.109,4.242H567.394z"/>
			<path fill-opacity="0" d="M237.873,349.385h96.607v51.41h-96.607V349.385z"/>
			<path d="M272.845,371.149l-2.172-9.115h1.873l1.375,6.266l1.674-6.266h2.188l1.592,6.363l1.393-6.363h1.855l-2.203,9.115h-1.957
				l-1.822-6.811l-1.807,6.811H272.845z M285.289,362.034v3.348c0.563-0.65,1.236-0.977,2.021-0.977c0.398,0,0.758,0.076,1.078,0.23
				c0.33,0.145,0.58,0.332,0.746,0.564c0.164,0.232,0.275,0.492,0.33,0.779c0.055,0.275,0.084,0.707,0.084,1.293v3.877h-1.74v-3.48
				c0-0.695-0.033-1.137-0.1-1.326c-0.066-0.188-0.184-0.336-0.348-0.447c-0.166-0.109-0.377-0.166-0.631-0.166
				c-0.287,0-0.547,0.072-0.779,0.217c-0.23,0.143-0.402,0.359-0.514,0.646c-0.1,0.275-0.148,0.689-0.148,1.242v3.314h-1.74v-9.115
				H285.289z M292.633,366.559l-1.592-0.283c0.178-0.641,0.48-1.109,0.912-1.408c0.441-0.309,1.094-0.463,1.955-0.463
				c0.773,0,1.348,0.094,1.725,0.281c0.387,0.176,0.656,0.408,0.811,0.695c0.156,0.277,0.232,0.797,0.232,1.559l-0.016,2.037
				c0,0.586,0.027,1.018,0.082,1.293c0.055,0.266,0.16,0.559,0.314,0.879h-1.723c-0.045-0.121-0.1-0.293-0.166-0.514
				c-0.033-0.111-0.055-0.182-0.066-0.215c-0.299,0.297-0.619,0.518-0.961,0.662c-0.332,0.145-0.691,0.215-1.078,0.215
				c-0.684,0-1.225-0.182-1.623-0.547c-0.387-0.375-0.58-0.844-0.58-1.408c0-0.375,0.088-0.707,0.266-0.994
				c0.188-0.287,0.441-0.508,0.762-0.662c0.32-0.166,0.785-0.305,1.393-0.414c0.807-0.156,1.369-0.299,1.689-0.432v-0.166
				c0-0.342-0.082-0.586-0.248-0.729c-0.166-0.145-0.48-0.217-0.945-0.217c-0.309,0-0.551,0.063-0.729,0.184
				C292.881,366.034,292.742,366.249,292.633,366.559z M294.969,367.983c-0.221,0.066-0.574,0.156-1.061,0.266
				c-0.486,0.1-0.807,0.199-0.961,0.299c-0.221,0.166-0.332,0.369-0.332,0.613c0,0.242,0.09,0.459,0.266,0.646
				c0.188,0.176,0.42,0.264,0.695,0.264c0.322,0,0.625-0.104,0.912-0.314c0.211-0.154,0.348-0.348,0.414-0.58
				c0.045-0.143,0.066-0.426,0.066-0.844V367.983z M301.433,364.553v1.393h-1.193v2.65c0,0.541,0.012,0.857,0.033,0.945
				c0.023,0.088,0.072,0.166,0.15,0.232c0.088,0.055,0.188,0.082,0.299,0.082c0.164,0,0.396-0.061,0.695-0.182l0.148,1.359
				c-0.396,0.176-0.855,0.264-1.375,0.264c-0.309,0-0.592-0.049-0.846-0.148c-0.254-0.111-0.441-0.248-0.563-0.414
				c-0.111-0.178-0.193-0.404-0.248-0.68c-0.033-0.211-0.051-0.625-0.051-1.242v-2.867h-0.795v-1.393h0.795v-1.309l1.756-1.027
				v2.336H301.433z"/>
			<path d="M252.455,386.42v-9.113h1.84v3.594h3.613v-3.594h1.84v9.113h-1.84v-3.977h-3.613v3.977H252.455z M262.939,381.831
				l-1.592-0.281c0.178-0.641,0.482-1.109,0.912-1.41c0.441-0.309,1.094-0.465,1.955-0.465c0.773,0,1.348,0.094,1.725,0.285
				c0.387,0.176,0.656,0.406,0.813,0.695c0.154,0.273,0.23,0.793,0.23,1.555l-0.016,2.039c0,0.586,0.027,1.02,0.082,1.293
				c0.057,0.266,0.16,0.559,0.316,0.879h-1.725c-0.045-0.121-0.1-0.293-0.166-0.512c-0.033-0.113-0.055-0.184-0.066-0.219
				c-0.297,0.301-0.617,0.52-0.961,0.664c-0.332,0.145-0.689,0.215-1.076,0.215c-0.686,0-1.227-0.18-1.625-0.547
				c-0.387-0.375-0.58-0.844-0.58-1.406c0-0.379,0.088-0.707,0.266-0.996c0.188-0.285,0.441-0.508,0.762-0.664
				c0.32-0.164,0.785-0.301,1.393-0.414c0.807-0.152,1.369-0.297,1.689-0.43v-0.164c0-0.344-0.082-0.586-0.248-0.73
				s-0.48-0.215-0.945-0.215c-0.309,0-0.551,0.059-0.729,0.18C263.187,381.307,263.051,381.522,262.939,381.831z M265.275,383.256
				c-0.221,0.066-0.574,0.152-1.061,0.266c-0.486,0.098-0.807,0.199-0.961,0.297c-0.221,0.164-0.33,0.371-0.33,0.613
				s0.088,0.457,0.264,0.645c0.188,0.18,0.42,0.266,0.697,0.266c0.32,0,0.623-0.105,0.91-0.313c0.211-0.156,0.348-0.348,0.414-0.582
				c0.045-0.145,0.066-0.426,0.066-0.844V383.256z M268.658,379.827h1.625v0.961c0.221-0.332,0.508-0.598,0.861-0.797
				c0.365-0.211,0.768-0.316,1.209-0.316c0.764,0,1.41,0.301,1.939,0.895c0.541,0.598,0.813,1.438,0.813,2.52
				c0,1.094-0.271,1.953-0.813,2.57c-0.541,0.605-1.193,0.91-1.955,0.91c-0.365,0-0.695-0.07-0.994-0.215s-0.607-0.391-0.928-0.746
				v3.332h-1.758V379.827z M270.383,383.006c0,0.742,0.148,1.289,0.447,1.641c0.299,0.355,0.656,0.531,1.076,0.531
				c0.41,0,0.746-0.16,1.012-0.48c0.266-0.332,0.398-0.867,0.398-1.609c0-0.684-0.139-1.191-0.416-1.523
				c-0.275-0.344-0.617-0.512-1.027-0.512c-0.43,0-0.789,0.164-1.076,0.496C270.521,381.881,270.383,382.366,270.383,383.006z
				 M276.433,379.827h1.623v0.961c0.223-0.332,0.51-0.598,0.863-0.797c0.363-0.211,0.768-0.316,1.209-0.316
				c0.762,0,1.408,0.301,1.939,0.895c0.541,0.598,0.813,1.438,0.813,2.52c0,1.094-0.271,1.953-0.813,2.57
				c-0.541,0.605-1.193,0.91-1.957,0.91c-0.363,0-0.695-0.07-0.994-0.215c-0.297-0.145-0.607-0.391-0.928-0.746v3.332h-1.756
				V379.827z M278.156,383.006c0,0.742,0.15,1.289,0.447,1.641c0.299,0.355,0.658,0.531,1.078,0.531c0.408,0,0.746-0.16,1.012-0.48
				c0.264-0.332,0.396-0.867,0.396-1.609c0-0.684-0.139-1.191-0.414-1.523c-0.275-0.344-0.619-0.512-1.027-0.512
				c-0.432,0-0.791,0.164-1.078,0.496C278.295,381.881,278.156,382.366,278.156,383.006z M288.086,384.315l1.74,0.301
				c-0.221,0.641-0.574,1.125-1.061,1.457s-1.088,0.496-1.807,0.496c-1.148,0-2-0.375-2.553-1.125
				c-0.441-0.598-0.662-1.355-0.662-2.27c0-1.094,0.287-1.953,0.861-2.57s1.299-0.93,2.17-0.93c0.984,0,1.758,0.328,2.32,0.98
				c0.576,0.641,0.846,1.629,0.813,2.965h-4.375c0.021,0.52,0.166,0.922,0.432,1.211c0.264,0.285,0.602,0.43,1.01,0.43
				c0.266,0,0.492-0.07,0.68-0.215C287.842,384.889,287.986,384.647,288.086,384.315z M288.185,382.561
				c-0.012-0.512-0.145-0.898-0.398-1.16c-0.242-0.266-0.547-0.398-0.912-0.398c-0.375,0-0.689,0.137-0.943,0.414
				c-0.244,0.285-0.365,0.668-0.365,1.145H288.185z M297.334,386.42h-1.738v-3.363c0-0.719-0.039-1.184-0.117-1.395
				c-0.066-0.207-0.188-0.367-0.363-0.48c-0.166-0.121-0.365-0.18-0.598-0.18c-0.309,0-0.586,0.082-0.828,0.246
				c-0.232,0.168-0.393,0.387-0.48,0.664c-0.09,0.277-0.133,0.785-0.133,1.523v2.984h-1.758v-6.594h1.625v0.961
				c0.574-0.742,1.303-1.113,2.188-1.113c0.375,0,0.723,0.074,1.043,0.219c0.322,0.129,0.564,0.309,0.73,0.527
				c0.166,0.211,0.275,0.453,0.332,0.73c0.066,0.266,0.098,0.652,0.098,1.16V386.42z M302.937,384.315l1.74,0.301
				c-0.221,0.641-0.574,1.125-1.061,1.457s-1.088,0.496-1.807,0.496c-1.148,0-1.998-0.375-2.551-1.125
				c-0.441-0.598-0.664-1.355-0.664-2.27c0-1.094,0.287-1.953,0.863-2.57c0.574-0.617,1.297-0.93,2.17-0.93
				c0.984,0,1.756,0.328,2.32,0.98c0.574,0.641,0.846,1.629,0.813,2.965h-4.375c0.021,0.52,0.166,0.922,0.43,1.211
				c0.266,0.285,0.604,0.43,1.012,0.43c0.266,0,0.492-0.07,0.68-0.215C302.695,384.889,302.838,384.647,302.937,384.315z
				 M303.037,382.561c-0.01-0.512-0.143-0.898-0.396-1.16c-0.244-0.266-0.547-0.398-0.912-0.398c-0.375,0-0.691,0.137-0.945,0.414
				c-0.242,0.285-0.363,0.668-0.363,1.145H303.037z M312.236,386.42h-1.605v-0.977c-0.277,0.387-0.598,0.672-0.963,0.859
				c-0.363,0.18-0.734,0.266-1.109,0.266c-0.762,0-1.414-0.305-1.955-0.91c-0.531-0.617-0.797-1.477-0.797-2.57
				c0-1.113,0.26-1.961,0.779-2.535c0.531-0.586,1.199-0.879,2.006-0.879c0.729,0,1.363,0.305,1.906,0.914v-3.281h1.738V386.42z
				 M307.58,382.975c0,0.707,0.1,1.215,0.299,1.523c0.275,0.465,0.668,0.695,1.176,0.695c0.398,0,0.736-0.172,1.012-0.512
				c0.287-0.344,0.432-0.859,0.432-1.543c0-0.75-0.139-1.293-0.414-1.625c-0.266-0.34-0.613-0.512-1.045-0.512
				c-0.408,0-0.758,0.164-1.045,0.496C307.719,381.831,307.58,382.323,307.58,382.975z M317.724,384.069h-1.59
				c0-0.223,0-0.359,0-0.414c0-0.512,0.082-0.93,0.248-1.262s0.502-0.699,1.01-1.109c0.52-0.422,0.83-0.695,0.93-0.828
				c0.154-0.199,0.23-0.426,0.23-0.68c0-0.332-0.137-0.621-0.414-0.863c-0.275-0.242-0.641-0.363-1.094-0.363
				c-0.441,0-0.813,0.125-1.109,0.379c-0.299,0.258-0.504,0.637-0.613,1.145l-1.607-0.199c0.043-0.738,0.359-1.363,0.943-1.871
				c0.586-0.52,1.354-0.777,2.305-0.777c1.004,0,1.801,0.258,2.387,0.777c0.596,0.52,0.895,1.125,0.895,1.824
				c0,0.387-0.111,0.754-0.332,1.109c-0.209,0.344-0.674,0.805-1.393,1.391c-0.363,0.309-0.59,0.559-0.678,0.746
				C317.752,383.26,317.713,383.592,317.724,384.069z M316.135,386.42v-1.738h1.738v1.738H316.135z"/>
			<path fill-opacity="0" d="M279.187,136.249h96.607v51.41h-96.607V136.249z"/>
			<path d="M300.015,158.012l-2.172-9.113h1.873l1.375,6.264l1.674-6.264h2.188l1.592,6.363l1.391-6.363h1.857l-2.205,9.113h-1.955
				l-1.822-6.811l-1.807,6.811H300.015z M312.459,148.899v3.346c0.563-0.65,1.236-0.977,2.021-0.977
				c0.398,0,0.756,0.076,1.076,0.232c0.332,0.143,0.58,0.33,0.746,0.563s0.277,0.492,0.332,0.779
				c0.055,0.275,0.082,0.707,0.082,1.293v3.877h-1.738v-3.48c0-0.695-0.033-1.137-0.1-1.324c-0.066-0.189-0.184-0.338-0.35-0.447
				c-0.164-0.111-0.375-0.166-0.629-0.166c-0.287,0-0.547,0.07-0.779,0.215s-0.402,0.359-0.514,0.646
				c-0.1,0.275-0.148,0.689-0.148,1.242v3.314h-1.74v-9.113H312.459z M319.802,153.422l-1.592-0.281
				c0.178-0.641,0.48-1.111,0.912-1.41c0.441-0.309,1.094-0.463,1.955-0.463c0.773,0,1.348,0.094,1.723,0.281
				c0.387,0.178,0.658,0.408,0.813,0.695c0.154,0.277,0.232,0.797,0.232,1.559l-0.016,2.039c0,0.586,0.027,1.016,0.082,1.293
				c0.055,0.264,0.16,0.557,0.314,0.877h-1.723c-0.045-0.121-0.1-0.293-0.166-0.514c-0.033-0.109-0.055-0.182-0.066-0.215
				c-0.299,0.299-0.619,0.52-0.961,0.662c-0.332,0.145-0.691,0.217-1.078,0.217c-0.684,0-1.227-0.184-1.623-0.547
				c-0.387-0.377-0.58-0.846-0.58-1.41c0-0.375,0.088-0.707,0.266-0.994c0.188-0.287,0.441-0.508,0.762-0.662
				c0.32-0.166,0.785-0.305,1.393-0.414c0.807-0.154,1.369-0.299,1.689-0.432v-0.166c0-0.342-0.082-0.584-0.248-0.729
				s-0.48-0.215-0.945-0.215c-0.309,0-0.553,0.061-0.729,0.182C320.051,152.897,319.912,153.114,319.802,153.422z M322.138,154.848
				c-0.221,0.066-0.574,0.154-1.061,0.264c-0.486,0.1-0.807,0.199-0.961,0.299c-0.221,0.166-0.332,0.371-0.332,0.613
				s0.088,0.459,0.266,0.646c0.188,0.176,0.42,0.266,0.695,0.266c0.32,0,0.625-0.105,0.912-0.314c0.209-0.156,0.348-0.35,0.414-0.58
				c0.045-0.145,0.066-0.426,0.066-0.846V154.848z M328.603,151.417v1.393h-1.193v2.652c0,0.541,0.012,0.855,0.033,0.943
				c0.023,0.088,0.072,0.166,0.15,0.232c0.088,0.055,0.188,0.082,0.297,0.082c0.166,0,0.398-0.061,0.697-0.182l0.148,1.359
				c-0.398,0.176-0.855,0.266-1.375,0.266c-0.309,0-0.592-0.051-0.846-0.15c-0.254-0.109-0.441-0.248-0.563-0.414
				c-0.111-0.176-0.193-0.402-0.25-0.68c-0.033-0.209-0.049-0.623-0.049-1.242v-2.867h-0.795v-1.393h0.795v-1.309l1.756-1.027v2.336
				H328.603z M332.98,153.504c0-0.928,0.145-1.707,0.432-2.336c0.199-0.465,0.475-0.879,0.828-1.242
				c0.365-0.365,0.762-0.637,1.193-0.813c0.564-0.244,1.215-0.365,1.955-0.365c1.348,0,2.426,0.42,3.232,1.26
				c0.807,0.828,1.209,1.982,1.209,3.463c0,1.471-0.402,2.619-1.209,3.447c-0.795,0.828-1.861,1.244-3.199,1.244
				c-1.357,0-2.441-0.41-3.248-1.227C333.379,156.106,332.98,154.963,332.98,153.504z M334.886,153.456
				c0,1.027,0.238,1.807,0.713,2.336c0.475,0.531,1.076,0.797,1.807,0.797c0.74,0,1.342-0.26,1.807-0.779
				c0.475-0.531,0.711-1.326,0.711-2.387c0-1.039-0.23-1.813-0.695-2.32c-0.453-0.52-1.061-0.779-1.822-0.779
				c-0.752,0-1.359,0.26-1.824,0.779C335.119,151.622,334.886,152.407,334.886,153.456z M349.244,158.012h-1.74v-3.363
				c0-0.719-0.039-1.182-0.115-1.393c-0.066-0.209-0.188-0.369-0.365-0.48c-0.166-0.121-0.363-0.182-0.596-0.182
				c-0.311,0-0.586,0.082-0.828,0.248c-0.232,0.166-0.393,0.387-0.482,0.662c-0.088,0.277-0.131,0.785-0.131,1.525v2.982h-1.758
				v-6.596h1.625v0.961c0.574-0.74,1.303-1.109,2.188-1.109c0.375,0,0.723,0.072,1.043,0.215c0.32,0.133,0.564,0.311,0.73,0.531
				c0.164,0.209,0.275,0.453,0.33,0.729c0.066,0.266,0.1,0.652,0.1,1.16V158.012z M354.847,155.909l1.74,0.297
				c-0.221,0.641-0.574,1.127-1.061,1.459s-1.088,0.498-1.807,0.498c-1.148,0-2-0.377-2.551-1.127
				c-0.443-0.598-0.664-1.354-0.664-2.271c0-1.094,0.287-1.949,0.861-2.568s1.299-0.928,2.172-0.928c0.982,0,1.756,0.326,2.32,0.977
				c0.574,0.643,0.844,1.631,0.811,2.967h-4.375c0.023,0.52,0.166,0.924,0.432,1.211s0.602,0.43,1.012,0.43
				c0.264,0,0.49-0.07,0.68-0.215C354.605,156.483,354.748,156.239,354.847,155.909z M354.947,154.151
				c-0.012-0.508-0.145-0.895-0.398-1.16c-0.242-0.264-0.547-0.396-0.91-0.396c-0.377,0-0.691,0.137-0.945,0.414
				c-0.242,0.287-0.365,0.668-0.365,1.143H354.947z"/>
			<path d="M308.97,164.17h3.348c0.762,0,1.342,0.061,1.74,0.184c0.529,0.154,0.982,0.436,1.357,0.844
				c0.387,0.398,0.68,0.891,0.879,1.475c0.199,0.576,0.299,1.287,0.299,2.139c0,0.752-0.088,1.398-0.266,1.939
				c-0.232,0.662-0.559,1.197-0.979,1.607c-0.32,0.32-0.75,0.563-1.291,0.729c-0.41,0.133-0.957,0.199-1.641,0.199h-3.447V164.17z
				 M310.81,165.711v6.033h1.357c0.52,0,0.896-0.027,1.127-0.084c0.299-0.076,0.541-0.203,0.73-0.381
				c0.197-0.176,0.357-0.469,0.48-0.877c0.133-0.41,0.199-0.967,0.199-1.674c0-0.697-0.066-1.232-0.199-1.607
				c-0.123-0.387-0.293-0.686-0.514-0.896c-0.221-0.209-0.504-0.354-0.846-0.43c-0.266-0.057-0.773-0.084-1.525-0.084H310.81z
				 M317.748,169.889c0-0.576,0.143-1.133,0.43-1.674c0.287-0.553,0.691-0.967,1.211-1.244c0.518-0.287,1.104-0.43,1.756-0.43
				c0.994,0,1.813,0.324,2.453,0.977c0.641,0.641,0.961,1.459,0.961,2.453s-0.326,1.822-0.979,2.486
				c-0.641,0.65-1.447,0.977-2.42,0.977c-0.607,0-1.188-0.137-1.74-0.414c-0.541-0.275-0.955-0.674-1.242-1.193
				C317.89,171.297,317.748,170.651,317.748,169.889z M319.537,169.987c0,0.652,0.154,1.156,0.465,1.51
				c0.309,0.342,0.689,0.514,1.143,0.514c0.463,0,0.846-0.172,1.143-0.514c0.311-0.354,0.465-0.863,0.465-1.525
				c0-0.641-0.154-1.133-0.465-1.475c-0.297-0.354-0.68-0.531-1.143-0.531c-0.453,0-0.834,0.178-1.143,0.531
				C319.691,168.838,319.537,169.336,319.537,169.987z M329.748,171.18l1.74,0.299c-0.223,0.641-0.576,1.127-1.061,1.459
				c-0.486,0.33-1.09,0.496-1.807,0.496c-1.15,0-2-0.375-2.553-1.127c-0.441-0.596-0.662-1.354-0.662-2.27
				c0-1.094,0.287-1.951,0.861-2.568c0.574-0.619,1.297-0.928,2.17-0.928c0.984,0,1.758,0.324,2.32,0.977
				c0.574,0.641,0.846,1.631,0.813,2.967h-4.375c0.021,0.52,0.166,0.922,0.432,1.209c0.264,0.287,0.602,0.432,1.01,0.432
				c0.266,0,0.492-0.072,0.68-0.215C329.504,171.754,329.648,171.512,329.748,171.18z M329.847,169.424
				c-0.012-0.508-0.145-0.895-0.398-1.16c-0.244-0.266-0.547-0.398-0.912-0.398c-0.375,0-0.689,0.139-0.943,0.414
				c-0.244,0.289-0.365,0.67-0.365,1.145H329.847z M332.385,171.397l1.756-0.266c0.078,0.342,0.227,0.602,0.447,0.779
				c0.232,0.176,0.553,0.264,0.961,0.264c0.453,0,0.791-0.082,1.012-0.248c0.154-0.121,0.232-0.275,0.232-0.463
				c0-0.133-0.039-0.244-0.117-0.332c-0.088-0.088-0.281-0.166-0.58-0.232c-1.414-0.309-2.309-0.592-2.684-0.846
				c-0.52-0.363-0.779-0.861-0.779-1.49c0-0.574,0.221-1.055,0.662-1.441c0.453-0.387,1.156-0.58,2.105-0.58
				c0.906,0,1.58,0.148,2.021,0.447c0.443,0.287,0.746,0.717,0.912,1.291l-1.658,0.299c-0.064-0.254-0.197-0.447-0.396-0.58
				c-0.199-0.143-0.48-0.215-0.846-0.215c-0.453,0-0.779,0.066-0.979,0.199c-0.131,0.088-0.197,0.203-0.197,0.348
				c0,0.133,0.055,0.242,0.166,0.332c0.154,0.109,0.695,0.27,1.623,0.48c0.939,0.209,1.592,0.469,1.955,0.779
				c0.365,0.309,0.547,0.738,0.547,1.291c0,0.607-0.254,1.133-0.762,1.574c-0.498,0.432-1.242,0.646-2.238,0.646
				c-0.895,0-1.607-0.182-2.137-0.547C332.892,172.524,332.551,172.026,332.385,171.397z M343.838,170.932h-1.592
				c0-0.221,0-0.359,0-0.414c0-0.508,0.084-0.928,0.25-1.26s0.502-0.701,1.01-1.109c0.52-0.42,0.83-0.697,0.928-0.83
				c0.156-0.197,0.232-0.424,0.232-0.68c0-0.33-0.137-0.617-0.414-0.861c-0.275-0.242-0.641-0.363-1.094-0.363
				c-0.441,0-0.813,0.127-1.109,0.381c-0.299,0.254-0.504,0.635-0.613,1.143l-1.607-0.199c0.043-0.74,0.357-1.363,0.943-1.871
				c0.586-0.52,1.354-0.779,2.305-0.779c1.004,0,1.801,0.26,2.387,0.779c0.596,0.518,0.895,1.127,0.895,1.822
				c0,0.387-0.111,0.756-0.332,1.109c-0.211,0.344-0.674,0.807-1.393,1.393c-0.363,0.311-0.59,0.559-0.68,0.746
				C343.865,170.125,343.826,170.458,343.838,170.932z M342.246,173.286v-1.74h1.74v1.74H342.246z"/>
			<path fill-opacity="0" d="M507.41,189.78h96.607v51.41H507.41V189.78z"/>
			<path d="M529.066,211.543v-9.115h1.838v3.596h3.613v-3.596h1.84v9.115h-1.84v-3.979h-3.613v3.979H529.066z M537.842,208.145
				c0-0.574,0.145-1.131,0.432-1.674c0.287-0.551,0.691-0.967,1.209-1.242c0.52-0.287,1.105-0.432,1.758-0.432
				c0.994,0,1.813,0.326,2.453,0.979c0.641,0.641,0.961,1.459,0.961,2.453s-0.326,1.822-0.979,2.486
				c-0.641,0.65-1.447,0.977-2.42,0.977c-0.607,0-1.188-0.139-1.74-0.414c-0.541-0.275-0.955-0.674-1.242-1.193
				C537.986,209.555,537.842,208.909,537.842,208.145z M539.633,208.245c0,0.652,0.154,1.154,0.463,1.508
				c0.311,0.344,0.691,0.514,1.145,0.514c0.463,0,0.846-0.17,1.143-0.514c0.311-0.354,0.465-0.861,0.465-1.523
				c0-0.641-0.154-1.133-0.465-1.475c-0.297-0.354-0.68-0.531-1.143-0.531c-0.453,0-0.834,0.178-1.145,0.531
				C539.787,207.096,539.633,207.594,539.633,208.245z M547.24,211.543l-2.088-6.596h1.707l1.227,4.324l1.145-4.324h1.689
				l1.094,4.324l1.26-4.324h1.723l-2.121,6.596h-1.674l-1.143-4.242l-1.111,4.242H547.24z M559.086,207.036
				c0-0.928,0.145-1.707,0.432-2.336c0.199-0.465,0.475-0.879,0.828-1.244c0.365-0.365,0.762-0.635,1.193-0.813
				c0.563-0.242,1.215-0.363,1.955-0.363c1.348,0,2.426,0.42,3.232,1.26c0.807,0.828,1.209,1.982,1.209,3.463
				c0,1.469-0.402,2.619-1.209,3.447c-0.797,0.828-1.861,1.242-3.199,1.242c-1.359,0-2.441-0.408-3.248-1.227
				C559.484,209.637,559.086,208.495,559.086,207.036z M560.992,206.985c0,1.029,0.236,1.807,0.713,2.338
				c0.475,0.529,1.076,0.795,1.807,0.795c0.74,0,1.342-0.26,1.805-0.779c0.477-0.529,0.713-1.324,0.713-2.387
				c0-1.037-0.232-1.811-0.695-2.318c-0.453-0.52-1.061-0.779-1.822-0.779c-0.752,0-1.359,0.26-1.824,0.779
				C561.224,205.151,560.992,205.936,560.992,206.985z M575.349,211.543h-1.74v-3.365c0-0.717-0.039-1.182-0.115-1.391
				c-0.066-0.211-0.188-0.371-0.365-0.48c-0.166-0.123-0.365-0.184-0.596-0.184c-0.311,0-0.586,0.084-0.83,0.25
				c-0.232,0.164-0.393,0.385-0.48,0.662c-0.088,0.275-0.133,0.785-0.133,1.525v2.982h-1.756v-6.596h1.623v0.961
				c0.576-0.74,1.305-1.111,2.188-1.111c0.377,0,0.725,0.072,1.045,0.217c0.32,0.133,0.563,0.309,0.729,0.529
				c0.166,0.211,0.277,0.453,0.332,0.73c0.066,0.264,0.1,0.65,0.1,1.16V211.543z M580.953,209.438l1.74,0.299
				c-0.221,0.641-0.574,1.127-1.061,1.459c-0.486,0.33-1.088,0.496-1.807,0.496c-1.148,0-2-0.375-2.553-1.127
				c-0.441-0.596-0.662-1.354-0.662-2.27c0-1.094,0.287-1.951,0.861-2.568c0.574-0.619,1.299-0.93,2.172-0.93
				c0.982,0,1.756,0.326,2.318,0.979c0.576,0.641,0.846,1.629,0.813,2.967H578.4c0.023,0.52,0.166,0.922,0.432,1.209
				s0.602,0.432,1.01,0.432c0.266,0,0.492-0.072,0.68-0.215C580.709,210.012,580.853,209.77,580.953,209.438z M581.052,207.682
				c-0.012-0.508-0.145-0.895-0.398-1.16c-0.242-0.266-0.547-0.398-0.91-0.398c-0.377,0-0.691,0.139-0.945,0.414
				c-0.244,0.287-0.365,0.67-0.365,1.145H581.052z"/>
			<path d="M531.539,217.702h3.348c0.762,0,1.342,0.061,1.74,0.182c0.529,0.154,0.982,0.438,1.359,0.846
				c0.387,0.396,0.68,0.889,0.877,1.475c0.199,0.574,0.299,1.287,0.299,2.139c0,0.75-0.088,1.396-0.266,1.938
				c-0.23,0.664-0.557,1.199-0.977,1.607c-0.32,0.32-0.752,0.564-1.293,0.73c-0.408,0.133-0.955,0.199-1.641,0.199h-3.447V217.702z
				 M533.379,219.243v6.031h1.359c0.518,0,0.895-0.027,1.127-0.082c0.297-0.078,0.541-0.205,0.729-0.381
				c0.199-0.178,0.359-0.471,0.48-0.879c0.133-0.408,0.199-0.967,0.199-1.674c0-0.695-0.066-1.232-0.199-1.607
				c-0.121-0.387-0.293-0.686-0.514-0.895c-0.221-0.211-0.502-0.354-0.846-0.432c-0.266-0.055-0.773-0.082-1.523-0.082H533.379z
				 M540.316,223.418c0-0.574,0.143-1.133,0.43-1.674c0.289-0.553,0.691-0.967,1.211-1.242c0.52-0.287,1.104-0.432,1.756-0.432
				c0.994,0,1.813,0.326,2.453,0.979c0.641,0.641,0.961,1.457,0.961,2.453c0,0.994-0.326,1.822-0.977,2.484
				c-0.643,0.652-1.449,0.979-2.42,0.979c-0.607,0-1.188-0.139-1.74-0.414c-0.541-0.277-0.955-0.674-1.244-1.193
				C540.459,224.827,540.316,224.18,540.316,223.418z M542.105,223.518c0,0.652,0.154,1.154,0.465,1.508
				c0.309,0.342,0.689,0.514,1.143,0.514c0.465,0,0.846-0.172,1.145-0.514c0.309-0.354,0.463-0.861,0.463-1.523
				c0-0.643-0.154-1.133-0.463-1.477c-0.299-0.354-0.68-0.529-1.145-0.529c-0.453,0-0.834,0.176-1.143,0.529
				C542.26,222.37,542.105,222.866,542.105,223.518z M552.316,224.711l1.74,0.299c-0.221,0.641-0.574,1.127-1.061,1.457
				c-0.486,0.332-1.088,0.498-1.807,0.498c-1.148,0-2-0.375-2.553-1.127c-0.441-0.598-0.662-1.354-0.662-2.271
				c0-1.094,0.287-1.949,0.861-2.568c0.574-0.617,1.299-0.928,2.172-0.928c0.982,0,1.756,0.326,2.32,0.979
				c0.574,0.641,0.844,1.629,0.811,2.967h-4.375c0.023,0.518,0.166,0.922,0.432,1.209s0.602,0.432,1.01,0.432
				c0.266,0,0.492-0.072,0.68-0.217C552.074,225.286,552.217,225.043,552.316,224.711z M552.416,222.956
				c-0.012-0.51-0.145-0.896-0.398-1.16c-0.242-0.266-0.547-0.398-0.91-0.398c-0.377,0-0.691,0.139-0.945,0.414
				c-0.242,0.287-0.365,0.668-0.365,1.145H552.416z M554.953,224.926l1.758-0.266c0.076,0.344,0.225,0.604,0.447,0.779
				c0.23,0.178,0.551,0.266,0.961,0.266c0.453,0,0.789-0.082,1.01-0.248c0.156-0.121,0.232-0.277,0.232-0.465
				c0-0.133-0.039-0.242-0.115-0.332c-0.088-0.088-0.283-0.164-0.58-0.23c-1.414-0.311-2.309-0.592-2.686-0.846
				c-0.52-0.365-0.779-0.861-0.779-1.492c0-0.574,0.223-1.055,0.664-1.441c0.453-0.387,1.154-0.58,2.104-0.58
				c0.906,0,1.58,0.15,2.023,0.447c0.441,0.287,0.744,0.719,0.91,1.293l-1.656,0.299c-0.066-0.254-0.199-0.447-0.398-0.58
				c-0.199-0.145-0.48-0.215-0.846-0.215c-0.453,0-0.777,0.064-0.977,0.197c-0.133,0.09-0.199,0.205-0.199,0.35
				c0,0.131,0.055,0.242,0.166,0.33c0.154,0.111,0.695,0.271,1.623,0.48c0.939,0.211,1.592,0.471,1.957,0.779
				c0.363,0.309,0.547,0.74,0.547,1.293c0,0.607-0.256,1.133-0.764,1.574c-0.496,0.432-1.242,0.646-2.236,0.646
				c-0.895,0-1.607-0.182-2.139-0.547C555.461,226.053,555.119,225.557,554.953,224.926z M566.148,226.817v-9.115h1.84v9.115
				H566.148z M572.75,220.221v1.391h-1.193v2.652c0,0.541,0.012,0.855,0.033,0.943c0.021,0.09,0.072,0.166,0.148,0.232
				c0.09,0.057,0.189,0.084,0.299,0.084c0.166,0,0.398-0.061,0.695-0.184l0.15,1.359c-0.398,0.178-0.857,0.266-1.377,0.266
				c-0.309,0-0.59-0.051-0.844-0.148c-0.254-0.111-0.441-0.25-0.564-0.416c-0.109-0.176-0.193-0.402-0.248-0.678
				c-0.033-0.211-0.049-0.625-0.049-1.244v-2.867h-0.797v-1.391h0.797v-1.311l1.756-1.027v2.338H572.75z M577.717,224.463h-1.59
				c0-0.221,0-0.359,0-0.414c0-0.51,0.082-0.93,0.248-1.26c0.166-0.332,0.502-0.703,1.012-1.111c0.518-0.42,0.828-0.695,0.928-0.828
				c0.154-0.199,0.23-0.426,0.23-0.68c0-0.332-0.137-0.619-0.414-0.861c-0.275-0.244-0.641-0.365-1.094-0.365
				c-0.441,0-0.811,0.127-1.109,0.381s-0.504,0.637-0.613,1.145l-1.607-0.199c0.045-0.74,0.359-1.365,0.945-1.873
				c0.584-0.52,1.352-0.779,2.303-0.779c1.006,0,1.801,0.26,2.387,0.779c0.596,0.52,0.895,1.127,0.895,1.824
				c0,0.385-0.111,0.756-0.332,1.109c-0.209,0.342-0.674,0.807-1.391,1.393c-0.365,0.309-0.592,0.557-0.68,0.746
				C577.744,223.657,577.707,223.987,577.717,224.463z M576.127,226.817v-1.74h1.74v1.74H576.127z"/>
			<path fill-opacity="0" d="M462.898,404.034h96.607v51.41h-96.607V404.034z"/>
			<path d="M485.845,425.799l-2.17-9.113h1.871l1.377,6.262l1.674-6.262h2.188l1.59,6.363l1.393-6.363h1.855l-2.203,9.113h-1.957
				l-1.822-6.813l-1.807,6.813H485.845z M498.289,416.686v3.344c0.564-0.648,1.238-0.977,2.021-0.977
				c0.398,0,0.758,0.078,1.078,0.234c0.332,0.141,0.58,0.328,0.746,0.563c0.166,0.23,0.275,0.492,0.33,0.777
				c0.057,0.277,0.084,0.707,0.084,1.293v3.879h-1.74v-3.48c0-0.695-0.033-1.137-0.1-1.324c-0.066-0.191-0.182-0.34-0.348-0.449
				s-0.375-0.164-0.631-0.164c-0.287,0-0.547,0.07-0.777,0.215c-0.232,0.141-0.404,0.359-0.514,0.645
				c-0.1,0.277-0.15,0.691-0.15,1.242v3.316h-1.74v-9.113H498.289z M503.496,419.202h1.855l1.59,4.676l1.541-4.676h1.807
				l-2.336,6.348l-0.414,1.145c-0.154,0.387-0.305,0.68-0.447,0.879c-0.133,0.211-0.293,0.375-0.48,0.496
				c-0.178,0.133-0.398,0.23-0.664,0.297c-0.254,0.078-0.547,0.117-0.877,0.117c-0.344,0-0.674-0.039-0.994-0.117l-0.15-1.355
				c0.277,0.055,0.52,0.082,0.729,0.082c0.41,0,0.707-0.121,0.896-0.367c0.197-0.23,0.354-0.535,0.463-0.91L503.496,419.202z
				 M514.574,421.292c0-0.93,0.143-1.707,0.43-2.336c0.199-0.465,0.477-0.879,0.83-1.242c0.363-0.367,0.762-0.637,1.191-0.813
				c0.564-0.246,1.217-0.367,1.957-0.367c1.348,0,2.424,0.422,3.23,1.262c0.807,0.828,1.211,1.98,1.211,3.461
				c0,1.473-0.404,2.621-1.211,3.449c-0.795,0.828-1.861,1.242-3.197,1.242c-1.359,0-2.441-0.41-3.248-1.227
				C514.97,423.893,514.574,422.749,514.574,421.292z M516.478,421.241c0,1.027,0.238,1.809,0.713,2.336
				c0.477,0.531,1.078,0.797,1.807,0.797c0.74,0,1.344-0.258,1.807-0.777c0.475-0.531,0.713-1.328,0.713-2.387
				c0-1.039-0.232-1.813-0.695-2.32c-0.453-0.52-1.063-0.781-1.824-0.781c-0.75,0-1.359,0.262-1.822,0.781
				C516.711,419.409,516.478,420.19,516.478,421.241z M530.838,425.799h-1.74v-3.363c0-0.719-0.039-1.184-0.117-1.395
				c-0.066-0.207-0.188-0.367-0.363-0.48c-0.166-0.121-0.365-0.18-0.598-0.18c-0.309,0-0.586,0.082-0.828,0.246
				c-0.232,0.168-0.393,0.387-0.48,0.664s-0.133,0.785-0.133,1.523v2.984h-1.756v-6.598h1.623v0.961
				c0.574-0.738,1.305-1.109,2.188-1.109c0.375,0,0.725,0.074,1.045,0.215c0.32,0.133,0.563,0.313,0.729,0.531
				c0.166,0.211,0.275,0.453,0.332,0.73c0.066,0.266,0.1,0.652,0.1,1.16V425.799z M536.441,423.694l1.74,0.297
				c-0.223,0.641-0.576,1.129-1.063,1.461c-0.484,0.332-1.088,0.496-1.805,0.496c-1.15,0-2-0.375-2.553-1.125
				c-0.441-0.598-0.662-1.355-0.662-2.273c0-1.094,0.287-1.949,0.861-2.566c0.574-0.621,1.297-0.93,2.17-0.93
				c0.984,0,1.758,0.328,2.32,0.977c0.574,0.645,0.846,1.633,0.813,2.969h-4.375c0.021,0.52,0.166,0.922,0.43,1.211
				c0.266,0.285,0.604,0.43,1.012,0.43c0.266,0,0.492-0.07,0.68-0.215C536.197,424.268,536.342,424.026,536.441,423.694z
				 M536.541,421.936c-0.012-0.508-0.145-0.895-0.398-1.16c-0.244-0.262-0.547-0.395-0.912-0.395c-0.375,0-0.689,0.137-0.943,0.414
				c-0.244,0.285-0.365,0.668-0.365,1.141H536.541z"/>
			<path d="M487.027,431.956h3.348c0.762,0,1.342,0.063,1.74,0.184c0.529,0.156,0.982,0.438,1.357,0.844
				c0.387,0.398,0.68,0.891,0.879,1.477c0.199,0.574,0.299,1.285,0.299,2.137c0,0.754-0.09,1.398-0.266,1.941
				c-0.232,0.66-0.559,1.195-0.979,1.605c-0.32,0.32-0.75,0.563-1.291,0.73c-0.41,0.133-0.957,0.199-1.641,0.199h-3.447V431.956z
				 M488.865,433.499v6.031h1.359c0.52,0,0.895-0.027,1.127-0.082c0.299-0.078,0.541-0.203,0.73-0.383
				c0.197-0.176,0.357-0.469,0.48-0.875c0.131-0.41,0.197-0.969,0.197-1.676c0-0.695-0.066-1.23-0.197-1.605
				c-0.123-0.387-0.293-0.688-0.514-0.898c-0.223-0.207-0.504-0.352-0.846-0.43c-0.266-0.055-0.773-0.082-1.525-0.082H488.865z
				 M495.802,437.674c0-0.574,0.145-1.133,0.432-1.672c0.287-0.555,0.691-0.969,1.209-1.246c0.52-0.285,1.105-0.43,1.758-0.43
				c0.994,0,1.813,0.324,2.453,0.977c0.641,0.641,0.961,1.461,0.961,2.453c0,0.996-0.326,1.824-0.979,2.488
				c-0.641,0.648-1.447,0.977-2.42,0.977c-0.607,0-1.188-0.137-1.738-0.414c-0.543-0.277-0.957-0.676-1.244-1.195
				C495.947,439.084,495.802,438.436,495.802,437.674z M497.594,437.772c0,0.652,0.154,1.156,0.463,1.512
				c0.311,0.34,0.691,0.512,1.145,0.512c0.465,0,0.846-0.172,1.143-0.512c0.311-0.355,0.465-0.863,0.465-1.527
				c0-0.641-0.154-1.133-0.465-1.473c-0.297-0.355-0.678-0.531-1.143-0.531c-0.453,0-0.834,0.176-1.145,0.531
				C497.748,436.624,497.594,437.124,497.594,437.772z M507.804,438.967l1.74,0.297c-0.223,0.641-0.576,1.129-1.063,1.461
				c-0.484,0.328-1.088,0.496-1.805,0.496c-1.15,0-2-0.375-2.553-1.129c-0.441-0.594-0.662-1.352-0.662-2.27
				c0-1.094,0.287-1.949,0.861-2.566c0.574-0.621,1.297-0.93,2.17-0.93c0.984,0,1.758,0.324,2.32,0.977
				c0.574,0.641,0.846,1.633,0.813,2.969h-4.375c0.021,0.52,0.166,0.922,0.432,1.207c0.264,0.289,0.602,0.434,1.01,0.434
				c0.266,0,0.492-0.074,0.68-0.215C507.56,439.542,507.705,439.299,507.804,438.967z M507.904,437.209
				c-0.012-0.508-0.145-0.895-0.398-1.16c-0.244-0.266-0.547-0.398-0.912-0.398c-0.375,0-0.689,0.141-0.943,0.414
				c-0.244,0.289-0.365,0.672-0.365,1.145H507.904z M510.441,439.182l1.756-0.266c0.078,0.344,0.227,0.602,0.447,0.781
				c0.232,0.176,0.553,0.262,0.961,0.262c0.453,0,0.791-0.082,1.012-0.246c0.154-0.121,0.232-0.277,0.232-0.465
				c0-0.133-0.039-0.242-0.117-0.332c-0.088-0.086-0.281-0.164-0.58-0.23c-1.414-0.309-2.309-0.594-2.684-0.848
				c-0.52-0.363-0.779-0.859-0.779-1.488c0-0.574,0.221-1.055,0.662-1.441c0.453-0.387,1.156-0.582,2.105-0.582
				c0.906,0,1.58,0.148,2.021,0.449c0.441,0.285,0.746,0.715,0.912,1.289l-1.658,0.301c-0.066-0.254-0.197-0.449-0.396-0.582
				c-0.199-0.141-0.48-0.215-0.846-0.215c-0.453,0-0.779,0.066-0.979,0.199c-0.131,0.09-0.197,0.203-0.197,0.348
				c0,0.133,0.055,0.242,0.164,0.332c0.156,0.109,0.697,0.27,1.625,0.48c0.939,0.211,1.59,0.469,1.955,0.777
				c0.365,0.313,0.547,0.742,0.547,1.293c0,0.609-0.254,1.133-0.762,1.574c-0.498,0.434-1.244,0.648-2.238,0.648
				c-0.895,0-1.607-0.184-2.137-0.547C510.949,440.311,510.607,439.811,510.441,439.182z M521.635,441.073v-9.117h1.84v9.117
				H521.635z M528.238,434.475v1.395h-1.193v2.648c0,0.543,0.01,0.859,0.033,0.945c0.021,0.09,0.07,0.168,0.148,0.234
				c0.088,0.055,0.188,0.082,0.299,0.082c0.166,0,0.396-0.063,0.695-0.184l0.148,1.359c-0.396,0.176-0.855,0.266-1.375,0.266
				c-0.309,0-0.59-0.051-0.846-0.148c-0.254-0.113-0.441-0.25-0.563-0.414c-0.111-0.18-0.193-0.406-0.248-0.68
				c-0.033-0.211-0.051-0.625-0.051-1.242v-2.867h-0.795v-1.395h0.795v-1.309l1.758-1.027v2.336H528.238z M533.205,438.717h-1.592
				c0-0.219,0-0.359,0-0.414c0-0.508,0.084-0.926,0.25-1.258c0.164-0.332,0.502-0.703,1.01-1.109
				c0.52-0.422,0.828-0.699,0.928-0.832c0.156-0.195,0.232-0.422,0.232-0.68c0-0.328-0.139-0.617-0.414-0.859
				s-0.641-0.363-1.094-0.363c-0.441,0-0.813,0.125-1.109,0.379c-0.299,0.254-0.504,0.637-0.613,1.145l-1.607-0.199
				c0.043-0.742,0.357-1.363,0.943-1.871c0.586-0.52,1.354-0.781,2.305-0.781c1.004,0,1.801,0.262,2.385,0.781
				c0.598,0.516,0.896,1.125,0.896,1.82c0,0.387-0.111,0.758-0.332,1.109c-0.211,0.344-0.674,0.809-1.393,1.395
				c-0.365,0.309-0.59,0.559-0.68,0.746C533.232,437.913,533.193,438.245,533.205,438.717z M531.613,441.073v-1.742h1.74v1.742
				H531.613z"/>
			<path fill-opacity="0" d="M330.205,353.243h96.607v35.979h-96.607V353.243z"/>
			<path d="M360.336,375.006v-9.113h3.879c0.971,0,1.678,0.082,2.121,0.248c0.441,0.166,0.795,0.459,1.061,0.879
				s0.396,0.895,0.396,1.424c0,0.686-0.203,1.254-0.613,1.707c-0.396,0.443-0.994,0.719-1.789,0.83
				c0.398,0.23,0.725,0.49,0.979,0.777c0.264,0.277,0.613,0.768,1.043,1.477l1.127,1.771h-2.203l-1.326-1.988
				c-0.475-0.707-0.801-1.148-0.979-1.326c-0.176-0.188-0.363-0.314-0.563-0.381c-0.188-0.076-0.492-0.115-0.912-0.115h-0.381v3.811
				H360.336z M362.176,369.754h1.359c0.883,0,1.436-0.039,1.656-0.117c0.221-0.076,0.393-0.203,0.514-0.381
				c0.133-0.188,0.199-0.42,0.199-0.695c0-0.299-0.082-0.541-0.248-0.73c-0.166-0.188-0.398-0.309-0.697-0.363
				c-0.154-0.023-0.602-0.033-1.342-0.033h-1.441V369.754z M373.34,372.903l1.74,0.299c-0.223,0.641-0.576,1.127-1.063,1.457
				c-0.484,0.332-1.088,0.498-1.805,0.498c-1.15,0-2-0.377-2.553-1.127c-0.441-0.598-0.662-1.354-0.662-2.271
				c0-1.094,0.287-1.949,0.861-2.568s1.297-0.928,2.17-0.928c0.984,0,1.758,0.326,2.32,0.979c0.574,0.641,0.846,1.629,0.813,2.965
				h-4.375c0.021,0.52,0.166,0.924,0.432,1.211c0.264,0.287,0.602,0.43,1.01,0.43c0.266,0,0.492-0.07,0.68-0.215
				C373.095,373.477,373.24,373.235,373.34,372.903z M373.439,371.145c-0.012-0.508-0.145-0.895-0.398-1.16
				c-0.244-0.264-0.547-0.396-0.912-0.396c-0.375,0-0.689,0.139-0.943,0.414c-0.244,0.287-0.365,0.668-0.365,1.143H373.439z
				 M375.826,368.411h0.979v-0.496c0-0.564,0.055-0.979,0.166-1.244c0.121-0.275,0.336-0.496,0.646-0.662
				c0.32-0.176,0.723-0.266,1.209-0.266c0.498,0,0.984,0.072,1.459,0.217l-0.232,1.227c-0.275-0.066-0.541-0.1-0.795-0.1
				s-0.438,0.061-0.547,0.182c-0.111,0.111-0.166,0.336-0.166,0.68v0.463h1.309v1.377h-1.309v5.219h-1.74v-5.219h-0.979V368.411z
				 M380.828,375.006v-9.113h1.756v9.113H380.828z M388.191,372.903l1.74,0.299c-0.221,0.641-0.574,1.127-1.061,1.457
				c-0.486,0.332-1.088,0.498-1.807,0.498c-1.148,0-2-0.377-2.551-1.127c-0.443-0.598-0.664-1.354-0.664-2.271
				c0-1.094,0.287-1.949,0.861-2.568c0.576-0.619,1.299-0.928,2.172-0.928c0.982,0,1.756,0.326,2.32,0.979
				c0.574,0.641,0.846,1.629,0.813,2.965h-4.375c0.021,0.52,0.164,0.924,0.43,1.211s0.602,0.43,1.012,0.43
				c0.264,0,0.49-0.07,0.68-0.215C387.949,373.477,388.092,373.235,388.191,372.903z M388.291,371.145
				c-0.012-0.508-0.143-0.895-0.398-1.16c-0.242-0.264-0.547-0.396-0.91-0.396c-0.375,0-0.691,0.139-0.945,0.414
				c-0.242,0.287-0.363,0.668-0.363,1.143H388.291z M390.613,375.006l2.369-3.396l-2.27-3.199h2.121l1.176,1.807l1.227-1.807h2.055
				l-2.236,3.117l2.436,3.479h-2.137l-1.344-2.037l-1.357,2.037H390.613z"/>
			<path fill-opacity="0" d="M330.205,206.202h96.607v35.979h-96.607V206.202z"/>
			<path d="M364.324,227.965h-2.006l-0.795-2.07h-3.646l-0.746,2.07h-1.955l3.547-9.113h1.955L364.324,227.965z M360.926,224.354
				l-1.242-3.381l-1.242,3.381H360.926z M365.228,221.37h1.625v0.961c0.221-0.33,0.508-0.596,0.861-0.795
				c0.365-0.209,0.768-0.314,1.209-0.314c0.764,0,1.41,0.299,1.939,0.895c0.541,0.598,0.813,1.436,0.813,2.52
				c0,1.094-0.271,1.949-0.813,2.568c-0.541,0.607-1.193,0.912-1.955,0.912c-0.365,0-0.695-0.072-0.994-0.217
				c-0.299-0.143-0.607-0.391-0.928-0.744v3.33h-1.758V221.37z M366.953,224.551c0,0.74,0.148,1.287,0.447,1.641
				s0.656,0.531,1.076,0.531c0.41,0,0.746-0.16,1.012-0.48c0.266-0.332,0.398-0.867,0.398-1.607c0-0.686-0.139-1.193-0.416-1.525
				c-0.275-0.342-0.617-0.514-1.027-0.514c-0.43,0-0.789,0.166-1.076,0.498C367.09,223.424,366.953,223.911,366.953,224.551z
				 M373.004,221.37h1.623v0.961c0.221-0.33,0.508-0.596,0.863-0.795c0.363-0.209,0.768-0.314,1.209-0.314
				c0.762,0,1.408,0.299,1.939,0.895c0.541,0.598,0.811,1.436,0.811,2.52c0,1.094-0.27,1.949-0.811,2.568
				c-0.543,0.607-1.193,0.912-1.957,0.912c-0.363,0-0.695-0.072-0.994-0.217c-0.297-0.143-0.607-0.391-0.928-0.744v3.33h-1.756
				V221.37z M374.726,224.551c0,0.74,0.15,1.287,0.447,1.641c0.299,0.354,0.658,0.531,1.078,0.531c0.408,0,0.746-0.16,1.01-0.48
				c0.266-0.332,0.398-0.867,0.398-1.607c0-0.686-0.139-1.193-0.414-1.525c-0.275-0.342-0.619-0.514-1.027-0.514
				c-0.432,0-0.791,0.166-1.078,0.498C374.865,223.424,374.726,223.911,374.726,224.551z M380.828,227.965v-9.113h1.756v9.113
				H380.828z M384.363,220.475v-1.623h1.758v1.623H384.363z M384.363,227.965v-6.596h1.758v6.596H384.363z M391.728,225.862
				l1.74,0.297c-0.221,0.643-0.576,1.127-1.061,1.459c-0.486,0.332-1.09,0.498-1.807,0.498c-1.15,0-2-0.377-2.553-1.127
				c-0.441-0.598-0.662-1.354-0.662-2.271c0-1.094,0.287-1.949,0.861-2.568s1.297-0.928,2.17-0.928c0.984,0,1.758,0.326,2.32,0.979
				c0.574,0.641,0.846,1.629,0.813,2.965h-4.375c0.021,0.52,0.166,0.924,0.432,1.211c0.264,0.287,0.602,0.43,1.01,0.43
				c0.266,0,0.492-0.07,0.68-0.215C391.484,226.436,391.629,226.192,391.728,225.862z M391.828,224.104
				c-0.012-0.508-0.145-0.895-0.398-1.16c-0.242-0.264-0.547-0.396-0.912-0.396c-0.375,0-0.689,0.137-0.943,0.414
				c-0.244,0.287-0.365,0.668-0.365,1.143H391.828z M401.027,227.965h-1.607v-0.977c-0.277,0.387-0.598,0.674-0.961,0.861
				c-0.365,0.176-0.736,0.266-1.111,0.266c-0.762,0-1.414-0.305-1.955-0.912c-0.531-0.619-0.795-1.475-0.795-2.568
				c0-1.115,0.26-1.961,0.777-2.535c0.531-0.586,1.199-0.879,2.006-0.879c0.729,0,1.365,0.303,1.906,0.912v-3.281h1.74V227.965z
				 M396.371,224.518c0,0.707,0.098,1.217,0.297,1.525c0.277,0.465,0.67,0.695,1.178,0.695c0.396,0,0.734-0.17,1.01-0.514
				c0.287-0.342,0.432-0.855,0.432-1.541c0-0.75-0.139-1.293-0.414-1.623c-0.266-0.344-0.613-0.514-1.045-0.514
				c-0.408,0-0.756,0.166-1.043,0.496C396.508,223.375,396.371,223.868,396.371,224.518z"/>
			<path fill-opacity="0" d="M416.072,207.262h96.607v35.979h-96.607V207.262z"/>
			<path d="M443.379,229.026v-9.113h2.951c1.115,0,1.844,0.043,2.188,0.131c0.52,0.145,0.955,0.449,1.309,0.912
				c0.354,0.453,0.531,1.039,0.531,1.758c0,0.563-0.105,1.037-0.316,1.424c-0.197,0.377-0.453,0.674-0.762,0.895
				c-0.309,0.211-0.629,0.354-0.961,0.432c-0.432,0.088-1.066,0.133-1.906,0.133h-1.193v3.43H443.379z M445.219,221.454v2.584h1.012
				c0.717,0,1.199-0.043,1.441-0.133c0.254-0.098,0.447-0.248,0.58-0.447c0.145-0.209,0.215-0.447,0.215-0.711
				c0-0.332-0.1-0.604-0.297-0.813c-0.199-0.221-0.449-0.359-0.746-0.414c-0.211-0.045-0.646-0.066-1.311-0.066H445.219z
				 M453.162,224.436l-1.592-0.281c0.178-0.641,0.48-1.111,0.912-1.408c0.441-0.311,1.094-0.465,1.955-0.465
				c0.773,0,1.348,0.094,1.723,0.281c0.387,0.178,0.658,0.41,0.813,0.697c0.154,0.275,0.232,0.795,0.232,1.557l-0.016,2.039
				c0,0.586,0.027,1.016,0.082,1.293c0.055,0.264,0.16,0.557,0.314,0.877h-1.723c-0.045-0.121-0.1-0.293-0.166-0.514
				c-0.033-0.109-0.055-0.182-0.066-0.215c-0.299,0.299-0.619,0.52-0.961,0.662c-0.332,0.145-0.691,0.217-1.078,0.217
				c-0.684,0-1.227-0.184-1.623-0.547c-0.387-0.377-0.58-0.846-0.58-1.41c0-0.375,0.088-0.707,0.266-0.994
				c0.188-0.287,0.441-0.508,0.762-0.662c0.32-0.166,0.783-0.305,1.393-0.414c0.807-0.154,1.369-0.299,1.689-0.432v-0.166
				c0-0.342-0.082-0.584-0.248-0.729c-0.166-0.143-0.48-0.215-0.945-0.215c-0.309,0-0.553,0.061-0.729,0.182
				C453.41,223.911,453.271,224.127,453.162,224.436z M455.498,225.862c-0.221,0.066-0.574,0.154-1.061,0.264
				c-0.486,0.1-0.807,0.199-0.961,0.299c-0.221,0.166-0.332,0.371-0.332,0.613c0,0.244,0.088,0.459,0.266,0.646
				c0.188,0.178,0.42,0.266,0.695,0.266c0.32,0,0.625-0.105,0.912-0.314c0.209-0.156,0.348-0.35,0.414-0.58
				c0.045-0.145,0.066-0.426,0.066-0.846V225.862z M461.963,222.43v1.393h-1.193v2.652c0,0.541,0.012,0.855,0.033,0.943
				c0.023,0.09,0.072,0.166,0.15,0.232c0.088,0.055,0.188,0.084,0.297,0.084c0.166,0,0.398-0.063,0.697-0.184l0.148,1.359
				c-0.398,0.176-0.855,0.266-1.375,0.266c-0.311,0-0.592-0.051-0.846-0.15c-0.254-0.109-0.441-0.248-0.563-0.414
				c-0.111-0.176-0.193-0.402-0.25-0.68c-0.033-0.209-0.049-0.623-0.049-1.242v-2.867h-0.795v-1.393h0.795v-1.309l1.756-1.027v2.336
				H461.963z M466.201,222.43v1.393h-1.193v2.652c0,0.541,0.012,0.855,0.033,0.943c0.023,0.09,0.072,0.166,0.15,0.232
				c0.088,0.055,0.188,0.084,0.297,0.084c0.166,0,0.398-0.063,0.697-0.184l0.148,1.359c-0.398,0.176-0.855,0.266-1.375,0.266
				c-0.311,0-0.592-0.051-0.846-0.15c-0.254-0.109-0.441-0.248-0.563-0.414c-0.111-0.176-0.193-0.402-0.25-0.68
				c-0.033-0.209-0.049-0.623-0.049-1.242v-2.867h-0.795v-1.393h0.795v-1.309l1.756-1.027v2.336H466.201z M471.236,226.922
				l1.738,0.297c-0.221,0.643-0.574,1.127-1.061,1.459s-1.088,0.498-1.805,0.498c-1.15,0-2-0.377-2.553-1.127
				c-0.441-0.598-0.664-1.354-0.664-2.271c0-1.094,0.289-1.949,0.863-2.568s1.297-0.928,2.17-0.928c0.984,0,1.758,0.326,2.32,0.979
				c0.574,0.641,0.846,1.629,0.813,2.965h-4.375c0.021,0.52,0.166,0.924,0.43,1.211c0.266,0.287,0.604,0.43,1.012,0.43
				c0.266,0,0.492-0.07,0.68-0.215C470.992,227.497,471.136,227.252,471.236,226.922z M471.334,225.165
				c-0.01-0.508-0.143-0.895-0.396-1.16c-0.244-0.264-0.547-0.396-0.912-0.396c-0.375,0-0.689,0.137-0.945,0.414
				c-0.242,0.287-0.363,0.668-0.363,1.143H471.334z M476.16,229.026h-1.74v-6.596h1.623v0.928c0.277-0.441,0.525-0.729,0.746-0.861
				c0.221-0.143,0.469-0.215,0.746-0.215c0.396,0,0.783,0.111,1.16,0.332l-0.547,1.508c-0.299-0.188-0.57-0.281-0.813-0.281
				c-0.254,0-0.465,0.07-0.629,0.215c-0.166,0.133-0.299,0.375-0.398,0.729c-0.1,0.344-0.148,1.078-0.148,2.205V229.026z
				 M485.437,229.026h-1.74v-3.363c0-0.719-0.039-1.182-0.115-1.393c-0.066-0.209-0.188-0.369-0.365-0.48
				c-0.166-0.121-0.365-0.182-0.596-0.182c-0.311,0-0.586,0.082-0.83,0.248c-0.23,0.166-0.391,0.387-0.48,0.662
				c-0.088,0.277-0.133,0.785-0.133,1.525v2.982h-1.756v-6.596h1.625v0.961c0.574-0.74,1.303-1.109,2.188-1.109
				c0.375,0,0.723,0.072,1.043,0.215c0.32,0.133,0.564,0.311,0.729,0.531c0.166,0.209,0.277,0.453,0.332,0.729
				c0.066,0.266,0.1,0.652,0.1,1.16V229.026z"/>
			<path fill-opacity="0" d="M419.363,353.243h96.607v35.979h-96.607V353.243z"/>
			<path d="M439.595,375.006v-9.113h2.949c1.115,0,1.846,0.043,2.188,0.133c0.52,0.143,0.955,0.447,1.309,0.91
				c0.354,0.453,0.531,1.039,0.531,1.758c0,0.563-0.105,1.037-0.316,1.424c-0.197,0.377-0.451,0.674-0.762,0.896
				c-0.309,0.209-0.629,0.354-0.961,0.43c-0.43,0.088-1.066,0.133-1.906,0.133h-1.193v3.43H439.595z M441.433,367.434v2.584h1.012
				c0.719,0,1.199-0.043,1.441-0.131c0.254-0.1,0.447-0.25,0.58-0.449c0.145-0.209,0.215-0.447,0.215-0.711
				c0-0.332-0.098-0.604-0.297-0.813c-0.199-0.221-0.447-0.359-0.746-0.414c-0.211-0.045-0.646-0.066-1.309-0.066H441.433z
				 M449.377,370.417l-1.592-0.281c0.178-0.641,0.48-1.111,0.912-1.408c0.441-0.311,1.094-0.465,1.955-0.465
				c0.773,0,1.348,0.094,1.725,0.281c0.387,0.178,0.656,0.41,0.811,0.697c0.156,0.275,0.232,0.795,0.232,1.557l-0.016,2.039
				c0,0.586,0.027,1.016,0.082,1.293c0.055,0.264,0.16,0.557,0.314,0.877h-1.723c-0.045-0.121-0.1-0.293-0.166-0.514
				c-0.033-0.109-0.055-0.182-0.066-0.215c-0.299,0.299-0.619,0.52-0.961,0.662c-0.332,0.145-0.691,0.217-1.078,0.217
				c-0.684,0-1.227-0.184-1.623-0.547c-0.387-0.377-0.58-0.846-0.58-1.408c0-0.377,0.088-0.707,0.266-0.996
				c0.188-0.287,0.441-0.508,0.762-0.662c0.32-0.166,0.785-0.303,1.393-0.414c0.807-0.154,1.369-0.299,1.689-0.432v-0.166
				c0-0.342-0.082-0.584-0.248-0.729c-0.166-0.143-0.48-0.215-0.945-0.215c-0.309,0-0.553,0.061-0.729,0.182
				C449.625,369.891,449.486,370.108,449.377,370.417z M451.713,371.842c-0.221,0.066-0.574,0.154-1.061,0.266
				c-0.486,0.098-0.807,0.197-0.961,0.297c-0.221,0.166-0.332,0.371-0.332,0.613c0,0.244,0.09,0.459,0.266,0.646
				c0.188,0.178,0.42,0.266,0.695,0.266c0.322,0,0.625-0.105,0.912-0.314c0.211-0.156,0.348-0.35,0.414-0.58
				c0.045-0.145,0.066-0.426,0.066-0.846V371.842z M456.82,375.006h-1.74v-6.596h1.623v0.93c0.277-0.443,0.525-0.73,0.746-0.863
				c0.221-0.143,0.469-0.215,0.746-0.215c0.396,0,0.783,0.111,1.16,0.332l-0.547,1.508c-0.299-0.188-0.57-0.281-0.813-0.281
				c-0.254,0-0.465,0.07-0.629,0.215c-0.166,0.133-0.299,0.375-0.398,0.729c-0.1,0.344-0.148,1.078-0.148,2.205V375.006z
				 M461.408,370.417l-1.592-0.281c0.178-0.641,0.48-1.111,0.912-1.408c0.441-0.311,1.094-0.465,1.955-0.465
				c0.773,0,1.348,0.094,1.725,0.281c0.387,0.178,0.656,0.41,0.811,0.697c0.156,0.275,0.232,0.795,0.232,1.557l-0.016,2.039
				c0,0.586,0.027,1.016,0.082,1.293c0.055,0.264,0.16,0.557,0.314,0.877h-1.723c-0.045-0.121-0.1-0.293-0.166-0.514
				c-0.033-0.109-0.055-0.182-0.066-0.215c-0.299,0.299-0.619,0.52-0.961,0.662c-0.332,0.145-0.691,0.217-1.078,0.217
				c-0.684,0-1.225-0.184-1.623-0.547c-0.387-0.377-0.58-0.846-0.58-1.408c0-0.377,0.088-0.707,0.266-0.996
				c0.188-0.287,0.441-0.508,0.762-0.662c0.32-0.166,0.785-0.303,1.393-0.414c0.807-0.154,1.369-0.299,1.689-0.432v-0.166
				c0-0.342-0.082-0.584-0.248-0.729c-0.166-0.143-0.48-0.215-0.945-0.215c-0.309,0-0.553,0.061-0.729,0.182
				C461.656,369.891,461.517,370.108,461.408,370.417z M463.744,371.842c-0.221,0.066-0.574,0.154-1.061,0.266
				c-0.486,0.098-0.807,0.197-0.961,0.297c-0.221,0.166-0.332,0.371-0.332,0.613c0,0.244,0.09,0.459,0.266,0.646
				c0.188,0.178,0.42,0.266,0.697,0.266c0.32,0,0.623-0.105,0.91-0.314c0.211-0.156,0.348-0.35,0.414-0.58
				c0.045-0.145,0.066-0.426,0.066-0.846V371.842z M473.226,375.006h-1.607v-0.977c-0.277,0.387-0.598,0.674-0.961,0.861
				c-0.365,0.178-0.736,0.266-1.111,0.266c-0.762,0-1.414-0.305-1.955-0.912c-0.531-0.619-0.797-1.475-0.797-2.568
				c0-1.115,0.26-1.961,0.779-2.535c0.531-0.586,1.199-0.879,2.006-0.879c0.729,0,1.365,0.305,1.906,0.912v-3.281h1.74V375.006z
				 M468.568,371.561c0,0.707,0.1,1.215,0.299,1.523c0.277,0.465,0.668,0.697,1.178,0.697c0.396,0,0.734-0.172,1.01-0.516
				c0.287-0.342,0.432-0.855,0.432-1.541c0-0.75-0.139-1.291-0.414-1.623c-0.266-0.342-0.613-0.514-1.045-0.514
				c-0.408,0-0.756,0.166-1.045,0.496C468.707,370.417,468.568,370.909,468.568,371.561z M474.951,367.516v-1.623h1.758v1.623
				H474.951z M474.951,375.006v-6.596h1.758v6.596H474.951z M478.322,375.438l2.004,0.248c0.033,0.232,0.111,0.393,0.232,0.48
				c0.166,0.121,0.426,0.184,0.779,0.184c0.453,0,0.795-0.066,1.027-0.199c0.154-0.1,0.271-0.248,0.348-0.447
				c0.057-0.145,0.084-0.41,0.084-0.797v-0.977c-0.531,0.719-1.193,1.076-1.99,1.076c-0.883,0-1.584-0.375-2.104-1.127
				c-0.398-0.596-0.598-1.33-0.598-2.203c0-1.115,0.266-1.961,0.797-2.535c0.529-0.586,1.193-0.879,1.988-0.879
				c0.807,0,1.475,0.359,2.006,1.078v-0.93h1.641v5.918c0,0.783-0.066,1.363-0.199,1.738c-0.121,0.385-0.299,0.689-0.531,0.912
				c-0.23,0.219-0.541,0.391-0.928,0.512c-0.387,0.133-0.879,0.199-1.475,0.199c-1.115,0-1.912-0.191-2.387-0.578
				c-0.463-0.387-0.695-0.873-0.695-1.459C478.322,375.598,478.322,375.526,478.322,375.438z M479.896,371.577
				c0,0.695,0.133,1.209,0.398,1.541c0.275,0.32,0.611,0.48,1.01,0.48c0.42,0,0.779-0.166,1.078-0.496
				c0.297-0.344,0.447-0.84,0.447-1.492c0-0.686-0.145-1.193-0.432-1.525c-0.275-0.33-0.629-0.496-1.061-0.496
				c-0.42,0-0.768,0.166-1.043,0.496C480.029,370.405,479.896,370.903,479.896,371.577z M486.129,368.411h1.607v0.896
				c0.586-0.697,1.277-1.045,2.072-1.045c0.42,0,0.783,0.088,1.094,0.266c0.309,0.166,0.563,0.426,0.762,0.779
				c0.287-0.354,0.598-0.613,0.928-0.779c0.344-0.178,0.707-0.266,1.094-0.266c0.477,0,0.879,0.1,1.211,0.299
				c0.342,0.188,0.596,0.475,0.762,0.861c0.121,0.275,0.182,0.729,0.182,1.359v4.225h-1.74v-3.777c0-0.652-0.061-1.072-0.182-1.26
				c-0.166-0.254-0.414-0.381-0.746-0.381c-0.242,0-0.475,0.076-0.695,0.232c-0.209,0.143-0.365,0.357-0.465,0.646
				c-0.1,0.287-0.148,0.744-0.148,1.375v3.164h-1.74v-3.611c0-0.641-0.033-1.057-0.1-1.244c-0.055-0.188-0.148-0.326-0.281-0.414
				c-0.133-0.1-0.309-0.148-0.531-0.148c-0.264,0-0.508,0.076-0.729,0.232c-0.209,0.143-0.365,0.354-0.465,0.629
				c-0.088,0.266-0.131,0.713-0.131,1.342v3.215h-1.758V368.411z"/>
			<path fill-opacity="0" d="M358.883,247.377h127.273v92.566H358.883V247.377z"/>
			<path fill="#FF0000" d="M389.412,275.93v-14.053h2.852v11.666h7.109v2.387H389.412z M400.769,270.661
				c0-0.906,0.221-1.779,0.664-2.619c0.441-0.852,1.07-1.496,1.889-1.939c0.816-0.441,1.729-0.662,2.734-0.662
				c1.547,0,2.816,0.502,3.811,1.508s1.492,2.281,1.492,3.828s-0.502,2.834-1.508,3.861c-1.006,1.016-2.266,1.525-3.779,1.525
				c-0.938,0-1.84-0.211-2.701-0.631c-0.85-0.43-1.496-1.055-1.938-1.873C400.99,272.831,400.769,271.831,400.769,270.661z
				 M403.554,270.793c0,1.027,0.236,1.811,0.713,2.352c0.484,0.531,1.082,0.797,1.789,0.797s1.297-0.266,1.773-0.797
				c0.486-0.541,0.729-1.33,0.729-2.369c0-1.006-0.242-1.779-0.729-2.32c-0.477-0.541-1.066-0.813-1.773-0.813
				s-1.305,0.271-1.789,0.813C403.791,268.997,403.554,269.776,403.554,270.793z M413.238,276.61l3.098,0.381
				c0.045,0.354,0.16,0.596,0.35,0.729c0.264,0.199,0.674,0.299,1.227,0.299c0.707,0,1.236-0.105,1.59-0.314
				c0.232-0.145,0.414-0.377,0.547-0.697c0.078-0.221,0.115-0.635,0.115-1.242v-1.492c-0.807,1.105-1.828,1.658-3.064,1.658
				c-1.381,0-2.475-0.586-3.281-1.758c-0.631-0.916-0.945-2.061-0.945-3.43c0-1.723,0.414-3.037,1.242-3.943
				c0.83-0.906,1.857-1.359,3.084-1.359c1.27,0,2.318,0.559,3.148,1.674v-1.441h2.535v9.197c0,1.215-0.1,2.121-0.299,2.717
				c-0.199,0.598-0.48,1.066-0.844,1.41c-0.355,0.342-0.836,0.607-1.443,0.795c-0.596,0.199-1.357,0.299-2.287,0.299
				c-1.734,0-2.965-0.299-3.695-0.896c-0.729-0.596-1.094-1.348-1.094-2.254C413.22,276.842,413.226,276.731,413.238,276.61z
				 M415.658,270.594c0,1.082,0.209,1.877,0.629,2.387c0.42,0.508,0.939,0.762,1.559,0.762c0.662,0,1.221-0.26,1.672-0.779
				c0.465-0.52,0.697-1.287,0.697-2.303c0-1.072-0.221-1.861-0.662-2.371c-0.432-0.52-0.984-0.777-1.658-0.777
				c-0.652,0-1.188,0.254-1.607,0.762S415.658,269.555,415.658,270.594z M425.572,264.28v-2.52h2.719v2.52H425.572z M425.572,275.93
				v-10.258h2.719v10.258H425.572z M440.019,268.704l-2.686,0.48c-0.088-0.529-0.291-0.928-0.613-1.191
				c-0.32-0.277-0.734-0.416-1.242-0.416c-0.674,0-1.215,0.232-1.623,0.697c-0.398,0.463-0.598,1.242-0.598,2.336
				c0,1.227,0.205,2.088,0.613,2.586c0.408,0.496,0.955,0.746,1.641,0.746c0.52,0,0.945-0.145,1.275-0.432
				c0.332-0.299,0.564-0.801,0.697-1.508l2.668,0.447c-0.277,1.227-0.813,2.154-1.607,2.783c-0.785,0.619-1.834,0.93-3.148,0.93
				c-1.504,0-2.701-0.471-3.598-1.41c-0.883-0.949-1.324-2.264-1.324-3.943c0-1.689,0.447-3.006,1.342-3.943
				c0.895-0.951,2.105-1.426,3.629-1.426c1.248,0,2.238,0.271,2.967,0.813C439.152,266.782,439.687,267.6,440.019,268.704z
				 M444.097,268.803l-2.471-0.447c0.289-0.994,0.77-1.729,1.443-2.203s1.678-0.713,3.016-0.713c1.203,0,2.104,0.143,2.701,0.432
				c0.596,0.287,1.012,0.65,1.242,1.094c0.244,0.441,0.365,1.248,0.365,2.418l-0.018,3.182c0,0.896,0.039,1.559,0.117,1.99
				c0.088,0.43,0.254,0.889,0.496,1.375h-2.684c-0.078-0.178-0.166-0.441-0.266-0.795c-0.045-0.166-0.078-0.277-0.1-0.332
				c-0.463,0.453-0.961,0.795-1.49,1.027c-0.52,0.221-1.084,0.332-1.691,0.332c-1.049,0-1.879-0.287-2.486-0.863
				c-0.607-0.574-0.91-1.297-0.91-2.17c0-0.586,0.137-1.105,0.414-1.559c0.275-0.453,0.662-0.795,1.16-1.027
				c0.496-0.242,1.215-0.457,2.154-0.646c1.27-0.23,2.148-0.453,2.635-0.662v-0.266c0-0.529-0.127-0.906-0.381-1.127
				s-0.74-0.33-1.459-0.33c-0.486,0-0.867,0.098-1.143,0.297C444.478,267.997,444.263,268.329,444.097,268.803z M447.726,271.008
				c-0.342,0.109-0.895,0.248-1.658,0.414c-0.75,0.154-1.242,0.309-1.475,0.465c-0.354,0.254-0.529,0.574-0.529,0.961
				c0,0.375,0.143,0.707,0.43,0.994c0.287,0.275,0.646,0.414,1.078,0.414c0.496,0,0.967-0.166,1.408-0.498
				c0.332-0.242,0.547-0.541,0.646-0.895c0.066-0.232,0.1-0.674,0.1-1.326V271.008z M453.08,275.93v-14.17h2.717v14.17H453.08z"/>
			<path fill="#FF0000" d="M381.156,299.688v-14.053h2.85v11.666h7.109v2.387H381.156z M399.076,296.422l2.701,0.447
				c-0.342,0.994-0.889,1.752-1.641,2.271c-0.75,0.52-1.689,0.779-2.816,0.779c-1.779,0-3.1-0.586-3.961-1.758
				c-0.674-0.928-1.012-2.104-1.012-3.529c0-1.701,0.443-3.033,1.326-3.994c0.895-0.961,2.021-1.441,3.381-1.441
				c1.525,0,2.729,0.502,3.613,1.508c0.883,1.006,1.303,2.553,1.26,4.641h-6.795c0.021,0.807,0.236,1.436,0.646,1.889
				c0.42,0.441,0.943,0.662,1.574,0.662c0.42,0,0.773-0.115,1.061-0.348C398.713,297.317,398.933,296.942,399.076,296.422z
				 M399.242,293.672c-0.021-0.785-0.227-1.381-0.613-1.791c-0.387-0.408-0.855-0.613-1.408-0.613c-0.598,0-1.088,0.217-1.475,0.646
				c-0.387,0.432-0.574,1.018-0.564,1.758H399.242z M406.965,299.688l-4.143-10.258h2.852l1.938,5.236l0.564,1.74
				c0.143-0.441,0.236-0.734,0.281-0.879c0.088-0.287,0.182-0.574,0.281-0.861l1.955-5.236h2.785l-4.076,10.258H406.965z
				 M421.086,296.422l2.701,0.447c-0.342,0.994-0.889,1.752-1.641,2.271s-1.691,0.779-2.816,0.779c-1.779,0-3.1-0.586-3.961-1.758
				c-0.674-0.928-1.012-2.104-1.012-3.529c0-1.701,0.441-3.033,1.326-3.994c0.895-0.961,2.021-1.441,3.381-1.441
				c1.523,0,2.729,0.502,3.613,1.508c0.883,1.006,1.303,2.553,1.258,4.641h-6.793c0.021,0.807,0.236,1.436,0.645,1.889
				c0.42,0.441,0.945,0.662,1.574,0.662c0.42,0,0.773-0.115,1.063-0.348C420.72,297.317,420.941,296.942,421.086,296.422z
				 M421.252,293.672c-0.023-0.785-0.227-1.381-0.613-1.791c-0.387-0.408-0.857-0.613-1.408-0.613c-0.598,0-1.09,0.217-1.477,0.646
				c-0.385,0.432-0.574,1.018-0.563,1.758H421.252z M426.158,299.688v-14.17h2.717v14.17H426.158z M430.693,296.754l2.719-0.414
				c0.121,0.529,0.359,0.934,0.713,1.209c0.354,0.277,0.85,0.414,1.49,0.414c0.697,0,1.221-0.131,1.574-0.396
				c0.244-0.178,0.365-0.414,0.365-0.713c0-0.211-0.066-0.381-0.199-0.514s-0.436-0.254-0.91-0.365
				c-2.188-0.486-3.574-0.928-4.16-1.326c-0.807-0.551-1.211-1.32-1.211-2.303c0-0.895,0.35-1.641,1.045-2.236
				c0.707-0.609,1.795-0.912,3.266-0.912c1.402,0,2.445,0.232,3.131,0.695c0.686,0.453,1.154,1.127,1.408,2.021l-2.551,0.465
				c-0.111-0.398-0.32-0.701-0.631-0.912c-0.297-0.209-0.734-0.314-1.309-0.314c-0.707,0-1.215,0.1-1.525,0.299
				c-0.209,0.143-0.314,0.326-0.314,0.547c0,0.188,0.088,0.354,0.266,0.496c0.242,0.178,1.088,0.432,2.535,0.764
				c1.447,0.32,2.459,0.723,3.033,1.209c0.563,0.475,0.846,1.145,0.846,2.006c0,0.949-0.393,1.762-1.178,2.436
				s-1.943,1.012-3.48,1.012c-1.402,0-2.514-0.283-3.33-0.846C431.478,298.5,430.947,297.727,430.693,296.754z M447.527,294.418
				c0-0.906,0.221-1.779,0.662-2.619c0.443-0.852,1.072-1.496,1.891-1.939c0.816-0.441,1.729-0.662,2.734-0.662
				c1.547,0,2.816,0.502,3.811,1.508s1.492,2.281,1.492,3.828s-0.502,2.834-1.508,3.861c-1.006,1.016-2.266,1.525-3.779,1.525
				c-0.939,0-1.84-0.211-2.701-0.631c-0.85-0.43-1.496-1.055-1.939-1.873C447.748,296.588,447.527,295.588,447.527,294.418z
				 M450.312,294.551c0,1.027,0.236,1.811,0.711,2.352c0.486,0.531,1.084,0.797,1.791,0.797s1.297-0.266,1.773-0.797
				c0.486-0.541,0.729-1.33,0.729-2.369c0-1.006-0.242-1.779-0.729-2.32c-0.477-0.541-1.066-0.813-1.773-0.813
				s-1.305,0.271-1.791,0.813C450.549,292.754,450.312,293.534,450.312,294.551z M459.051,289.43h1.508v-0.779
				c0-0.861,0.088-1.502,0.266-1.922c0.188-0.432,0.525-0.779,1.01-1.045c0.498-0.266,1.127-0.398,1.891-0.398
				c0.773,0,1.529,0.117,2.27,0.35l-0.381,1.889c-0.432-0.1-0.846-0.148-1.242-0.148c-0.387,0-0.67,0.094-0.846,0.281
				c-0.166,0.176-0.248,0.523-0.248,1.043v0.73h2.021v2.137h-2.021v8.121h-2.719v-8.121h-1.508V289.43z"/>
			<path fill="#FF0000" d="M382.267,323.446v-14.053h2.85v11.666h7.109v2.387H382.267z M400.187,320.18l2.701,0.447
				c-0.342,0.994-0.889,1.752-1.641,2.271s-1.689,0.779-2.816,0.779c-1.779,0-3.1-0.586-3.961-1.758
				c-0.674-0.928-1.012-2.104-1.012-3.529c0-1.701,0.441-3.033,1.326-3.994c0.895-0.961,2.021-1.441,3.381-1.441
				c1.523,0,2.729,0.502,3.613,1.508c0.883,1.006,1.303,2.553,1.258,4.641h-6.793c0.021,0.807,0.236,1.436,0.646,1.889
				c0.42,0.441,0.943,0.662,1.574,0.662c0.42,0,0.773-0.115,1.061-0.348C399.822,321.075,400.045,320.7,400.187,320.18z
				 M400.353,317.43c-0.021-0.785-0.227-1.381-0.613-1.791c-0.387-0.408-0.855-0.613-1.408-0.613c-0.598,0-1.088,0.217-1.475,0.646
				c-0.387,0.432-0.576,1.018-0.564,1.758H400.353z M407.281,316.319l-2.469-0.447c0.287-0.994,0.768-1.729,1.441-2.203
				c0.674-0.477,1.68-0.713,3.016-0.713c1.205,0,2.105,0.143,2.701,0.43c0.598,0.289,1.012,0.652,1.244,1.094
				c0.242,0.443,0.363,1.25,0.363,2.42l-0.016,3.182c0,0.896,0.039,1.559,0.115,1.99c0.088,0.43,0.254,0.889,0.498,1.375h-2.686
				c-0.076-0.178-0.166-0.441-0.266-0.795c-0.043-0.166-0.076-0.277-0.098-0.332c-0.465,0.453-0.963,0.795-1.492,1.027
				c-0.52,0.221-1.082,0.332-1.691,0.332c-1.049,0-1.877-0.287-2.484-0.863c-0.607-0.574-0.912-1.297-0.912-2.17
				c0-0.586,0.139-1.105,0.414-1.559s0.662-0.795,1.16-1.027c0.498-0.242,1.215-0.459,2.154-0.646
				c1.271-0.232,2.148-0.453,2.635-0.662v-0.266c0-0.529-0.127-0.906-0.381-1.127s-0.74-0.332-1.459-0.332
				c-0.486,0-0.867,0.1-1.143,0.299C407.662,315.512,407.447,315.844,407.281,316.319z M410.91,318.524
				c-0.342,0.109-0.895,0.248-1.656,0.414c-0.752,0.154-1.244,0.309-1.475,0.463c-0.355,0.256-0.531,0.576-0.531,0.963
				c0,0.375,0.145,0.707,0.432,0.994c0.287,0.275,0.646,0.414,1.076,0.414c0.498,0,0.967-0.166,1.408-0.498
				c0.332-0.242,0.547-0.541,0.646-0.895c0.066-0.232,0.1-0.674,0.1-1.326V318.524z M418.865,323.446h-2.717v-10.258h2.518v1.457
				c0.432-0.695,0.818-1.148,1.16-1.357c0.344-0.223,0.736-0.332,1.178-0.332c0.619,0,1.215,0.172,1.789,0.514l-0.844,2.369
				c-0.453-0.299-0.879-0.447-1.277-0.447c-0.375,0-0.695,0.105-0.961,0.314c-0.266,0.211-0.475,0.592-0.629,1.145
				c-0.145,0.541-0.217,1.684-0.217,3.43V323.446z M433.295,323.446h-2.719v-5.236c0-1.105-0.061-1.818-0.182-2.139
				c-0.111-0.332-0.299-0.586-0.564-0.762c-0.254-0.188-0.563-0.283-0.928-0.283c-0.475,0-0.9,0.133-1.275,0.398
				c-0.375,0.254-0.635,0.598-0.779,1.027c-0.133,0.42-0.199,1.205-0.199,2.354v4.641h-2.701v-10.258h2.52v1.508
				c0.895-1.16,2.021-1.74,3.381-1.74c0.596,0,1.143,0.109,1.641,0.332c0.498,0.209,0.873,0.484,1.127,0.828
				c0.254,0.33,0.43,0.713,0.529,1.143c0.1,0.42,0.15,1.021,0.15,1.807V323.446z M436.051,311.795v-2.52h2.719v2.52H436.051z
				 M436.051,323.446v-10.258h2.719v10.258H436.051z M450.879,323.446h-2.719v-5.236c0-1.105-0.061-1.818-0.182-2.139
				c-0.109-0.332-0.299-0.586-0.563-0.762c-0.256-0.188-0.564-0.283-0.93-0.283c-0.475,0-0.9,0.133-1.275,0.398
				c-0.375,0.254-0.635,0.598-0.779,1.027c-0.133,0.42-0.199,1.205-0.199,2.354v4.641h-2.701v-10.258h2.52v1.508
				c0.895-1.16,2.021-1.74,3.381-1.74c0.598,0,1.145,0.109,1.641,0.332c0.498,0.209,0.873,0.484,1.127,0.828
				c0.254,0.33,0.432,0.713,0.531,1.143c0.098,0.42,0.148,1.021,0.148,1.807V323.446z M453.386,324.125l3.1,0.381
				c0.043,0.354,0.16,0.596,0.348,0.729c0.266,0.199,0.674,0.299,1.227,0.299c0.707,0,1.236-0.105,1.59-0.314
				c0.232-0.145,0.414-0.377,0.547-0.697c0.078-0.221,0.117-0.635,0.117-1.242v-1.492c-0.807,1.105-1.828,1.658-3.066,1.658
				c-1.381,0-2.475-0.586-3.281-1.758c-0.629-0.916-0.945-2.061-0.945-3.43c0-1.723,0.414-3.039,1.244-3.943
				c0.828-0.906,1.855-1.359,3.082-1.359c1.27,0,2.32,0.557,3.148,1.674v-1.441h2.535v9.197c0,1.215-0.1,2.121-0.297,2.717
				c-0.199,0.598-0.482,1.066-0.846,1.41c-0.354,0.342-0.834,0.607-1.441,0.795c-0.598,0.199-1.359,0.299-2.287,0.299
				c-1.734,0-2.967-0.299-3.695-0.896c-0.73-0.596-1.094-1.348-1.094-2.254C453.371,324.356,453.375,324.247,453.386,324.125z
				 M455.806,318.11c0,1.082,0.209,1.877,0.629,2.385c0.42,0.51,0.939,0.764,1.559,0.764c0.662,0,1.221-0.26,1.674-0.779
				c0.463-0.52,0.695-1.287,0.695-2.303c0-1.072-0.221-1.863-0.662-2.371c-0.432-0.52-0.984-0.779-1.658-0.779
				c-0.65,0-1.188,0.256-1.607,0.764S455.806,317.071,455.806,318.11z"/>
		</g>
	</g>
</g>
</svg>
