<?xml version="1.0" encoding="utf-8"?>
<!-- Generator: Adobe Illustrator 14.0.0, SVG Export Plug-In . SVG Version: 6.00 Build 43363)  -->
<!DOCTYPE svg PUBLIC "-//W3C//DTD SVG 1.1//EN" "http://www.w3.org/Graphics/SVG/1.1/DTD/svg11.dtd">
<svg version="1.1" id="Layer_1" xmlns="http://www.w3.org/2000/svg" xmlns:xlink="http://www.w3.org/1999/xlink" x="0px" y="0px"
	 width="380px" height="380px" viewBox="-95 -95 380 380" enable-background="new -95 -95 380 380" xml:space="preserve">
<path fill="#FFFFFF" d="M5.356,95.619L5.356,95.619c0-49.37,40.021-89.391,89.391-89.391l0,0c23.708,0,46.446,9.419,63.21,26.18
	c16.765,16.765,26.181,39.502,26.181,63.211l0,0c0,49.369-40.021,89.391-89.391,89.391l0,0
	C45.377,185.01,5.356,144.988,5.356,95.619z"/>
<path fill="#FFFFFF" d="M94.555,6.037l89.391-89.391l89.391,89.391l-89.391,89.391L94.555,6.037z"/>
<path fill="none" stroke="#595959" stroke-linejoin="round" stroke-miterlimit="10" d="M94.555,6.037l89.391-89.391l89.391,89.391
	l-89.391,89.391L94.555,6.037z"/>
<path fill="#FFFFFF" d="M-84.226,6.037L5.165-83.354L94.555,6.037L5.165,95.428L-84.226,6.037z"/>
<path fill="none" stroke="#595959" stroke-linejoin="round" stroke-miterlimit="10" d="M-84.226,6.037L5.165-83.354L94.555,6.037
	L5.165,95.428L-84.226,6.037z"/>
<path fill="#FFFFFF" d="M94.555,184.818l89.391-89.391l89.391,89.391l-89.391,89.391L94.555,184.818z"/>
<path fill="none" stroke="#595959" stroke-linejoin="round" stroke-miterlimit="10" d="M94.555,184.818l89.391-89.391l89.391,89.391
	l-89.391,89.391L94.555,184.818z"/>
<path fill="#FFFFFF" d="M-84.226,184.818L5.165,95.428l89.391,89.391L5.165,274.209L-84.226,184.818z"/>
<path fill="none" stroke="#595959" stroke-linejoin="round" stroke-miterlimit="10" d="M-84.226,184.818L5.165,95.428l89.391,89.391
	L5.165,274.209L-84.226,184.818z"/>
<path fill="#0000FF" fill-opacity="0.4821" d="M-84.226,6.037L5.165-83.354L94.555,6.037L5.165,95.428L-84.226,6.037z"/>
<path fill="none" stroke="#595959" stroke-linejoin="round" stroke-miterlimit="10" d="M-84.226,6.037L5.165-83.354L94.555,6.037
	L5.165,95.428L-84.226,6.037z"/>
<path fill="#0000FF" fill-opacity="0.4821" d="M94.555,6.037l89.391-89.391l89.391,89.391l-89.391,89.391L94.555,6.037z"/>
<path fill="none" stroke="#595959" stroke-linejoin="round" stroke-miterlimit="10" d="M94.555,6.037l89.391-89.391l89.391,89.391
	l-89.391,89.391L94.555,6.037z"/>
<path fill="#0000FF" fill-opacity="0.4821" d="M-84.226,184.818L5.165,95.428l89.391,89.391L5.165,274.209L-84.226,184.818z"/>
<path fill="none" stroke="#595959" stroke-linejoin="round" stroke-miterlimit="10" d="M-84.226,184.818L5.165,95.428l89.391,89.391
	L5.165,274.209L-84.226,184.818z"/>
<path fill="#0000FF" fill-opacity="0.4821" d="M94.555,184.818l89.391-89.391l89.391,89.391l-89.391,89.391L94.555,184.818z"/>
<path fill="none" stroke="#595959" stroke-linejoin="round" stroke-miterlimit="10" d="M94.555,184.818l89.391-89.391l89.391,89.391
	l-89.391,89.391L94.555,184.818z"/>
<path opacity="0.75" fill="#0000FF" d="M5.356,95.619L5.356,95.619c0-49.37,40.021-89.391,89.391-89.391l0,0
	c23.708,0,46.446,9.419,63.21,26.18c16.765,16.765,26.181,39.502,26.181,63.211l0,0c0,49.369-40.021,89.391-89.391,89.391l0,0
	C45.377,185.01,5.356,144.988,5.356,95.619z"/>
<path fill="none" stroke="#595959" stroke-linejoin="round" stroke-miterlimit="10" d="M5.356,95.619L5.356,95.619
	c0-49.37,40.021-89.391,89.391-89.391l0,0c23.708,0,46.446,9.419,63.21,26.18c16.765,16.765,26.181,39.502,26.181,63.211l0,0
	c0,49.369-40.021,89.391-89.391,89.391l0,0C45.377,185.01,5.356,144.988,5.356,95.619z"/>
<path fill="#FFFFFF" d="M45.482,95.739c0-1.317,0.199-2.417,0.593-3.306c0.296-0.659,0.698-1.251,1.205-1.774
	c0.507-0.519,1.061-0.909,1.669-1.162c0.799-0.335,1.727-0.507,2.776-0.507c1.898,0,3.419,0.593,4.562,1.774
	c1.138,1.178,1.711,2.815,1.711,4.913c0,2.081-0.569,3.711-1.7,4.889c-1.135,1.174-2.647,1.762-4.542,1.762
	c-1.915,0-3.439-0.584-4.573-1.754C46.051,99.4,45.482,97.786,45.482,95.739z M48.164,95.654c0,1.458,0.339,2.564,1.014,3.317
	c0.678,0.753,1.532,1.127,2.565,1.127c1.041,0,1.895-0.37,2.558-1.119c0.667-0.745,1.002-1.867,1.002-3.364
	c0-1.482-0.324-2.582-0.971-3.307c-0.647-0.725-1.513-1.087-2.588-1.087c-1.068,0-1.934,0.37-2.597,1.107
	C48.491,93.061,48.164,94.168,48.164,95.654z M59.938,92.761h2.3v1.373c0.304-0.464,0.709-0.842,1.216-1.138
	c0.507-0.296,1.072-0.445,1.7-0.445c1.084,0,2,0.425,2.752,1.279c0.76,0.85,1.142,2.039,1.142,3.556c0,1.56-0.382,2.769-1.15,3.634
	c-0.76,0.865-1.684,1.298-2.768,1.298c-0.515,0-0.982-0.101-1.404-0.304c-0.417-0.207-0.854-0.558-1.321-1.057v4.71h-2.468V92.761z
	 M62.375,97.279c0,1.049,0.21,1.825,0.624,2.324c0.421,0.499,0.932,0.752,1.532,0.752c0.569,0,1.045-0.229,1.423-0.689
	c0.39-0.464,0.581-1.221,0.581-2.27c0-0.979-0.195-1.704-0.588-2.175c-0.394-0.476-0.885-0.717-1.47-0.717
	c-0.596,0-1.095,0.238-1.497,0.709C62.578,95.678,62.375,96.367,62.375,97.279z M76.422,99.128l2.46,0.425
	c-0.32,0.9-0.819,1.587-1.501,2.059c-0.683,0.472-1.54,0.705-2.565,0.705c-1.626,0-2.827-0.53-3.603-1.594
	c-0.62-0.851-0.928-1.927-0.928-3.221c0-1.548,0.405-2.756,1.212-3.63c0.811-0.881,1.836-1.322,3.076-1.322
	c1.384,0,2.479,0.46,3.283,1.384c0.803,0.916,1.185,2.319,1.15,4.211H72.82c0.02,0.732,0.222,1.302,0.6,1.711
	c0.382,0.409,0.858,0.612,1.427,0.612c0.386,0,0.709-0.105,0.971-0.315C76.087,99.942,76.286,99.6,76.422,99.128z M76.559,96.637
	c-0.016-0.718-0.199-1.264-0.55-1.638c-0.351-0.371-0.784-0.558-1.291-0.558c-0.542,0-0.986,0.195-1.337,0.593
	c-0.354,0.394-0.526,0.928-0.519,1.603H76.559z M83.397,102.106h-2.479v-9.346h2.3v1.333c0.394-0.627,0.745-1.041,1.056-1.236
	c0.316-0.207,0.671-0.308,1.064-0.308c0.565,0,1.111,0.16,1.638,0.476l-0.772,2.152c-0.413-0.273-0.799-0.409-1.158-0.409
	c-0.347,0-0.639,0.093-0.877,0.284c-0.242,0.191-0.429,0.535-0.569,1.034c-0.136,0.503-0.203,1.548-0.203,3.139V102.106z
	 M89.881,95.615l-2.238-0.402c0.253-0.901,0.687-1.571,1.298-2.008c0.62-0.437,1.532-0.655,2.745-0.655
	c1.104,0,1.926,0.133,2.46,0.39c0.542,0.261,0.92,0.596,1.138,1.006c0.226,0.401,0.339,1.134,0.339,2.207l-0.031,2.881
	c0,0.822,0.039,1.431,0.117,1.824c0.074,0.391,0.222,0.804,0.44,1.248h-2.437c-0.066-0.16-0.144-0.405-0.246-0.729
	c-0.039-0.147-0.07-0.245-0.082-0.296c-0.425,0.417-0.877,0.725-1.365,0.932c-0.476,0.203-0.986,0.304-1.528,0.304
	c-0.967,0-1.727-0.261-2.281-0.779c-0.55-0.522-0.823-1.182-0.823-1.984c0-0.53,0.121-0.998,0.367-1.407
	c0.253-0.414,0.608-0.729,1.068-0.947c0.456-0.219,1.111-0.414,1.965-0.581c1.154-0.219,1.953-0.422,2.405-0.604v-0.254
	c0-0.471-0.121-0.807-0.358-1.013c-0.234-0.203-0.675-0.304-1.33-0.304c-0.437,0-0.78,0.086-1.025,0.265
	C90.236,94.882,90.033,95.182,89.881,95.615z M93.195,97.619c-0.315,0.104-0.818,0.233-1.509,0.382
	c-0.682,0.145-1.13,0.288-1.341,0.433c-0.324,0.223-0.487,0.511-0.487,0.865c0,0.344,0.128,0.644,0.382,0.897
	c0.261,0.253,0.589,0.378,0.99,0.378c0.444,0,0.87-0.148,1.279-0.44c0.296-0.219,0.487-0.491,0.581-0.815
	c0.07-0.21,0.105-0.611,0.105-1.204V97.619z M102.338,92.761v1.977h-1.692v3.758c0,0.768,0.016,1.213,0.043,1.341
	c0.035,0.125,0.109,0.23,0.222,0.316c0.121,0.078,0.262,0.116,0.422,0.116c0.233,0,0.565-0.081,0.994-0.241l0.21,1.918
	c-0.569,0.25-1.22,0.37-1.953,0.37c-0.444,0-0.842-0.073-1.204-0.222c-0.359-0.148-0.62-0.339-0.792-0.581
	c-0.16-0.238-0.272-0.558-0.335-0.959c-0.059-0.289-0.086-0.869-0.086-1.743v-4.074h-1.131v-1.977h1.131v-1.848l2.479-1.447v3.294
	H102.338z M104.049,91.494v-2.281h2.479v2.281H104.049z M104.049,102.106v-9.346h2.479v9.346H104.049z M108.482,97.303
	c0-0.818,0.202-1.61,0.604-2.378c0.406-0.772,0.979-1.361,1.72-1.762c0.745-0.409,1.575-0.612,2.491-0.612
	c1.415,0,2.573,0.46,3.474,1.384c0.901,0.916,1.354,2.074,1.354,3.474c0,1.415-0.46,2.585-1.373,3.517
	c-0.908,0.928-2.055,1.392-3.431,1.392c-0.861,0-1.681-0.19-2.46-0.58c-0.776-0.387-1.368-0.952-1.774-1.7
	C108.684,99.291,108.482,98.379,108.482,97.303z M111.016,97.439c0,0.924,0.218,1.63,0.654,2.121c0.444,0.495,0.99,0.74,1.638,0.74
	c0.64,0,1.178-0.245,1.614-0.74c0.444-0.491,0.667-1.205,0.667-2.141c0-0.916-0.223-1.622-0.667-2.113
	c-0.437-0.491-0.975-0.741-1.614-0.741c-0.647,0-1.193,0.25-1.638,0.741C111.234,95.798,111.016,96.512,111.016,97.439z
	 M128.556,102.106h-2.472v-4.761c0-1.014-0.055-1.668-0.16-1.965c-0.105-0.296-0.276-0.526-0.515-0.686
	c-0.233-0.167-0.519-0.253-0.857-0.253c-0.429,0-0.811,0.121-1.15,0.358c-0.339,0.234-0.569,0.542-0.697,0.928
	c-0.125,0.391-0.188,1.104-0.188,2.145v4.234h-2.472v-9.346h2.292v1.373c0.815-1.053,1.845-1.583,3.08-1.583
	c0.542,0,1.041,0.098,1.489,0.296c0.46,0.199,0.8,0.452,1.025,0.76c0.234,0.304,0.395,0.647,0.483,1.033
	c0.094,0.39,0.141,0.94,0.141,1.661V102.106z M132.908,95.615l-2.238-0.402c0.253-0.901,0.687-1.571,1.298-2.008
	c0.62-0.437,1.532-0.655,2.745-0.655c1.104,0,1.926,0.133,2.46,0.39c0.542,0.261,0.92,0.596,1.139,1.006
	c0.226,0.401,0.339,1.134,0.339,2.207l-0.031,2.881c0,0.822,0.039,1.431,0.117,1.824c0.078,0.391,0.223,0.804,0.44,1.248h-2.437
	c-0.063-0.16-0.145-0.405-0.242-0.729c-0.042-0.147-0.073-0.245-0.085-0.296c-0.422,0.417-0.878,0.725-1.361,0.932
	c-0.479,0.203-0.99,0.304-1.532,0.304c-0.967,0-1.727-0.261-2.28-0.779c-0.55-0.522-0.823-1.182-0.823-1.984
	c0-0.53,0.121-0.998,0.367-1.407c0.253-0.414,0.611-0.729,1.068-0.947c0.456-0.219,1.11-0.414,1.965-0.581
	c1.153-0.219,1.957-0.422,2.405-0.604v-0.254c0-0.471-0.121-0.807-0.358-1.013c-0.234-0.203-0.675-0.304-1.33-0.304
	c-0.437,0-0.779,0.086-1.025,0.265C133.262,94.882,133.059,95.182,132.908,95.615z M136.221,97.619
	c-0.315,0.104-0.818,0.233-1.509,0.382c-0.683,0.145-1.131,0.288-1.341,0.433c-0.324,0.223-0.487,0.511-0.487,0.865
	c0,0.344,0.128,0.644,0.382,0.897c0.261,0.253,0.589,0.378,0.99,0.378c0.444,0,0.869-0.148,1.278-0.44
	c0.297-0.219,0.491-0.491,0.581-0.815c0.07-0.21,0.105-0.611,0.105-1.204V97.619z M141.075,102.106V89.213h2.484v12.894H141.075z"/>
<path fill-opacity="0" d="M139.676,229.729l85.858-85.793l22.391,22.41l-85.858,85.792L139.676,229.729z"/>
<path d="M163.731,235.073l-7.743-7.751l1.567-1.567l7.747,7.751L163.731,235.073z M171.887,226.925l-1.485,1.485l-2.866-2.865
	c-0.607-0.608-1.029-0.967-1.271-1.076c-0.238-0.121-0.479-0.16-0.722-0.113c-0.245,0.043-0.468,0.168-0.666,0.366
	c-0.258,0.258-0.418,0.562-0.477,0.909c-0.065,0.343-0.019,0.67,0.141,0.979c0.152,0.304,0.546,0.768,1.17,1.396l2.546,2.55
	l-1.485,1.485l-5.614-5.618l1.376-1.372l0.827,0.826c-0.145-1.131,0.155-2.066,0.896-2.807c0.331-0.328,0.689-0.565,1.076-0.714
	c0.394-0.156,0.752-0.21,1.076-0.164c0.319,0.039,0.623,0.148,0.912,0.328c0.288,0.179,0.646,0.483,1.08,0.92L171.887,226.925z
	 M170.359,217.229l1.185,1.189l-1.014,1.014l2.262,2.261c0.456,0.46,0.733,0.718,0.826,0.772c0.098,0.055,0.199,0.074,0.316,0.059
	c0.116-0.02,0.226-0.078,0.327-0.18c0.141-0.137,0.293-0.386,0.456-0.736l1.275,1.021c-0.195,0.495-0.511,0.959-0.947,1.396
	c-0.27,0.269-0.558,0.468-0.858,0.589c-0.304,0.124-0.581,0.171-0.822,0.136c-0.246-0.047-0.507-0.171-0.784-0.382
	c-0.21-0.141-0.576-0.472-1.103-1.002l-2.441-2.44l-0.682,0.679l-1.186-1.189l0.679-0.679l-1.111-1.111l0.628-2.358l1.98,1.977
	L170.359,217.229z M178.472,216.776l1.727-1.229c0.352,0.729,0.464,1.443,0.336,2.141c-0.125,0.694-0.495,1.346-1.115,1.965
	c-0.975,0.975-2.02,1.381-3.127,1.217c-0.881-0.148-1.712-0.608-2.487-1.384c-0.928-0.932-1.415-1.903-1.462-2.913
	c-0.039-1.014,0.315-1.895,1.061-2.643c0.838-0.835,1.773-1.217,2.811-1.146c1.033,0.07,2.105,0.683,3.217,1.844l-3.72,3.716
	c0.452,0.433,0.912,0.659,1.388,0.675c0.473,0.016,0.882-0.148,1.225-0.495c0.23-0.227,0.358-0.483,0.394-0.769
	C178.749,217.467,178.667,217.143,178.472,216.776z M177.057,215.193c-0.445-0.421-0.886-0.64-1.322-0.651
	c-0.433-0.012-0.803,0.133-1.107,0.434c-0.323,0.323-0.472,0.713-0.448,1.165c0.027,0.444,0.242,0.87,0.651,1.279L177.057,215.193z
	 M184.449,214.375l-1.485,1.481l-5.61-5.614l1.372-1.376l0.8,0.799c-0.141-0.616-0.176-1.08-0.105-1.388
	c0.07-0.309,0.226-0.581,0.464-0.819c0.339-0.339,0.761-0.568,1.264-0.693l0.826,1.754c-0.409,0.09-0.718,0.242-0.932,0.456
	c-0.211,0.207-0.332,0.441-0.359,0.702c-0.03,0.258,0.063,0.577,0.277,0.963c0.218,0.378,0.803,1.045,1.758,2L184.449,214.375z
	 M181.58,206.016l1.392-1.388l0.826,0.826c-0.101-0.46-0.09-0.932,0.039-1.411c0.129-0.487,0.382-0.916,0.757-1.29
	c0.65-0.651,1.458-0.947,2.425-0.89c0.967,0.051,1.906,0.534,2.822,1.451c0.937,0.936,1.436,1.895,1.497,2.877
	c0.059,0.975-0.237,1.789-0.889,2.44c-0.308,0.309-0.651,0.526-1.029,0.655c-0.378,0.133-0.857,0.187-1.435,0.164l2.83,2.83
	l-1.489,1.485L181.58,206.016z M185.762,207.256c0.632,0.632,1.225,0.975,1.774,1.033c0.554,0.043,1.01-0.113,1.368-0.472
	c0.344-0.344,0.491-0.769,0.448-1.268c-0.051-0.511-0.39-1.08-1.021-1.711c-0.588-0.589-1.142-0.909-1.656-0.956
	c-0.522-0.058-0.963,0.094-1.314,0.445c-0.358,0.358-0.519,0.803-0.479,1.329C184.921,206.176,185.214,206.71,185.762,207.256z
	 M195.327,199.938l1.723-1.231c0.355,0.732,0.468,1.446,0.336,2.144c-0.125,0.69-0.495,1.346-1.111,1.962
	c-0.979,0.975-2.02,1.38-3.131,1.216c-0.881-0.145-1.708-0.604-2.483-1.38c-0.932-0.932-1.419-1.902-1.462-2.912
	c-0.039-1.018,0.312-1.899,1.061-2.644c0.838-0.839,1.773-1.221,2.807-1.15c1.037,0.07,2.109,0.687,3.217,1.844l-3.72,3.72
	c0.452,0.433,0.916,0.655,1.388,0.671c0.476,0.016,0.882-0.148,1.225-0.491c0.229-0.23,0.362-0.483,0.397-0.769
	C195.603,200.628,195.521,200.301,195.327,199.938z M193.907,198.354c-0.44-0.425-0.881-0.639-1.321-0.65
	c-0.433-0.016-0.799,0.128-1.104,0.433c-0.323,0.323-0.472,0.713-0.448,1.165c0.023,0.441,0.242,0.87,0.647,1.275L193.907,198.354z
	 M201.303,197.532l-1.485,1.485l-5.614-5.618l1.376-1.372l0.8,0.799c-0.141-0.616-0.176-1.08-0.105-1.388s0.222-0.581,0.464-0.822
	c0.339-0.34,0.756-0.569,1.259-0.694l0.831,1.754c-0.409,0.09-0.722,0.242-0.936,0.457c-0.207,0.21-0.328,0.444-0.359,0.701
	c-0.027,0.262,0.063,0.581,0.277,0.963c0.218,0.379,0.807,1.045,1.762,2.004L201.303,197.532z M201.963,193.665l1.271-1.72
	c0.347,0.23,0.694,0.323,1.037,0.276c0.343-0.042,0.69-0.241,1.037-0.588c0.39-0.387,0.608-0.745,0.659-1.076
	c0.035-0.234-0.031-0.433-0.195-0.597c-0.113-0.113-0.241-0.176-0.386-0.18c-0.145,0.004-0.378,0.109-0.694,0.309
	c-1.466,0.932-2.464,1.45-3.002,1.552c-0.748,0.136-1.388-0.063-1.926-0.601c-0.487-0.487-0.706-1.088-0.651-1.798
	c0.051-0.717,0.479-1.481,1.287-2.284c0.768-0.769,1.462-1.209,2.089-1.33c0.628-0.128,1.256-0.02,1.884,0.332l-1.143,1.66
	c-0.28-0.155-0.562-0.21-0.846-0.155c-0.285,0.047-0.577,0.222-0.89,0.53c-0.394,0.394-0.619,0.729-0.678,1.01
	c-0.035,0.19,0.008,0.351,0.125,0.468c0.112,0.109,0.253,0.152,0.429,0.129c0.226-0.039,0.83-0.363,1.805-0.972
	c0.971-0.611,1.743-0.943,2.316-0.998c0.572-0.046,1.095,0.168,1.567,0.644c0.51,0.511,0.74,1.17,0.686,1.969
	c-0.063,0.796-0.515,1.618-1.36,2.464c-0.761,0.761-1.521,1.213-2.277,1.35C203.35,194.191,202.636,194.059,201.963,193.665z
	 M206.883,186.179c-0.491-0.491-0.846-1.088-1.061-1.789c-0.219-0.71-0.227-1.403-0.027-2.09c0.203-0.694,0.581-1.313,1.127-1.859
	c0.854-0.851,1.824-1.271,2.92-1.264c1.096,0.012,2.063,0.437,2.904,1.279c0.851,0.854,1.279,1.832,1.291,2.936
	c0.008,1.104-0.401,2.074-1.236,2.904c-0.515,0.519-1.123,0.896-1.82,1.135c-0.698,0.226-1.392,0.237-2.082,0.035
	C208.2,187.255,207.53,186.83,206.883,186.179z M208.489,184.74c0.558,0.558,1.114,0.854,1.68,0.889
	c0.558,0.031,1.029-0.147,1.416-0.538c0.39-0.386,0.564-0.857,0.534-1.411c-0.035-0.562-0.336-1.123-0.897-1.684
	c-0.554-0.554-1.107-0.847-1.664-0.878c-0.558-0.039-1.029,0.137-1.42,0.522c-0.386,0.39-0.565,0.866-0.53,1.427
	C207.638,183.625,207.931,184.183,208.489,184.74z M221.838,177.013l-1.485,1.485l-2.865-2.869
	c-0.608-0.608-1.029-0.967-1.271-1.076c-0.237-0.117-0.479-0.155-0.721-0.109c-0.246,0.043-0.468,0.164-0.667,0.363
	c-0.257,0.261-0.417,0.565-0.479,0.912c-0.063,0.343-0.016,0.671,0.145,0.979c0.152,0.304,0.542,0.768,1.17,1.396l2.546,2.546
	l-1.486,1.485l-5.613-5.614l1.376-1.376l0.826,0.83c-0.145-1.13,0.156-2.066,0.896-2.807c0.332-0.327,0.69-0.565,1.076-0.718
	c0.395-0.151,0.753-0.206,1.076-0.163c0.32,0.039,0.62,0.151,0.908,0.331c0.293,0.18,0.651,0.483,1.084,0.916L221.838,177.013z
	 M220.555,170.49l-1.591,1.111c-0.39-0.698-0.526-1.36-0.417-1.988c0.105-0.632,0.522-1.313,1.255-2.043
	c0.663-0.663,1.232-1.076,1.716-1.24c0.479-0.167,0.904-0.194,1.279-0.081c0.37,0.104,0.881,0.479,1.528,1.126l1.715,1.751
	c0.495,0.491,0.881,0.834,1.158,1.021c0.284,0.188,0.628,0.343,1.029,0.479l-1.47,1.47c-0.141-0.059-0.336-0.16-0.585-0.3
	c-0.109-0.059-0.184-0.098-0.223-0.117c-0.012,0.495-0.101,0.955-0.269,1.372c-0.164,0.413-0.409,0.78-0.733,1.104
	c-0.581,0.585-1.196,0.885-1.844,0.904c-0.644,0.016-1.201-0.218-1.681-0.693c-0.315-0.32-0.526-0.679-0.624-1.076
	c-0.097-0.406-0.073-0.804,0.066-1.205c0.141-0.405,0.418-0.92,0.839-1.536c0.562-0.822,0.92-1.423,1.076-1.805l-0.145-0.145
	c-0.289-0.289-0.565-0.421-0.827-0.394c-0.265,0.016-0.592,0.214-0.979,0.604c-0.265,0.261-0.421,0.521-0.464,0.775
	C220.321,169.839,220.384,170.14,220.555,170.49z M223.749,169.715c-0.125,0.253-0.348,0.631-0.671,1.135
	c-0.327,0.495-0.515,0.85-0.554,1.06c-0.055,0.332,0.023,0.604,0.23,0.812c0.21,0.21,0.468,0.315,0.775,0.315
	c0.304-0.004,0.577-0.129,0.814-0.366c0.27-0.27,0.438-0.612,0.503-1.037c0.047-0.308,0.004-0.589-0.136-0.834
	c-0.09-0.172-0.309-0.434-0.663-0.788L223.749,169.715z M229.367,169.488l-7.747-7.755l1.489-1.481l7.743,7.751L229.367,169.488z"/>
<path fill-opacity="0" d="M164.483-60.411l88.518,88.515L230.61,50.499l-88.518-88.518L164.483-60.411z"/>
<path d="M166.538-28.962l7.747-7.751l2.339,2.335l-3.875,6.698l6.675-3.899l2.343,2.347l-7.75,7.75l-1.455-1.458l6.102-6.098
	l-7.638,4.562l-1.501-1.505l4.562-7.634l-6.102,6.098L166.538-28.962z M180.578-22.728l-1.111-1.59
	c0.697-0.39,1.36-0.53,1.988-0.421c0.632,0.105,1.313,0.522,2.043,1.255c0.663,0.663,1.076,1.232,1.239,1.715
	c0.172,0.48,0.199,0.905,0.082,1.279c-0.104,0.375-0.479,0.881-1.126,1.528l-1.747,1.72c-0.491,0.495-0.834,0.877-1.021,1.158
	s-0.347,0.624-0.479,1.029l-1.47-1.47c0.059-0.141,0.159-0.332,0.296-0.581c0.063-0.109,0.102-0.187,0.121-0.226
	c-0.499-0.008-0.955-0.102-1.372-0.269c-0.413-0.164-0.784-0.409-1.107-0.729c-0.581-0.585-0.881-1.201-0.904-1.848
	c-0.012-0.639,0.218-1.201,0.697-1.676c0.316-0.32,0.675-0.53,1.072-0.632c0.405-0.093,0.808-0.07,1.205,0.07
	c0.405,0.14,0.92,0.417,1.536,0.834c0.822,0.562,1.423,0.92,1.809,1.076l0.141-0.14c0.288-0.289,0.421-0.565,0.394-0.831
	c-0.012-0.261-0.214-0.588-0.604-0.979c-0.261-0.265-0.522-0.417-0.775-0.46C181.228-22.962,180.928-22.899,180.578-22.728z
	 M181.357-19.535c-0.253-0.125-0.636-0.347-1.135-0.671c-0.499-0.331-0.854-0.511-1.061-0.553c-0.335-0.055-0.607,0.023-0.814,0.23
	c-0.211,0.21-0.315,0.468-0.315,0.78c0.008,0.304,0.128,0.573,0.366,0.811c0.269,0.273,0.616,0.437,1.037,0.499
	c0.312,0.055,0.589,0.008,0.838-0.132c0.168-0.09,0.429-0.312,0.784-0.663L181.357-19.535z M186.691-8.81l-1.485-1.485l2.865-2.865
	c0.608-0.608,0.967-1.033,1.076-1.271c0.117-0.242,0.155-0.484,0.109-0.726c-0.043-0.242-0.164-0.468-0.363-0.663
	c-0.261-0.257-0.565-0.421-0.912-0.479c-0.343-0.066-0.671-0.02-0.979,0.144c-0.304,0.152-0.769,0.546-1.396,1.17l-2.546,2.546
	l-1.485-1.485l5.614-5.614l1.372,1.372l-0.826,0.831c1.13-0.144,2.065,0.152,2.807,0.893c0.327,0.332,0.565,0.69,0.718,1.076
	c0.151,0.398,0.206,0.752,0.163,1.076c-0.039,0.32-0.147,0.624-0.327,0.912c-0.18,0.289-0.487,0.647-0.92,1.084L186.691-8.81z
	 M193.214-10.096l-1.111-1.591c0.694-0.39,1.356-0.53,1.984-0.417c0.632,0.105,1.313,0.522,2.047,1.251
	c0.659,0.663,1.072,1.236,1.24,1.72c0.167,0.479,0.194,0.9,0.081,1.275c-0.104,0.374-0.483,0.885-1.13,1.532l-1.747,1.719
	c-0.491,0.491-0.834,0.877-1.021,1.154c-0.184,0.285-0.343,0.628-0.479,1.029l-1.47-1.466c0.059-0.14,0.16-0.335,0.3-0.585
	c0.059-0.109,0.098-0.187,0.117-0.226c-0.495-0.008-0.955-0.097-1.372-0.265c-0.413-0.164-0.78-0.409-1.104-0.733
	c-0.585-0.585-0.885-1.197-0.904-1.844c-0.016-0.643,0.214-1.205,0.693-1.68c0.32-0.32,0.679-0.53,1.076-0.627
	c0.401-0.094,0.804-0.074,1.201,0.066c0.409,0.141,0.92,0.421,1.54,0.838c0.818,0.562,1.423,0.92,1.805,1.072l0.141-0.141
	c0.288-0.289,0.421-0.561,0.397-0.826c-0.016-0.265-0.218-0.593-0.604-0.979c-0.265-0.265-0.522-0.417-0.775-0.464
	C193.86-10.33,193.56-10.268,193.214-10.096z M193.989-6.899c-0.253-0.125-0.632-0.351-1.135-0.674
	c-0.499-0.328-0.85-0.511-1.06-0.55c-0.336-0.055-0.604,0.02-0.815,0.23c-0.206,0.207-0.312,0.468-0.312,0.776
	c0.004,0.304,0.125,0.577,0.366,0.811c0.27,0.273,0.612,0.437,1.037,0.503c0.308,0.05,0.589,0.004,0.834-0.137
	c0.172-0.085,0.434-0.308,0.784-0.663L193.989-6.899z M193.709-1.043l1.493,1.895c-0.168,0.23-0.242,0.429-0.215,0.604
	c0.031,0.246,0.203,0.519,0.507,0.823c0.387,0.39,0.737,0.624,1.045,0.702c0.207,0.047,0.437,0.023,0.679-0.082
	c0.164-0.074,0.413-0.277,0.748-0.612l0.819-0.823c-1.049,0.164-1.914-0.09-2.589-0.768c-0.757-0.756-1.037-1.672-0.838-2.749
	c0.155-0.85,0.607-1.649,1.36-2.406c0.939-0.939,1.887-1.431,2.834-1.474c0.951-0.047,1.767,0.269,2.444,0.943
	c0.69,0.694,0.956,1.575,0.8,2.636l0.791-0.788l1.389,1.388l-5.041,5.037c-0.663,0.663-1.213,1.103-1.649,1.326
	c-0.437,0.218-0.851,0.319-1.232,0.304c-0.382-0.008-0.795-0.125-1.231-0.351c-0.434-0.226-0.901-0.589-1.404-1.092
	c-0.951-0.951-1.462-1.786-1.532-2.515c-0.073-0.721,0.141-1.33,0.636-1.829C193.572-0.922,193.635-0.98,193.709-1.043z
	 M198.329-3.023c-0.597,0.6-0.921,1.15-0.971,1.661c-0.039,0.507,0.112,0.928,0.448,1.267c0.366,0.363,0.811,0.526,1.345,0.495
	c0.538-0.031,1.084-0.328,1.642-0.881c0.577-0.581,0.889-1.131,0.928-1.661c0.043-0.522-0.117-0.967-0.479-1.326
	c-0.358-0.358-0.791-0.519-1.306-0.476C199.432-3.897,198.898-3.593,198.329-3.023z M205.869,6.801l1.231,1.723
	c-0.732,0.355-1.446,0.468-2.144,0.335c-0.69-0.125-1.346-0.491-1.961-1.111c-0.976-0.975-1.385-2.016-1.217-3.13
	c0.145-0.881,0.604-1.708,1.38-2.484c0.932-0.932,1.902-1.419,2.912-1.462c1.014-0.039,1.896,0.312,2.644,1.061
	c0.835,0.834,1.217,1.77,1.15,2.807c-0.07,1.033-0.687,2.105-1.844,3.216l-3.72-3.719c-0.433,0.456-0.659,0.916-0.671,1.392
	c-0.016,0.468,0.148,0.881,0.491,1.225c0.23,0.226,0.483,0.358,0.769,0.394C205.178,7.074,205.507,6.996,205.869,6.801z
	 M207.452,5.382c0.425-0.445,0.639-0.881,0.65-1.322c0.012-0.433-0.132-0.799-0.433-1.104c-0.323-0.328-0.713-0.476-1.165-0.452
	c-0.445,0.027-0.87,0.242-1.279,0.655L207.452,5.382z M208.274,12.774l-1.485-1.481l5.614-5.614l1.376,1.373l-0.799,0.795
	c0.616-0.137,1.08-0.171,1.388-0.102c0.309,0.07,0.581,0.226,0.823,0.46c0.339,0.343,0.568,0.764,0.693,1.263l-1.754,0.831
	c-0.09-0.409-0.242-0.721-0.457-0.932c-0.21-0.21-0.444-0.332-0.701-0.359c-0.258-0.031-0.581,0.063-0.963,0.273
	c-0.379,0.218-1.045,0.807-2,1.762L208.274,12.774z M217.44,9.188l1.372-1.373l1.485,1.481l-1.372,1.376L217.44,9.188z
	 M211.062,15.565l5.614-5.614l1.485,1.481l-5.614,5.614L211.062,15.565z M219.09,15.776l-1.115-1.587
	c0.698-0.39,1.36-0.526,1.988-0.417c0.632,0.101,1.314,0.522,2.043,1.251c0.663,0.663,1.076,1.236,1.24,1.719
	c0.171,0.476,0.198,0.904,0.081,1.275c-0.101,0.374-0.479,0.885-1.126,1.532l-1.747,1.715c-0.491,0.491-0.834,0.881-1.021,1.158
	c-0.187,0.285-0.343,0.628-0.479,1.033l-1.47-1.474c0.059-0.14,0.16-0.335,0.296-0.584c0.063-0.109,0.102-0.18,0.121-0.223
	c-0.499-0.012-0.955-0.097-1.372-0.269c-0.413-0.164-0.784-0.405-1.107-0.733c-0.581-0.581-0.881-1.193-0.9-1.84
	c-0.016-0.644,0.214-1.201,0.693-1.685c0.316-0.316,0.675-0.522,1.072-0.624c0.406-0.094,0.808-0.07,1.205,0.066
	c0.409,0.141,0.92,0.417,1.536,0.838c0.822,0.562,1.423,0.92,1.809,1.076l0.141-0.145c0.289-0.288,0.421-0.565,0.397-0.83
	c-0.016-0.265-0.218-0.589-0.607-0.975c-0.262-0.265-0.522-0.421-0.776-0.464C219.737,15.55,219.436,15.612,219.09,15.776z
	 M219.865,18.973c-0.253-0.125-0.631-0.347-1.134-0.67c-0.499-0.328-0.854-0.515-1.061-0.554c-0.336-0.055-0.604,0.023-0.815,0.234
	c-0.21,0.207-0.312,0.468-0.312,0.772c0.004,0.304,0.125,0.577,0.362,0.819c0.27,0.265,0.616,0.433,1.041,0.499
	c0.308,0.047,0.585,0.004,0.834-0.133c0.172-0.093,0.434-0.312,0.784-0.667L219.865,18.973z M220.092,24.591l7.751-7.747
	l1.485,1.482l-7.751,7.75L220.092,24.591z"/>
<path fill-opacity="0" d="M-62.717,28.307l88.856-88.88l22.391,22.391l-88.86,88.88L-62.717,28.307z"/>
<path d="M-44.844,32.167c-0.788-0.788-1.33-1.567-1.634-2.335c-0.214-0.573-0.327-1.166-0.339-1.786
	c-0.008-0.62,0.089-1.185,0.3-1.704c0.276-0.686,0.733-1.345,1.364-1.977c1.143-1.143,2.41-1.696,3.809-1.673
	c1.392,0.02,2.721,0.659,3.98,1.918c1.252,1.255,1.891,2.573,1.918,3.965c0.027,1.384-0.526,2.647-1.665,3.786
	c-1.154,1.154-2.425,1.724-3.809,1.7C-42.302,34.034-43.609,33.402-44.844,32.167z M-43.285,30.502
	c0.881,0.881,1.75,1.345,2.608,1.396c0.857,0.043,1.602-0.246,2.222-0.865c0.624-0.62,0.908-1.357,0.857-2.203
	c-0.046-0.857-0.522-1.735-1.423-2.635c-0.889-0.889-1.743-1.357-2.569-1.404c-0.827-0.051-1.563,0.25-2.21,0.897
	c-0.644,0.639-0.939,1.384-0.897,2.222C-44.646,28.748-44.174,29.609-43.285,30.502z M-30.864,25.843l-1.485,1.489l-5.614-5.618
	l1.372-1.372l0.799,0.799c-0.136-0.616-0.171-1.083-0.101-1.388c0.066-0.312,0.222-0.585,0.46-0.823
	c0.339-0.339,0.76-0.573,1.263-0.698l0.827,1.754c-0.406,0.094-0.718,0.242-0.932,0.46c-0.21,0.207-0.327,0.441-0.358,0.702
	c-0.031,0.257,0.062,0.577,0.277,0.959c0.218,0.382,0.807,1.045,1.762,2.004L-30.864,25.843z M-27.838,23.566l1.898-1.497
	c0.227,0.171,0.429,0.242,0.604,0.218c0.242-0.035,0.515-0.203,0.819-0.507c0.39-0.39,0.624-0.741,0.702-1.045
	c0.051-0.21,0.023-0.437-0.082-0.678c-0.074-0.168-0.276-0.414-0.612-0.749l-0.819-0.823c0.164,1.049-0.094,1.914-0.772,2.593
	c-0.756,0.756-1.672,1.037-2.745,0.834c-0.854-0.156-1.653-0.608-2.406-1.356c-0.939-0.943-1.435-1.887-1.478-2.838
	c-0.047-0.951,0.269-1.762,0.947-2.44c0.69-0.694,1.571-0.959,2.636-0.799l-0.792-0.792l1.388-1.388l5.041,5.038
	c0.663,0.663,1.104,1.212,1.322,1.653c0.218,0.437,0.319,0.846,0.304,1.232c-0.004,0.382-0.121,0.792-0.351,1.232
	c-0.222,0.429-0.585,0.897-1.088,1.404c-0.951,0.951-1.79,1.458-2.519,1.528c-0.721,0.074-1.33-0.137-1.829-0.632
	C-27.714,23.698-27.772,23.636-27.838,23.566z M-29.815,18.942c0.596,0.597,1.15,0.92,1.657,0.971
	c0.507,0.039,0.932-0.109,1.267-0.448c0.367-0.362,0.53-0.811,0.495-1.341c-0.031-0.538-0.323-1.087-0.881-1.645
	c-0.577-0.577-1.131-0.885-1.657-0.928c-0.522-0.043-0.967,0.117-1.329,0.479c-0.359,0.358-0.515,0.795-0.472,1.306
	C-30.688,17.839-30.384,18.373-29.815,18.942z M-24.255,11.425l-1.591,1.115c-0.39-0.702-0.53-1.36-0.417-1.988
	c0.101-0.631,0.522-1.314,1.251-2.047c0.663-0.659,1.236-1.072,1.719-1.236c0.476-0.171,0.901-0.199,1.275-0.086
	c0.375,0.105,0.885,0.484,1.532,1.131l1.715,1.747c0.491,0.491,0.877,0.834,1.158,1.021c0.285,0.183,0.627,0.343,1.029,0.476
	l-1.47,1.474c-0.14-0.062-0.335-0.16-0.581-0.3c-0.113-0.059-0.188-0.098-0.226-0.121c-0.008,0.499-0.098,0.959-0.269,1.376
	c-0.164,0.409-0.406,0.78-0.729,1.103c-0.585,0.585-1.197,0.885-1.844,0.905c-0.644,0.016-1.205-0.218-1.681-0.694
	c-0.319-0.32-0.53-0.679-0.627-1.076c-0.094-0.406-0.074-0.803,0.066-1.201c0.14-0.409,0.417-0.92,0.838-1.536
	c0.562-0.827,0.92-1.427,1.072-1.809l-0.14-0.141c-0.289-0.289-0.565-0.421-0.831-0.397c-0.261,0.016-0.589,0.218-0.979,0.604
	c-0.261,0.265-0.417,0.522-0.46,0.776C-24.489,10.778-24.427,11.074-24.255,11.425z M-21.062,10.649
	c-0.125,0.253-0.347,0.631-0.67,1.134c-0.328,0.499-0.515,0.85-0.554,1.061c-0.055,0.335,0.023,0.604,0.234,0.811
	c0.207,0.21,0.468,0.316,0.776,0.316c0.304-0.004,0.573-0.129,0.811-0.367c0.269-0.269,0.437-0.612,0.503-1.037
	c0.047-0.308,0.004-0.588-0.137-0.838c-0.089-0.168-0.312-0.429-0.663-0.78L-21.062,10.649z M-10.337,5.312l-1.485,1.489l-2.87-2.87
	c-0.604-0.608-1.029-0.967-1.267-1.076C-16.2,2.739-16.438,2.7-16.684,2.747c-0.246,0.043-0.464,0.164-0.663,0.367
	c-0.261,0.257-0.421,0.561-0.479,0.908c-0.066,0.347-0.016,0.67,0.14,0.979c0.156,0.304,0.546,0.772,1.173,1.396l2.546,2.546
	l-1.485,1.485l-5.614-5.614l1.373-1.373l0.831,0.827c-0.145-1.131,0.152-2.066,0.896-2.807c0.328-0.328,0.686-0.565,1.072-0.717
	c0.394-0.152,0.752-0.207,1.076-0.164c0.319,0.039,0.624,0.148,0.912,0.328c0.289,0.18,0.647,0.487,1.08,0.92L-10.337,5.312z
	 M-15.206-2.571l-1.376-1.373l1.485-1.485l1.376,1.376L-15.206-2.571z M-8.832,3.807l-5.614-5.614l1.485-1.485l5.614,5.614
	L-8.832,3.807z M-7.95-0.283l1.267-1.719c0.347,0.23,0.694,0.319,1.037,0.277c0.343-0.043,0.69-0.238,1.037-0.589
	c0.39-0.39,0.608-0.749,0.659-1.076c0.035-0.234-0.031-0.433-0.195-0.597C-4.259-4.1-4.387-4.162-4.535-4.166
	c-0.144,0.004-0.374,0.105-0.694,0.308c-1.462,0.936-2.46,1.45-2.998,1.552c-0.749,0.14-1.392-0.063-1.926-0.601
	c-0.491-0.483-0.706-1.084-0.651-1.797c0.051-0.713,0.479-1.478,1.283-2.285c0.768-0.768,1.466-1.208,2.09-1.329
	c0.627-0.129,1.255-0.02,1.883,0.327l-1.142,1.669c-0.277-0.164-0.562-0.21-0.842-0.156c-0.285,0.043-0.581,0.218-0.889,0.53
	c-0.394,0.39-0.62,0.725-0.679,1.006c-0.035,0.195,0.008,0.351,0.125,0.468c0.109,0.109,0.253,0.156,0.425,0.129
	c0.23-0.039,0.831-0.363,1.809-0.971C-5.771-5.928-5.003-6.26-4.43-6.314c0.573-0.047,1.095,0.167,1.567,0.639
	c0.515,0.515,0.745,1.17,0.69,1.973c-0.063,0.795-0.515,1.614-1.361,2.464c-0.76,0.76-1.521,1.208-2.277,1.349
	C-6.567,0.244-7.28,0.111-7.95-0.283z M-2.597-10.24l-1.591,1.111c-0.386-0.694-0.526-1.357-0.417-1.984
	c0.105-0.632,0.522-1.314,1.256-2.047c0.659-0.663,1.232-1.076,1.715-1.24c0.479-0.167,0.904-0.195,1.279-0.078
	c0.37,0.101,0.881,0.476,1.528,1.123l1.719,1.747c0.491,0.496,0.877,0.834,1.154,1.025c0.285,0.184,0.628,0.343,1.033,0.48
	l-1.474,1.47c-0.136-0.059-0.332-0.16-0.581-0.3C2.915-8.993,2.841-9.036,2.802-9.051C2.79-8.556,2.701-8.1,2.533-7.679
	C2.369-7.266,2.124-6.899,1.8-6.571c-0.581,0.581-1.197,0.881-1.844,0.9c-0.644,0.016-1.201-0.214-1.681-0.694
	C-2.04-6.681-2.251-7.04-2.352-7.437c-0.094-0.405-0.07-0.807,0.07-1.205c0.137-0.41,0.417-0.92,0.834-1.54
	c0.562-0.819,0.92-1.419,1.076-1.805l-0.145-0.144c-0.288-0.289-0.565-0.421-0.826-0.394c-0.265,0.016-0.589,0.214-0.979,0.604
	c-0.265,0.265-0.417,0.522-0.464,0.78C-2.828-10.891-2.765-10.587-2.597-10.24z M0.599-11.016c-0.125,0.253-0.351,0.632-0.674,1.135
	c-0.328,0.495-0.511,0.854-0.55,1.06c-0.055,0.332,0.02,0.604,0.23,0.815s0.468,0.312,0.776,0.312
	c0.304-0.004,0.577-0.125,0.815-0.366c0.269-0.265,0.437-0.616,0.499-1.037c0.05-0.308,0.004-0.585-0.133-0.834
	c-0.089-0.171-0.312-0.433-0.667-0.788L0.599-11.016z M3.177-19.434l1.185,1.189L3.348-17.23l2.261,2.261
	c0.46,0.46,0.737,0.713,0.831,0.768c0.094,0.054,0.199,0.074,0.312,0.058c0.121-0.015,0.23-0.078,0.331-0.179
	c0.137-0.136,0.289-0.382,0.453-0.737l1.279,1.025c-0.195,0.491-0.511,0.955-0.948,1.396c-0.269,0.265-0.557,0.464-0.861,0.584
	c-0.3,0.125-0.577,0.172-0.819,0.137c-0.246-0.043-0.507-0.172-0.784-0.378c-0.21-0.14-0.577-0.476-1.107-1.002l-2.44-2.44
	l-0.678,0.678l-1.189-1.189l0.683-0.679l-1.115-1.111l0.628-2.359l1.98,1.977L3.177-19.434z M3.446-21.223l-1.376-1.376l1.485-1.485
	l1.376,1.372L3.446-21.223z M9.82-14.849l-5.614-5.614l1.485-1.485l5.614,5.614L9.82-14.849z M9.594-20.404
	c-0.491-0.491-0.846-1.092-1.061-1.793c-0.218-0.702-0.226-1.403-0.027-2.09c0.203-0.69,0.577-1.31,1.126-1.855
	c0.85-0.854,1.825-1.271,2.917-1.263c1.096,0.008,2.066,0.437,2.905,1.279c0.854,0.85,1.282,1.824,1.294,2.932
	c0.008,1.107-0.401,2.074-1.232,2.905c-0.519,0.519-1.126,0.893-1.821,1.134c-0.698,0.23-1.392,0.242-2.085,0.039
	C10.915-19.328,10.241-19.757,9.594-20.404z M11.2-21.847c0.558,0.562,1.119,0.857,1.681,0.889c0.557,0.031,1.029-0.148,1.419-0.538
	c0.386-0.386,0.562-0.857,0.53-1.411c-0.035-0.562-0.335-1.123-0.897-1.684c-0.553-0.554-1.107-0.842-1.665-0.874
	c-0.558-0.039-1.033,0.133-1.419,0.522c-0.39,0.39-0.565,0.866-0.53,1.427C10.35-22.962,10.642-22.4,11.2-21.847z M24.546-29.578
	l-1.485,1.485l-2.866-2.869c-0.608-0.604-1.033-0.963-1.271-1.072c-0.238-0.121-0.479-0.16-0.725-0.113
	c-0.242,0.047-0.464,0.168-0.663,0.367c-0.257,0.257-0.417,0.562-0.479,0.912c-0.063,0.343-0.016,0.671,0.145,0.975
	c0.152,0.304,0.545,0.772,1.169,1.396l2.546,2.55l-1.485,1.485l-5.614-5.614l1.376-1.376l0.826,0.83
	c-0.144-1.13,0.156-2.066,0.897-2.807c0.327-0.331,0.686-0.565,1.076-0.717c0.394-0.152,0.749-0.207,1.072-0.164
	c0.32,0.039,0.624,0.148,0.913,0.328c0.289,0.179,0.651,0.487,1.083,0.916L24.546-29.578z M23.259-36.101l-1.591,1.111
	c-0.386-0.698-0.526-1.361-0.417-1.985c0.105-0.631,0.522-1.317,1.255-2.047c0.659-0.663,1.232-1.076,1.715-1.24
	c0.479-0.167,0.904-0.199,1.275-0.082c0.374,0.101,0.885,0.479,1.532,1.126l1.715,1.747c0.495,0.495,0.881,0.834,1.158,1.025
	c0.284,0.18,0.627,0.343,1.033,0.476l-1.474,1.474c-0.136-0.063-0.331-0.164-0.581-0.304c-0.109-0.055-0.184-0.098-0.226-0.117
	c-0.008,0.499-0.098,0.956-0.265,1.373c-0.168,0.413-0.41,0.784-0.733,1.107c-0.581,0.584-1.197,0.881-1.844,0.904
	c-0.644,0.016-1.201-0.218-1.681-0.694c-0.319-0.32-0.526-0.679-0.627-1.076c-0.094-0.406-0.07-0.803,0.066-1.201
	c0.14-0.41,0.421-0.92,0.838-1.54c0.562-0.823,0.92-1.423,1.076-1.805l-0.144-0.145c-0.289-0.289-0.565-0.421-0.827-0.394
	c-0.265,0.016-0.593,0.214-0.979,0.604c-0.265,0.261-0.417,0.522-0.464,0.775C23.029-36.752,23.091-36.452,23.259-36.101z
	 M26.456-36.88c-0.125,0.257-0.351,0.631-0.674,1.138c-0.328,0.496-0.511,0.85-0.55,1.061c-0.055,0.332,0.02,0.601,0.23,0.811
	s0.468,0.312,0.776,0.312c0.304,0,0.577-0.125,0.815-0.363c0.269-0.269,0.437-0.616,0.499-1.041
	c0.051-0.304,0.004-0.584-0.133-0.834c-0.089-0.172-0.312-0.429-0.667-0.784L26.456-36.88z M32.07-37.106l-7.747-7.749l1.485-1.487
	l7.747,7.751L32.07-37.106z"/>
<path fill-opacity="0" d="M-40.447,138.845l89.094,89.031l-22.391,22.387l-89.09-89.028L-40.447,138.845z"/>
<path d="M-32.684,175.983l7.747-7.746l2.519,2.515c0.951,0.951,1.532,1.61,1.739,1.977c0.331,0.558,0.448,1.181,0.358,1.867
	c-0.082,0.69-0.433,1.345-1.052,1.961c-0.476,0.479-0.963,0.792-1.462,0.943c-0.499,0.148-0.975,0.184-1.435,0.105
	c-0.448-0.082-0.838-0.229-1.169-0.44c-0.445-0.304-1.021-0.811-1.728-1.517l-1.021-1.021l-2.928,2.924L-32.684,175.983z
	 M-24.68,171.118l-2.195,2.195l0.858,0.857c0.616,0.616,1.068,0.986,1.353,1.111c0.289,0.129,0.581,0.167,0.874,0.113
	c0.292-0.055,0.554-0.199,0.784-0.426c0.277-0.28,0.425-0.596,0.44-0.951c0.02-0.347-0.074-0.67-0.285-0.967
	c-0.148-0.222-0.507-0.612-1.076-1.182L-24.68,171.118z M-20.43,184.666l1.236,1.724c-0.733,0.354-1.446,0.464-2.145,0.335
	c-0.694-0.125-1.349-0.495-1.965-1.111c-0.975-0.975-1.38-2.016-1.216-3.126c0.144-0.882,0.604-1.712,1.38-2.488
	c0.932-0.928,1.903-1.419,2.913-1.462c1.014-0.039,1.895,0.313,2.644,1.061c0.838,0.835,1.22,1.771,1.15,2.808
	c-0.07,1.033-0.682,2.105-1.844,3.216l-3.719-3.719c-0.433,0.456-0.655,0.916-0.67,1.392c-0.016,0.472,0.148,0.881,0.491,1.225
	c0.23,0.226,0.487,0.358,0.772,0.394C-21.116,184.943-20.793,184.861-20.43,184.666z M-18.847,183.247
	c0.425-0.444,0.639-0.885,0.651-1.321c0.016-0.433-0.128-0.8-0.433-1.104c-0.324-0.323-0.713-0.472-1.166-0.448
	c-0.444,0.023-0.869,0.241-1.275,0.65L-18.847,183.247z M-18.021,190.64l-1.485-1.486l5.614-5.613l1.376,1.372l-0.799,0.799
	c0.616-0.136,1.08-0.171,1.388-0.102c0.308,0.066,0.581,0.223,0.823,0.461c0.335,0.339,0.569,0.76,0.694,1.263l-1.754,0.826
	c-0.089-0.405-0.242-0.717-0.456-0.932c-0.21-0.21-0.444-0.327-0.702-0.358c-0.261-0.031-0.581,0.063-0.963,0.276
	c-0.378,0.219-1.045,0.808-2,1.763L-18.021,190.64z M-14.15,191.298l1.719,1.271c-0.23,0.347-0.323,0.693-0.277,1.037
	c0.043,0.343,0.242,0.686,0.589,1.037c0.39,0.386,0.749,0.604,1.076,0.654c0.234,0.035,0.433-0.027,0.596-0.194
	c0.117-0.113,0.176-0.242,0.18-0.386c-0.004-0.145-0.105-0.379-0.304-0.694c-0.939-1.462-1.454-2.464-1.556-3.002
	c-0.14-0.745,0.059-1.388,0.597-1.926c0.487-0.487,1.087-0.706,1.801-0.647c0.717,0.047,1.478,0.476,2.285,1.282
	c0.768,0.765,1.208,1.462,1.329,2.09c0.129,0.628,0.02,1.252-0.327,1.88l-1.665-1.143c0.156-0.277,0.21-0.558,0.156-0.843
	c-0.047-0.284-0.222-0.58-0.53-0.889c-0.394-0.394-0.729-0.62-1.01-0.678c-0.195-0.035-0.351,0.007-0.472,0.128
	c-0.109,0.109-0.152,0.25-0.125,0.425c0.039,0.227,0.363,0.831,0.971,1.806c0.612,0.971,0.948,1.742,1.002,2.315
	c0.043,0.569-0.171,1.092-0.643,1.567c-0.511,0.511-1.17,0.741-1.973,0.687c-0.795-0.059-1.618-0.515-2.464-1.356
	c-0.76-0.765-1.212-1.521-1.349-2.277C-14.676,192.687-14.543,191.969-14.15,191.298z M-6.664,196.211
	c0.495-0.491,1.091-0.847,1.793-1.061c0.706-0.219,1.403-0.227,2.089-0.027c0.694,0.202,1.314,0.577,1.86,1.126
	c0.85,0.851,1.271,1.821,1.263,2.917c-0.012,1.096-0.437,2.063-1.279,2.904c-0.85,0.85-1.829,1.283-2.932,1.29
	c-1.107,0.012-2.074-0.397-2.905-1.228c-0.519-0.519-0.896-1.127-1.138-1.821c-0.227-0.697-0.238-1.392-0.035-2.085
	C-7.74,197.532-7.311,196.857-6.664,196.211z M-5.221,197.816c-0.558,0.558-0.854,1.119-0.889,1.681
	c-0.031,0.558,0.148,1.029,0.538,1.419c0.39,0.387,0.858,0.562,1.412,0.526c0.562-0.035,1.126-0.331,1.688-0.893
	c0.554-0.554,0.842-1.107,0.874-1.665c0.039-0.558-0.137-1.033-0.522-1.419c-0.39-0.39-0.866-0.565-1.427-0.53
	C-4.106,196.967-4.664,197.26-5.221,197.816z M2.513,211.158l-1.485-1.481l2.866-2.869c0.608-0.608,0.967-1.029,1.076-1.268
	c0.121-0.241,0.156-0.483,0.113-0.725c-0.046-0.246-0.167-0.464-0.366-0.663c-0.257-0.262-0.562-0.421-0.913-0.479
	c-0.343-0.066-0.67-0.016-0.979,0.141c-0.304,0.155-0.768,0.546-1.396,1.173l-2.546,2.546l-1.485-1.485l5.614-5.614l1.376,1.373
	l-0.831,0.83c1.131-0.145,2.066,0.152,2.807,0.896c0.328,0.328,0.569,0.687,0.717,1.072c0.156,0.394,0.211,0.753,0.164,1.076
	c-0.039,0.319-0.148,0.62-0.328,0.912c-0.179,0.289-0.483,0.647-0.916,1.08L2.513,211.158z M9.04,209.872l-1.115-1.587
	c0.698-0.39,1.361-0.53,1.988-0.421c0.632,0.104,1.314,0.522,2.043,1.255c0.663,0.663,1.076,1.232,1.244,1.716
	c0.168,0.479,0.195,0.904,0.082,1.274c-0.105,0.375-0.483,0.886-1.127,1.532l-1.75,1.716c-0.491,0.495-0.83,0.881-1.021,1.158
	c-0.183,0.284-0.343,0.627-0.476,1.033l-1.474-1.475c0.059-0.136,0.16-0.331,0.3-0.58c0.059-0.109,0.098-0.184,0.117-0.223
	c-0.495-0.012-0.955-0.102-1.372-0.269c-0.414-0.164-0.784-0.41-1.107-0.733c-0.581-0.581-0.881-1.197-0.9-1.844
	c-0.016-0.64,0.214-1.201,0.694-1.681c0.316-0.315,0.674-0.526,1.072-0.624c0.405-0.098,0.807-0.074,1.205,0.066
	c0.405,0.141,0.92,0.417,1.536,0.834c0.823,0.562,1.427,0.921,1.809,1.076l0.14-0.144c0.289-0.289,0.421-0.562,0.398-0.827
	c-0.016-0.265-0.218-0.589-0.604-0.979c-0.265-0.265-0.522-0.417-0.78-0.464C9.687,209.642,9.387,209.704,9.04,209.872z
	 M9.816,213.068c-0.253-0.124-0.632-0.351-1.135-0.674c-0.499-0.328-0.854-0.511-1.061-0.55c-0.335-0.055-0.604,0.023-0.814,0.229
	c-0.211,0.211-0.312,0.468-0.312,0.776c0.004,0.304,0.125,0.577,0.366,0.814c0.265,0.27,0.612,0.437,1.037,0.499
	c0.308,0.051,0.585,0.008,0.834-0.133c0.171-0.089,0.433-0.312,0.784-0.666L9.816,213.068z M10.042,218.683l7.75-7.746l1.485,1.485
	l-7.747,7.746L10.042,218.683z"/>
<path fill-opacity="0" d="M-84.226,6.037v178.781"/>
<path fill="none" stroke="#595959" stroke-linejoin="round" stroke-miterlimit="10" d="M-84.226,6.037v178.781"/>
<path fill-opacity="0" d="M5.165-83.354h178.781"/>
<path fill="none" stroke="#595959" stroke-linejoin="round" stroke-miterlimit="10" d="M5.165-83.354h178.781"/>
<path fill-opacity="0" d="M273.337,6.037v178.781"/>
<path fill="none" stroke="#595959" stroke-linejoin="round" stroke-miterlimit="10" d="M273.337,6.037v178.781"/>
<path fill-opacity="0" d="M183.946,274.209H5.165"/>
<path fill="none" stroke="#595959" stroke-linejoin="round" stroke-miterlimit="10" d="M183.946,274.209H5.165"/>
</svg>
