<?xml version="1.0" encoding="utf-8"?>
<!-- Generator: Adobe Illustrator 14.0.0, SVG Export Plug-In . SVG Version: 6.00 Build 43363)  -->
<!DOCTYPE svg PUBLIC "-//W3C//DTD SVG 1.1//EN" "http://www.w3.org/Graphics/SVG/1.1/DTD/svg11.dtd">
<svg version="1.1" id="Layer_1" xmlns="http://www.w3.org/2000/svg" xmlns:xlink="http://www.w3.org/1999/xlink" x="0px" y="0px"
	 width="380px" height="380px" viewBox="-95 -95 380 380" enable-background="new -95 -95 380 380" xml:space="preserve">
<g>
	<path fill="#FFFFFF" d="M-85,274.994l28.131-112.533l303.732,0.003l28.129,112.53H-85z"/>
	<path fill="none" stroke="#595959" stroke-linejoin="round" stroke-miterlimit="10" d="M-85,274.994l28.131-112.533l303.732,0.003
		l28.129,112.53H-85z"/>
	<path fill="#FF0000" fill-opacity="0.5" d="M-85,274.994l28.131-112.533l303.732,0.003l28.129,112.53H-85z"/>
	<path fill="none" stroke="#595959" stroke-linejoin="round" stroke-miterlimit="10" d="M-85,274.994l28.131-112.533l303.732,0.003
		l28.129,112.53H-85z"/>
	<path d="M50.988,231.226v-18.192h7.723c1.941,0,3.352,0.172,4.231,0.502c0.886,0.328,1.588,0.916,2.12,1.75
		c0.531,0.826,0.792,1.778,0.792,2.866c0,1.352-0.404,2.476-1.208,3.366c-0.801,0.891-1.996,1.454-3.585,1.688
		c0.793,0.464,1.442,0.976,1.95,1.524c0.518,0.549,1.218,1.526,2.101,2.944l2.217,3.552h-4.386l-2.663-3.957
		c-0.935-1.414-1.581-2.307-1.929-2.673c-0.342-0.364-0.715-0.609-1.111-0.744c-0.385-0.147-0.994-0.222-1.833-0.222h-0.744v7.596
		H50.988z M54.663,220.724h2.711c1.766,0,2.856-0.073,3.29-0.221c0.441-0.145,0.781-0.401,1.025-0.768
		c0.251-0.365,0.38-0.818,0.38-1.358c0-0.618-0.167-1.112-0.495-1.484c-0.325-0.377-0.784-0.61-1.373-0.712
		c-0.301-0.045-1.194-0.069-2.681-0.069h-2.858V220.724z M76.925,227.027l3.467,0.597c-0.45,1.271-1.16,2.236-2.129,2.906
		c-0.96,0.659-2.163,0.989-3.602,0.989c-2.297,0-3.989-0.744-5.081-2.247c-0.875-1.195-1.309-2.711-1.309-4.53
		c0-2.187,0.568-3.896,1.705-5.129c1.148-1.242,2.587-1.867,4.337-1.867c1.958,0,3.503,0.654,4.627,1.952
		c1.136,1.295,1.68,3.273,1.636,5.937h-8.731c0.024,1.038,0.305,1.843,0.843,2.418c0.543,0.573,1.208,0.854,2.002,0.854
		c0.551,0,1.009-0.146,1.374-0.44C76.435,228.161,76.724,227.687,76.925,227.027z M77.122,223.509
		c-0.033-1.015-0.302-1.771-0.796-2.283c-0.495-0.537-1.096-0.796-1.799-0.796c-0.765,0-1.394,0.271-1.889,0.821
		c-0.495,0.548-0.736,1.305-0.724,2.258H77.122z M85.87,231.226l-4.165-13.178h3.389l2.468,8.637l2.265-8.637h3.352l2.204,8.637
		l2.509-8.637h3.445L97.1,231.226h-3.341l-2.265-8.463l-2.228,8.463H85.87z M105.777,222.068l-3.159-0.563
		c0.355-1.28,0.96-2.22,1.822-2.833c0.871-0.611,2.167-0.918,3.883-0.918c1.555,0,2.716,0.189,3.472,0.561
		c0.764,0.357,1.296,0.836,1.606,1.407c0.307,0.564,0.466,1.604,0.466,3.104l-0.037,4.067c0,1.16,0.054,2.015,0.164,2.563
		c0.109,0.553,0.323,1.148,0.629,1.771h-3.454c-0.086-0.229-0.196-0.573-0.33-1.024c-0.054-0.207-0.1-0.341-0.135-0.414
		c-0.594,0.572-1.235,1.013-1.917,1.304c-0.673,0.295-1.387,0.429-2.151,0.429c-1.354,0-2.423-0.367-3.204-1.099
		c-0.781-0.745-1.179-1.674-1.179-2.797c0-0.743,0.177-1.405,0.532-1.989c0.353-0.573,0.848-1.027,1.488-1.332
		c0.649-0.316,1.578-0.586,2.779-0.819c1.631-0.304,2.759-0.585,3.388-0.854v-0.34c0-0.686-0.163-1.149-0.494-1.43
		c-0.33-0.282-0.951-0.43-1.868-0.43c-0.629,0-1.118,0.124-1.471,0.368C106.264,221.043,105.99,221.456,105.777,222.068z
		 M110.44,224.901c-0.451,0.146-1.16,0.328-2.129,0.536c-0.96,0.197-1.59,0.405-1.889,0.601c-0.452,0.327-0.678,0.743-0.678,1.23
		c0,0.491,0.184,0.916,0.543,1.26c0.367,0.355,0.832,0.538,1.395,0.538c0.629,0,1.218-0.208,1.782-0.611
		c0.433-0.329,0.715-0.707,0.842-1.161c0.09-0.305,0.134-0.867,0.134-1.71V224.901z M120.632,231.226h-3.487v-13.173h3.238v1.878
		c0.557-0.891,1.051-1.479,1.488-1.748c0.453-0.289,0.96-0.429,1.521-0.429c0.793,0,1.557,0.221,2.283,0.659l-1.074,3.043
		c-0.588-0.389-1.131-0.585-1.638-0.585c-0.487,0-0.896,0.146-1.24,0.416c-0.34,0.267-0.609,0.758-0.81,1.453
		c-0.19,0.707-0.282,2.187-0.282,4.421V231.226z M139.261,231.226h-3.234v-1.929c-0.546,0.746-1.182,1.307-1.905,1.688
		c-0.729,0.364-1.467,0.535-2.219,0.535c-1.508,0-2.802-0.597-3.884-1.806c-1.079-1.235-1.624-2.933-1.624-5.118
		c0-2.235,0.525-3.933,1.575-5.093c1.058-1.169,2.388-1.749,3.981-1.749c1.479,0,2.754,0.61,3.822,1.834v-6.547h3.487V231.226z
		 M129.957,224.351c0,1.406,0.195,2.431,0.592,3.054c0.56,0.903,1.341,1.356,2.351,1.356c0.807,0,1.488-0.331,2.053-1.001
		c0.56-0.685,0.842-1.709,0.842-3.066c0-1.514-0.274-2.612-0.83-3.274c-0.539-0.657-1.235-0.989-2.084-0.989
		c-0.822,0-1.52,0.332-2.081,0.989C130.238,222.068,129.957,223.045,129.957,224.351z"/>
	<path d="M-7.119,255.139l2.75-13.128h8.528l-0.311,1.515h-6.783l-0.862,4.162h6.901l-0.318,1.504h-6.894l-1.258,5.947H-7.119z
		 M10.846,251.914l1.587,0.16c-0.232,0.781-0.751,1.523-1.57,2.222c-0.81,0.708-1.783,1.061-2.911,1.061
		c-0.703,0-1.356-0.155-1.949-0.475c-0.585-0.331-1.031-0.806-1.337-1.431c-0.311-0.621-0.462-1.329-0.462-2.123
		c0-1.037,0.237-2.04,0.725-3.016c0.482-0.977,1.107-1.71,1.871-2.188c0.757-0.464,1.587-0.707,2.478-0.707
		c1.136,0,2.04,0.353,2.71,1.063c0.683,0.708,1.026,1.661,1.026,2.882c0,0.451-0.042,0.94-0.128,1.428H5.888
		c-0.032,0.195-0.049,0.355-0.049,0.503c0,0.89,0.201,1.574,0.61,2.051c0.421,0.463,0.923,0.696,1.503,0.696
		c0.568,0,1.112-0.184,1.643-0.551C10.131,253.124,10.552,252.597,10.846,251.914z M6.138,249.557h5.337
		c0.013-0.169,0.018-0.292,0.018-0.365c0-0.806-0.2-1.418-0.61-1.855c-0.409-0.441-0.935-0.662-1.569-0.662
		c-0.696,0-1.333,0.245-1.905,0.734C6.845,247.884,6.424,248.591,6.138,249.557z M21.049,251.914l1.586,0.16
		c-0.232,0.781-0.756,1.523-1.574,2.222c-0.813,0.708-1.783,1.061-2.907,1.061c-0.708,0-1.356-0.155-1.955-0.475
		c-0.58-0.331-1.033-0.806-1.336-1.431c-0.311-0.621-0.465-1.329-0.465-2.123c0-1.037,0.245-2.04,0.727-3.016
		c0.487-0.977,1.111-1.71,1.868-2.188c0.764-0.464,1.587-0.707,2.479-0.707c1.135,0,2.04,0.353,2.717,1.063
		c0.683,0.708,1.026,1.661,1.026,2.882c0,0.451-0.049,0.94-0.135,1.428h-6.998c-0.029,0.195-0.047,0.355-0.047,0.503
		c0,0.89,0.206,1.574,0.61,2.051c0.421,0.463,0.921,0.696,1.508,0.696c0.561,0,1.104-0.184,1.636-0.551
		C20.329,253.124,20.75,252.597,21.049,251.914z M16.336,249.557h5.343c0.005-0.169,0.013-0.292,0.013-0.365
		c0-0.806-0.203-1.418-0.612-1.855c-0.409-0.441-0.929-0.662-1.57-0.662c-0.696,0-1.33,0.245-1.905,0.734
		C17.043,247.884,16.622,248.591,16.336,249.557z M24.139,255.139l2.741-13.128h1.626l-2.748,13.128H24.139z M33.67,251.207
		l0.35-1.626h4.939l-0.332,1.626H33.67z M45.319,250.889l1.716-0.146l-0.017,0.451c0,0.501,0.116,0.978,0.348,1.403
		c0.233,0.417,0.618,0.747,1.161,0.979c0.536,0.219,1.177,0.33,1.917,0.33c1.05,0,1.849-0.233,2.399-0.684
		c0.549-0.466,0.823-0.989,0.823-1.59c0-0.401-0.14-0.781-0.426-1.123c-0.299-0.328-1.119-0.781-2.448-1.354
		c-1.038-0.452-1.741-0.794-2.121-1.038c-0.59-0.392-1.03-0.806-1.305-1.259c-0.274-0.463-0.409-0.988-0.409-1.574
		c0-0.67,0.177-1.271,0.544-1.819c0.371-0.538,0.916-0.953,1.616-1.234c0.722-0.293,1.528-0.428,2.418-0.428
		c1.068,0,1.966,0.184,2.694,0.539c0.738,0.354,1.276,0.829,1.606,1.428c0.341,0.599,0.512,1.16,0.512,1.699
		c0,0.061-0.005,0.146-0.017,0.267l-1.688,0.147c0-0.379-0.028-0.659-0.097-0.88c-0.121-0.353-0.311-0.671-0.561-0.916
		c-0.258-0.256-0.605-0.451-1.044-0.597c-0.427-0.16-0.918-0.232-1.454-0.232c-0.957,0-1.705,0.207-2.235,0.646
		c-0.408,0.331-0.61,0.759-0.61,1.307c0,0.319,0.079,0.599,0.25,0.855c0.166,0.257,0.465,0.502,0.903,0.744
		c0.312,0.172,1.045,0.527,2.207,1.039c0.944,0.428,1.599,0.743,1.963,0.977c0.477,0.317,0.837,0.708,1.094,1.159
		c0.25,0.454,0.377,0.967,0.377,1.54c0,0.709-0.213,1.354-0.647,1.966c-0.426,0.599-1.025,1.062-1.801,1.393
		c-0.756,0.33-1.628,0.487-2.613,0.487c-1.484,0-2.699-0.315-3.639-0.965C45.802,253.745,45.326,252.585,45.319,250.889z
		 M63.853,251.914l1.586,0.16c-0.232,0.781-0.757,1.523-1.574,2.222c-0.813,0.708-1.783,1.061-2.906,1.061
		c-0.708,0-1.357-0.155-1.954-0.475c-0.588-0.331-1.034-0.806-1.338-1.431c-0.313-0.621-0.465-1.329-0.465-2.123
		c0-1.037,0.246-2.04,0.728-3.016c0.482-0.977,1.112-1.71,1.868-2.188c0.764-0.464,1.587-0.707,2.479-0.707
		c1.136,0,2.04,0.353,2.713,1.063c0.683,0.708,1.025,1.661,1.025,2.882c0,0.451-0.044,0.94-0.13,1.428h-6.998
		c-0.029,0.195-0.049,0.355-0.049,0.503c0,0.89,0.204,1.574,0.612,2.051c0.421,0.463,0.921,0.696,1.509,0.696
		c0.56,0,1.104-0.184,1.636-0.551C63.133,253.124,63.554,252.597,63.853,251.914z M59.14,249.557h5.342
		c0.005-0.169,0.013-0.292,0.013-0.365c0-0.806-0.203-1.418-0.613-1.855c-0.409-0.441-0.932-0.662-1.569-0.662
		c-0.696,0-1.331,0.245-1.905,0.734C59.847,247.884,59.426,248.591,59.14,249.557z M74.048,251.914l1.589,0.16
		c-0.233,0.781-0.76,1.523-1.569,2.222c-0.818,0.708-1.791,1.061-2.914,1.061c-0.708,0-1.354-0.155-1.954-0.475
		c-0.581-0.331-1.025-0.806-1.337-1.431c-0.304-0.621-0.463-1.329-0.463-2.123c0-1.037,0.243-2.04,0.725-3.016
		c0.49-0.977,1.111-1.71,1.869-2.188c0.764-0.464,1.589-0.707,2.486-0.707c1.135,0,2.04,0.353,2.712,1.063
		c0.683,0.708,1.026,1.661,1.026,2.882c0,0.451-0.05,0.94-0.136,1.428h-6.997c-0.032,0.195-0.05,0.355-0.05,0.503
		c0,0.89,0.208,1.574,0.619,2.051c0.413,0.463,0.916,0.696,1.5,0.696c0.563,0,1.107-0.184,1.638-0.551
		C73.335,253.124,73.75,252.597,74.048,251.914z M69.335,249.557h5.342c0.013-0.169,0.02-0.292,0.02-0.365
		c0-0.806-0.208-1.418-0.617-1.855c-0.404-0.441-0.928-0.662-1.57-0.662c-0.695,0-1.324,0.245-1.9,0.734
		C70.05,247.884,69.621,248.591,69.335,249.557z M82.599,251.207l0.348-1.626h4.938l-0.33,1.626H82.599z M93.767,255.139
		l2.747-13.117h1.751l-1.305,6.315l7.126-6.315h2.461l-6.101,5.339l4.464,7.79h-1.95l-3.785-6.653l-2.747,2.379l-0.91,4.263H93.767z
		 M105.802,255.15l1.982-9.515h1.472l-0.348,1.65c0.642-0.648,1.234-1.123,1.783-1.417c0.556-0.292,1.123-0.451,1.704-0.451
		c0.776,0,1.373,0.218,1.8,0.634c0.448,0.417,0.666,0.977,0.666,1.673c0,0.354-0.078,0.904-0.23,1.663l-1.21,5.763h-1.618
		l1.271-6.02c0.122-0.585,0.182-1.027,0.182-1.309c0-0.314-0.108-0.573-0.328-0.756c-0.221-0.209-0.539-0.307-0.939-0.307
		c-0.831,0-1.57,0.307-2.217,0.893c-0.654,0.599-1.131,1.625-1.423,3.064l-0.931,4.434H105.802z M116.279,251.535
		c0-1.856,0.543-3.394,1.635-4.604c0.904-1.002,2.089-1.514,3.556-1.514c1.146,0,2.069,0.364,2.765,1.075
		c0.702,0.721,1.058,1.685,1.058,2.895c0,1.099-0.221,2.11-0.661,3.063c-0.445,0.941-1.068,1.662-1.886,2.161
		c-0.816,0.503-1.675,0.744-2.583,0.744c-0.732,0-1.41-0.145-2.015-0.463c-0.605-0.318-1.068-0.756-1.387-1.331
		C116.437,252.977,116.279,252.307,116.279,251.535z M117.898,251.378c0,0.891,0.217,1.574,0.646,2.037
		c0.43,0.453,0.978,0.686,1.636,0.686c0.354,0,0.698-0.061,1.025-0.195c0.343-0.147,0.661-0.355,0.94-0.646
		c0.301-0.282,0.556-0.612,0.764-0.977c0.209-0.368,0.372-0.772,0.495-1.186c0.188-0.601,0.282-1.161,0.282-1.709
		c0-0.855-0.221-1.528-0.662-1.991c-0.426-0.478-0.969-0.723-1.616-0.723c-0.507,0-0.972,0.123-1.393,0.368
		c-0.416,0.244-0.802,0.597-1.142,1.062c-0.33,0.464-0.58,1.002-0.747,1.624C117.976,250.34,117.898,250.889,117.898,251.378z
		 M128.003,255.15l-0.996-9.515h1.558l0.427,4.263l0.185,2.408c0.012,0.181,0.025,0.549,0.049,1.086
		c0.176-0.599,0.323-1.063,0.445-1.393c0.132-0.33,0.336-0.793,0.609-1.405l2.265-4.959h1.754l0.318,4.753
		c0.054,0.721,0.083,1.686,0.095,2.895c0.302-0.796,0.784-1.905,1.455-3.322l2.053-4.325h1.623l-4.665,9.515h-1.672l-0.36-5.583
		c-0.024-0.352-0.045-1.021-0.05-2.024c-0.244,0.635-0.538,1.33-0.881,2.062l-2.508,5.546H128.003z M144.77,251.207l0.348-1.614
		h4.938l-0.33,1.614H144.77z M155.901,255.15l2.747-13.129h1.734l-1.125,5.448h6.798l1.142-5.448h1.753l-2.742,13.129h-1.753
		l1.288-6.191h-6.796l-1.288,6.191H155.901z M175.397,253.978c-0.562,0.464-1.105,0.818-1.637,1.052
		c-0.519,0.22-1.069,0.327-1.655,0.327c-0.878,0-1.594-0.255-2.13-0.769c-0.531-0.523-0.795-1.183-0.795-1.991
		c0-0.522,0.121-1.001,0.362-1.403c0.241-0.403,0.561-0.73,0.956-0.977c0.398-0.256,0.893-0.428,1.472-0.551
		c0.367-0.062,1.056-0.109,2.069-0.156c1.015-0.049,1.741-0.16,2.183-0.33c0.134-0.442,0.199-0.807,0.199-1.101
		c0-0.366-0.139-0.671-0.415-0.891c-0.372-0.294-0.922-0.44-1.652-0.44c-0.674,0-1.23,0.146-1.668,0.466
		c-0.43,0.294-0.744,0.72-0.94,1.27l-1.643-0.146c0.335-0.94,0.861-1.663,1.586-2.15c0.734-0.514,1.643-0.769,2.75-0.769
		c1.178,0,2.11,0.278,2.797,0.854c0.523,0.414,0.792,0.953,0.792,1.611c0,0.515-0.079,1.1-0.231,1.771l-0.532,2.371
		c-0.163,0.743-0.249,1.355-0.249,1.831c0,0.292,0.066,0.731,0.201,1.294h-1.637C175.487,254.833,175.427,254.441,175.397,253.978z
		 M175.994,250.34c-0.229,0.086-0.482,0.146-0.744,0.193c-0.258,0.049-0.683,0.098-1.293,0.147c-0.946,0.084-1.614,0.195-1.999,0.33
		c-0.383,0.122-0.677,0.33-0.878,0.609c-0.196,0.281-0.299,0.588-0.299,0.928c0,0.454,0.16,0.833,0.463,1.124
		c0.323,0.294,0.777,0.429,1.355,0.429c0.532,0,1.045-0.135,1.539-0.403c0.495-0.292,0.891-0.684,1.18-1.198
		C175.597,252,175.825,251.268,175.994,250.34z M181.576,255.15l-1.552-9.515h1.57l0.812,5.24c0.086,0.576,0.197,1.516,0.329,2.796
		c0.306-0.67,0.702-1.439,1.192-2.307l3.193-5.729h1.703l-5.439,9.515H181.576z M195.328,251.927l1.588,0.147
		c-0.233,0.781-0.754,1.523-1.57,2.234c-0.817,0.695-1.79,1.048-2.914,1.048c-0.7,0-1.354-0.155-1.946-0.475
		c-0.585-0.331-1.031-0.806-1.345-1.418c-0.304-0.634-0.464-1.342-0.464-2.136c0-1.037,0.246-2.04,0.733-3.016
		c0.482-0.977,1.104-1.7,1.868-2.175c0.756-0.477,1.589-0.72,2.479-0.72c1.134,0,2.041,0.353,2.712,1.063
		c0.682,0.708,1.024,1.661,1.024,2.882c0,0.464-0.044,0.94-0.134,1.44h-6.99c-0.037,0.183-0.049,0.343-0.049,0.49
		c0,0.89,0.2,1.574,0.61,2.051c0.416,0.463,0.921,0.696,1.5,0.696c0.563,0,1.112-0.184,1.638-0.551
		C194.613,253.124,195.026,252.609,195.328,251.927z M190.612,249.557h5.342c0.013-0.169,0.021-0.279,0.021-0.365
		c0-0.806-0.208-1.418-0.612-1.844c-0.408-0.453-0.933-0.674-1.574-0.674c-0.69,0-1.325,0.245-1.898,0.734
		C191.327,247.884,190.901,248.591,190.612,249.557z"/>
	<path fill="#FFFFFF" d="M-85,186.202l28.131-112.531l303.732,0.002l28.129,112.532L-85,186.202z"/>
	<path fill="none" stroke="#595959" stroke-linejoin="round" stroke-miterlimit="10" d="M-85,186.202l28.131-112.531l303.732,0.002
		l28.129,112.532L-85,186.202z"/>
	<path fill="#FF9900" fill-opacity="0.4583" d="M-85,186.202l28.131-112.531l303.732,0.002l28.129,112.532L-85,186.202z"/>
	<path fill="none" stroke="#595959" stroke-linejoin="round" stroke-miterlimit="10" d="M-85,186.202l28.131-112.531l303.732,0.002
		l28.129,112.532L-85,186.202z"/>
	<path d="M34.183,142.435h-3.981l-1.587-4.137h-7.279l-1.489,4.137h-3.903l7.076-18.19h3.891L34.183,142.435z M27.435,135.24
		l-2.509-6.746l-2.449,6.746H27.435z M48.094,142.435h-3.486v-6.729c0-1.424-0.081-2.339-0.233-2.745
		c-0.14-0.419-0.385-0.747-0.728-0.978c-0.33-0.232-0.726-0.346-1.19-0.346c-0.604,0-1.153,0.165-1.636,0.495
		c-0.478,0.328-0.8,0.771-0.977,1.322c-0.178,0.539-0.264,1.545-0.264,3.01v5.97h-3.493v-13.179h3.242v1.936
		c1.149-1.489,2.589-2.234,4.337-2.234c0.769,0,1.472,0.145,2.098,0.432c0.637,0.274,1.124,0.629,1.456,1.061
		c0.33,0.425,0.556,0.917,0.678,1.471c0.134,0.539,0.195,1.315,0.195,2.329V142.435z M57.672,129.256v2.78h-2.38v5.305
		c0,1.08,0.024,1.71,0.066,1.886c0.042,0.177,0.147,0.326,0.299,0.448c0.167,0.107,0.36,0.163,0.593,0.163
		c0.323,0,0.788-0.108,1.411-0.33l0.292,2.695c-0.812,0.354-1.733,0.529-2.758,0.529c-0.63,0-1.199-0.105-1.705-0.316
		c-0.495-0.21-0.867-0.477-1.105-0.807c-0.231-0.343-0.396-0.802-0.482-1.374c-0.081-0.409-0.117-1.225-0.117-2.449v-5.75H50.18
		v-2.78h1.606v-2.612l3.506-2.032v4.645H57.672z M67.716,138.234l3.475,0.596c-0.451,1.268-1.161,2.238-2.13,2.911
		c-0.959,0.661-2.162,0.991-3.61,0.991c-2.289,0-3.98-0.751-5.073-2.25c-0.875-1.199-1.307-2.711-1.307-4.529
		c0-2.184,0.568-3.892,1.703-5.127c1.148-1.247,2.589-1.869,4.337-1.869c1.958,0,3.503,0.65,4.627,1.952
		c1.136,1.29,1.681,3.269,1.636,5.938h-8.731c0.025,1.036,0.307,1.842,0.842,2.414c0.543,0.571,1.21,0.859,2.003,0.859
		c0.551,0,1.008-0.151,1.373-0.445C67.234,139.373,67.523,138.896,67.716,138.234z M67.92,134.712
		c-0.031-1.005-0.302-1.764-0.796-2.28c-0.495-0.531-1.096-0.794-1.799-0.794c-0.763,0-1.393,0.274-1.887,0.823
		c-0.495,0.554-0.74,1.304-0.728,2.251H67.92z M85.698,133.159l-3.437,0.61c-0.111-0.684-0.378-1.198-0.793-1.536
		c-0.409-0.355-0.941-0.531-1.586-0.531c-0.875,0-1.57,0.306-2.09,0.91c-0.507,0.596-0.756,1.592-0.756,2.991
		c0,1.566,0.254,2.676,0.774,3.323c0.531,0.643,1.233,0.961,2.121,0.961c0.659,0,1.202-0.187,1.618-0.563
		c0.434-0.376,0.725-1.02,0.891-1.936l3.426,0.581c-0.355,1.564-1.038,2.749-2.051,3.555c-1.002,0.804-2.352,1.207-4.051,1.207
		c-1.917,0-3.45-0.606-4.596-1.819c-1.147-1.224-1.723-2.911-1.723-5.059c0-2.174,0.576-3.865,1.723-5.078
		c1.146-1.212,2.699-1.819,4.665-1.819c1.607,0,2.882,0.348,3.815,1.041C84.594,130.696,85.277,131.749,85.698,133.159z
		 M95.97,138.234l3.475,0.601c-0.453,1.263-1.16,2.233-2.132,2.906c-0.959,0.664-2.161,0.993-3.608,0.991
		c-2.292,0-3.981-0.751-5.075-2.25c-0.873-1.199-1.306-2.711-1.306-4.529c0-2.184,0.568-3.892,1.702-5.127
		c1.149-1.247,2.59-1.869,4.336-1.869c1.96,0.003,3.505,0.65,4.628,1.952c1.137,1.293,1.68,3.271,1.636,5.939l-8.732-0.002
		c0.025,1.036,0.307,1.842,0.846,2.414c0.543,0.571,1.206,0.859,2.002,0.859c0.549,0,1.007-0.151,1.374-0.443
		C95.487,139.378,95.773,138.896,95.97,138.234z M96.172,134.712c-0.038-1.003-0.299-1.764-0.794-2.277
		c-0.494-0.534-1.099-0.797-1.803-0.797c-0.761,0-1.391,0.274-1.885,0.823c-0.495,0.554-0.739,1.304-0.726,2.251H96.172z
		 M114.545,142.437h-3.237v-1.932c-0.543,0.746-1.177,1.31-1.905,1.685c-0.727,0.362-1.466,0.545-2.215,0.545
		c-1.508,0-2.804-0.608-3.883-1.818c-1.083-1.227-1.626-2.931-1.626-5.11c0-2.24,0.525-3.939,1.575-5.093
		c1.056-1.173,2.388-1.753,3.982-1.753c1.477,0,2.753,0.614,3.822,1.836v-6.55h3.486V142.437z M105.238,135.557
		c0,1.41,0.195,2.429,0.593,3.058c0.563,0.903,1.345,1.354,2.35,1.354c0.806,0.005,1.484-0.331,2.052-1.004
		c0.564-0.684,0.843-1.702,0.843-3.059c0-1.521-0.274-2.612-0.829-3.273c-0.536-0.661-1.234-0.992-2.081-0.992
		c-0.826,0-1.521,0.331-2.084,0.989C105.519,133.283,105.238,134.254,105.238,135.557z M125.614,138.24l3.476,0.595
		c-0.453,1.266-1.168,2.237-2.139,2.908c-0.959,0.662-2.161,0.991-3.601,0.991c-2.297,0-3.989-0.75-5.082-2.249
		c-0.865-1.2-1.307-2.711-1.307-4.53c0-2.185,0.568-3.891,1.704-5.127c1.149-1.244,2.596-1.868,4.333-1.868
		c1.963,0,3.508,0.65,4.632,1.952c1.136,1.29,1.684,3.268,1.636,5.937h-8.732c0.025,1.036,0.306,1.842,0.85,2.415
		c0.537,0.572,1.202,0.858,1.996,0.858c0.548,0,1.009-0.148,1.374-0.445C125.126,139.378,125.412,138.898,125.614,138.24z
		 M125.811,134.717c-0.032-1.008-0.294-1.766-0.796-2.282c-0.495-0.532-1.093-0.794-1.801-0.794c-0.758,0-1.386,0.274-1.888,0.825
		c-0.494,0.551-0.738,1.301-0.727,2.251H125.811z M144.092,142.437h-3.494v-6.729c0-1.423-0.078-2.339-0.23-2.745
		c-0.142-0.419-0.386-0.744-0.726-0.977c-0.332-0.232-0.729-0.346-1.191-0.346c-0.604,0-1.155,0.164-1.638,0.495
		c-0.476,0.33-0.799,0.771-0.978,1.321c-0.176,0.542-0.262,1.546-0.262,3.01v5.97h-3.491v-13.176h3.242v1.932
		c1.147-1.485,2.587-2.232,4.333-2.232c0.771,0,1.472,0.145,2.102,0.432c0.634,0.273,1.124,0.629,1.455,1.06
		c0.327,0.426,0.555,0.918,0.675,1.472c0.134,0.538,0.203,1.315,0.203,2.328V142.437z M159.107,133.161l-3.439,0.609
		c-0.109-0.683-0.371-1.194-0.792-1.535c-0.41-0.352-0.936-0.531-1.59-0.531c-0.872,0-1.563,0.307-2.081,0.911
		c-0.507,0.595-0.765,1.595-0.765,2.992c0,1.564,0.263,2.674,0.776,3.325c0.532,0.64,1.239,0.958,2.118,0.958
		c0.661,0,1.202-0.187,1.626-0.562c0.426-0.377,0.725-1.021,0.893-1.937l3.417,0.58c-0.349,1.566-1.03,2.75-2.044,3.558
		c-1.009,0.804-2.358,1.204-4.056,1.204c-1.917,0-3.449-0.606-4.598-1.818c-1.149-1.225-1.723-2.909-1.723-5.059
		c0-2.174,0.573-3.866,1.723-5.079c1.148-1.212,2.698-1.818,4.664-1.818c1.606,0,2.882,0.348,3.818,1.04
		C158.007,130.698,158.69,131.751,159.107,133.161z M169.383,138.24l3.468,0.595c-0.45,1.266-1.161,2.237-2.131,2.908
		c-0.959,0.662-2.161,0.991-3.602,0.991c-2.296,0-3.988-0.75-5.081-2.249c-0.867-1.2-1.307-2.711-1.307-4.53
		c0-2.185,0.568-3.891,1.703-5.127c1.148-1.244,2.596-1.868,4.334-1.868c1.961,0,3.506,0.65,4.63,1.952
		c1.134,1.29,1.679,3.268,1.637,5.937h-8.731c0.025,1.036,0.306,1.842,0.842,2.415c0.543,0.572,1.21,0.858,2.004,0.858
		c0.548,0,1.005-0.148,1.372-0.445C168.893,139.378,169.18,138.898,169.383,138.24z M169.579,134.717
		c-0.031-1.008-0.302-1.766-0.796-2.282c-0.495-0.532-1.092-0.794-1.8-0.794c-0.764,0-1.386,0.274-1.888,0.825
		c-0.494,0.551-0.74,1.301-0.727,2.251H169.579z"/>
	<path d="M-41.805,166.354l2.747-13.132h5.47c0.953,0,1.661,0.11,2.138,0.33c0.47,0.223,0.859,0.595,1.173,1.126
		c0.316,0.529,0.482,1.117,0.482,1.768c0,0.54-0.117,1.094-0.335,1.656c-0.22,0.562-0.502,1.026-0.845,1.388
		c-0.328,0.362-0.671,0.637-1.026,0.827c-0.34,0.187-0.708,0.324-1.104,0.413c-0.837,0.197-1.685,0.298-2.547,0.298h-3.29
		l-1.112,5.326H-41.805z M-38.632,159.539h2.894c1.124,0,1.95-0.122,2.469-0.364c0.523-0.239,0.944-0.61,1.255-1.106
		c0.318-0.495,0.478-1.021,0.478-1.569c0-0.432-0.079-0.778-0.245-1.044c-0.171-0.277-0.402-0.479-0.715-0.612
		c-0.299-0.13-0.879-0.197-1.75-0.197h-3.36L-38.632,159.539z M-29.754,166.354l1.986-9.51h1.435l-0.409,1.933
		c0.495-0.724,0.977-1.266,1.435-1.62c0.476-0.351,0.958-0.525,1.44-0.525c0.318,0,0.715,0.113,1.19,0.347l-0.659,1.503
		c-0.282-0.2-0.585-0.298-0.928-0.298c-0.562,0-1.141,0.314-1.734,0.945c-0.6,0.626-1.07,1.76-1.41,3.403l-0.806,3.822H-29.754z
		 M-16.669,163.13l1.589,0.146c-0.232,0.782-0.758,1.525-1.569,2.23c-0.82,0.71-1.791,1.061-2.914,1.061
		c-0.708,0-1.354-0.16-1.954-0.48c-0.581-0.328-1.026-0.806-1.337-1.422c-0.311-0.63-0.463-1.34-0.463-2.133
		c0-1.035,0.242-2.04,0.725-3.007c0.49-0.984,1.112-1.712,1.868-2.185c0.764-0.475,1.589-0.709,2.485-0.709
		c1.137,0,2.04,0.35,2.711,1.058c0.685,0.704,1.026,1.664,1.026,2.877c0,0.462-0.049,0.942-0.132,1.438h-6.998
		c-0.032,0.188-0.049,0.355-0.049,0.497c0,0.891,0.208,1.575,0.61,2.048c0.421,0.464,0.923,0.696,1.508,0.696
		c0.563,0,1.104-0.184,1.636-0.547C-17.388,164.336-16.967,163.811-16.669,163.13z M-21.382,160.764h5.342
		c0.012-0.167,0.012-0.286,0.012-0.365c0-0.804-0.201-1.422-0.61-1.85c-0.409-0.441-0.927-0.665-1.569-0.665
		c-0.698,0-1.332,0.245-1.9,0.731C-20.674,159.087-21.095,159.805-21.382,160.764z M-6.886,162.879l1.623,0.185
		c-0.409,1.178-0.989,2.059-1.733,2.642c-0.752,0.575-1.606,0.862-2.564,0.862c-1.026,0-1.863-0.33-2.517-0.992
		c-0.639-0.672-0.958-1.607-0.958-2.811c0-1.036,0.201-2.057,0.61-3.062c0.421-1.001,1.009-1.76,1.771-2.279
		c0.771-0.528,1.655-0.792,2.644-0.792c1.014,0,1.819,0.286,2.419,0.856c0.592,0.572,0.891,1.34,0.891,2.299l-1.589,0.102
		c-0.01-0.609-0.189-1.076-0.529-1.407c-0.343-0.341-0.796-0.511-1.357-0.511c-0.646,0-1.209,0.2-1.685,0.609
		c-0.477,0.408-0.85,1.035-1.124,1.885c-0.274,0.84-0.417,1.646-0.417,2.414c0,0.816,0.179,1.429,0.532,1.834
		c0.36,0.397,0.813,0.596,1.336,0.596c0.532,0,1.034-0.198,1.508-0.596C-7.54,164.317-7.16,163.707-6.886,162.879z M2.699,163.13
		l1.589,0.146c-0.232,0.782-0.759,1.525-1.569,2.23c-0.818,0.71-1.791,1.061-2.914,1.061c-0.708,0-1.354-0.16-1.954-0.48
		c-0.581-0.328-1.026-0.806-1.337-1.422c-0.312-0.63-0.463-1.34-0.463-2.133c0-1.035,0.242-2.04,0.724-3.007
		c0.49-0.984,1.112-1.712,1.869-2.185c0.764-0.475,1.589-0.709,2.485-0.709c1.136,0,2.04,0.35,2.713,1.058
		c0.683,0.704,1.023,1.664,1.023,2.877c0,0.462-0.047,0.942-0.133,1.438h-6.998c-0.032,0.188-0.049,0.355-0.049,0.497
		c0,0.891,0.208,1.575,0.618,2.048c0.414,0.464,0.916,0.696,1.5,0.696c0.563,0,1.107-0.184,1.638-0.547
		C1.985,164.336,2.401,163.811,2.699,163.13z M-2.013,160.764h5.342c0.013-0.167,0.02-0.286,0.02-0.365
		c0-0.804-0.208-1.422-0.617-1.85c-0.408-0.441-0.927-0.665-1.569-0.665c-0.696,0-1.332,0.245-1.9,0.731
		C-1.306,159.087-1.727,159.805-2.013,160.764z M12.335,164.98c-0.928,1.058-1.893,1.587-2.907,1.587c-0.908,0-1.66-0.33-2.27-0.992
		c-0.592-0.672-0.892-1.644-0.892-2.909c0-1.157,0.238-2.211,0.713-3.16c0.482-0.957,1.082-1.675,1.785-2.151
		c0.72-0.484,1.436-0.723,2.147-0.723c1.181,0,2.077,0.567,2.681,1.701l1.075-5.11h1.606l-2.729,13.132h-1.509L12.335,164.98z
		 M7.891,162.364c0,0.665,0.061,1.189,0.195,1.575c0.135,0.375,0.353,0.688,0.659,0.943c0.323,0.251,0.703,0.376,1.141,0.376
		c0.739,0,1.41-0.376,2.003-1.14c0.805-1.015,1.209-2.265,1.209-3.751c0-0.753-0.2-1.335-0.598-1.753
		c-0.396-0.432-0.89-0.645-1.491-0.645c-0.385,0-0.732,0.086-1.055,0.262c-0.318,0.167-0.642,0.458-0.96,0.876
		c-0.304,0.409-0.573,0.93-0.793,1.572C7.993,161.319,7.891,161.88,7.891,162.364z M23.101,163.13l1.586,0.146
		c-0.233,0.782-0.757,1.525-1.575,2.23c-0.813,0.71-1.782,1.061-2.906,1.061c-0.71,0-1.357-0.16-1.954-0.48
		c-0.587-0.328-1.033-0.806-1.336-1.422c-0.314-0.63-0.465-1.34-0.465-2.133c0-1.035,0.244-2.04,0.728-3.007
		c0.482-0.984,1.104-1.712,1.868-2.185c0.764-0.475,1.586-0.709,2.478-0.709c1.136,0,2.04,0.35,2.713,1.058
		c0.683,0.704,1.026,1.664,1.026,2.877c0,0.462-0.044,0.942-0.13,1.438h-6.998c-0.03,0.188-0.049,0.355-0.049,0.497
		c0,0.891,0.203,1.575,0.612,2.048c0.421,0.464,0.921,0.696,1.508,0.696c0.561,0,1.105-0.184,1.635-0.547
		C22.379,164.336,22.802,163.811,23.101,163.13z M18.387,160.764h5.336c0.012-0.167,0.02-0.286,0.02-0.365
		c0-0.804-0.203-1.422-0.612-1.85c-0.408-0.441-0.933-0.665-1.569-0.665c-0.695,0-1.33,0.245-1.905,0.731
		C19.095,159.087,18.674,159.805,18.387,160.764z M36.742,162.42l0.348-1.621h4.938L41.7,162.42H36.742z M48.77,160.862
		c0-2.349,0.678-4.244,2.034-5.688c1.354-1.444,2.992-2.164,4.909-2.164c1.641,0,2.98,0.533,4.006,1.601
		c1.031,1.061,1.55,2.483,1.55,4.271c0,1.276-0.257,2.464-0.776,3.553c-0.396,0.828-0.891,1.538-1.488,2.133
		c-0.581,0.586-1.209,1.043-1.889,1.371c-0.891,0.432-1.836,0.65-2.838,0.65c-1.062,0-2.022-0.253-2.882-0.748
		c-0.854-0.507-1.515-1.208-1.965-2.099C48.989,162.836,48.77,161.877,48.77,160.862z M50.506,160.948
		c0,0.769,0.157,1.479,0.482,2.13c0.316,0.641,0.793,1.141,1.422,1.505c0.634,0.363,1.305,0.547,1.997,0.547
		c0.67,0,1.312-0.16,1.917-0.48c0.622-0.32,1.165-0.766,1.643-1.339c0.482-0.575,0.859-1.273,1.136-2.101
		c0.279-0.837,0.414-1.658,0.414-2.463c0-1.304-0.365-2.337-1.104-3.109c-0.728-0.781-1.631-1.177-2.699-1.177
		c-1.373,0-2.59,0.59-3.641,1.771C51.03,157.402,50.506,158.973,50.506,160.948z M61.976,166.354l2.743-13.132h1.623l-0.977,4.695
		c0.507-0.475,0.973-0.802,1.387-0.99c0.421-0.202,0.854-0.296,1.308-0.296c0.892,0,1.63,0.327,2.216,0.991
		c0.599,0.658,0.891,1.623,0.891,2.895c0,0.834-0.115,1.608-0.36,2.313c-0.232,0.695-0.523,1.279-0.878,1.753
		c-0.348,0.473-0.715,0.855-1.088,1.142c-0.378,0.287-0.764,0.495-1.16,0.63c-0.385,0.142-0.762,0.213-1.122,0.213
		c-0.629,0-1.185-0.165-1.675-0.495c-0.469-0.332-0.842-0.839-1.104-1.523l-0.38,1.806H61.976z M64.371,162.448l-0.011,0.299
		c0,0.815,0.188,1.44,0.572,1.869c0.397,0.419,0.887,0.629,1.46,0.629c0.576,0,1.094-0.198,1.57-0.596
		c0.478-0.396,0.861-1.014,1.16-1.854c0.306-0.848,0.458-1.623,0.458-2.331c0-0.803-0.189-1.427-0.576-1.867
		c-0.39-0.441-0.86-0.662-1.423-0.662c-0.586,0-1.121,0.228-1.624,0.68c-0.482,0.451-0.891,1.145-1.222,2.08
		C64.494,161.393,64.371,161.977,64.371,162.448z M72.323,163.095l1.623-0.099c0,0.474,0.074,0.875,0.213,1.207
		c0.143,0.319,0.409,0.584,0.792,0.795c0.385,0.207,0.833,0.311,1.34,0.311c0.72,0,1.252-0.139,1.604-0.426
		c0.368-0.286,0.543-0.624,0.543-1.012c0-0.274-0.102-0.54-0.311-0.793c-0.219-0.255-0.764-0.562-1.619-0.926
		c-0.858-0.374-1.411-0.635-1.642-0.779c-0.397-0.239-0.695-0.528-0.908-0.855c-0.197-0.334-0.294-0.713-0.294-1.142
		c0-0.761,0.294-1.405,0.891-1.937c0.593-0.542,1.43-0.808,2.498-0.808c1.203,0,2.113,0.273,2.73,0.824
		c0.629,0.551,0.952,1.28,0.977,2.184l-1.586,0.1c-0.025-0.576-0.228-1.027-0.618-1.357c-0.371-0.328-0.911-0.498-1.619-0.498
		c-0.55,0-0.989,0.128-1.307,0.383c-0.311,0.252-0.463,0.528-0.463,0.827c0,0.297,0.14,0.562,0.415,0.795
		c0.178,0.149,0.64,0.391,1.386,0.708c1.24,0.542,2.014,0.968,2.333,1.273c0.518,0.494,0.776,1.105,0.776,1.823
		c0,0.46-0.147,0.923-0.446,1.388c-0.289,0.451-0.728,0.814-1.319,1.089c-0.585,0.266-1.283,0.397-2.082,0.397
		c-1.106,0-2.047-0.27-2.815-0.809C72.645,165.205,72.277,164.317,72.323,163.095z M85.13,165.029l-0.261,1.34
		c-0.396,0.1-0.781,0.149-1.142,0.149c-0.642,0-1.154-0.16-1.54-0.48c-0.286-0.242-0.433-0.568-0.433-0.977
		c0-0.206,0.081-0.687,0.232-1.437l1.16-5.522h-1.276l0.25-1.258h1.289l0.494-2.329l1.855-1.13l-0.724,3.459h1.586l-0.27,1.258
		h-1.587l-1.087,5.256c-0.147,0.662-0.22,1.059-0.22,1.19c0,0.189,0.056,0.336,0.165,0.449c0.109,0.098,0.292,0.146,0.551,0.146
		C84.529,165.145,84.844,165.108,85.13,165.029z M92.856,165.179c-0.561,0.473-1.113,0.828-1.636,1.059
		c-0.52,0.22-1.07,0.33-1.656,0.33c-0.878,0-1.593-0.259-2.129-0.776c-0.532-0.52-0.796-1.18-0.796-1.983
		c0-0.531,0.117-1,0.36-1.407c0.245-0.407,0.563-0.733,0.959-0.975c0.396-0.253,0.891-0.437,1.472-0.547
		c0.367-0.066,1.055-0.122,2.069-0.164c1.014-0.047,1.741-0.156,2.182-0.332c0.132-0.441,0.201-0.804,0.201-1.09
		c0-0.378-0.14-0.672-0.417-0.894c-0.373-0.297-0.928-0.449-1.653-0.449c-0.673,0-1.229,0.157-1.667,0.465
		c-0.434,0.297-0.744,0.721-0.947,1.273l-1.636-0.149c0.33-0.938,0.862-1.655,1.586-2.148c0.728-0.508,1.643-0.759,2.748-0.759
		c1.181,0,2.113,0.279,2.799,0.842c0.523,0.418,0.792,0.959,0.792,1.62c0,0.508-0.079,1.1-0.231,1.771l-0.532,2.363
		c-0.163,0.752-0.249,1.361-0.249,1.834c0,0.302,0.066,0.729,0.2,1.293h-1.635C92.946,166.045,92.885,165.651,92.856,165.179z
		 M93.448,161.542c-0.232,0.086-0.478,0.152-0.739,0.198c-0.258,0.043-0.684,0.092-1.296,0.147
		c-0.944,0.089-1.611,0.198-1.996,0.332c-0.391,0.119-0.678,0.324-0.878,0.61c-0.195,0.274-0.299,0.584-0.299,0.927
		c0,0.449,0.16,0.826,0.463,1.126c0.323,0.287,0.776,0.426,1.356,0.426c0.532,0,1.044-0.137,1.539-0.41
		c0.494-0.287,0.886-0.685,1.172-1.191C93.057,163.201,93.284,162.476,93.448,161.542z M103.206,162.879l1.618,0.185
		c-0.409,1.178-0.989,2.063-1.735,2.642c-0.75,0.575-1.604,0.862-2.563,0.862c-1.026,0-1.864-0.33-2.515-0.989
		c-0.637-0.672-0.961-1.61-0.961-2.813c0-1.034,0.208-2.052,0.613-3.062c0.421-1.001,1.01-1.757,1.769-2.277
		c0.775-0.53,1.653-0.792,2.643-0.792c1.022,0,1.822,0.286,2.42,0.854c0.592,0.572,0.892,1.345,0.892,2.301l-1.586,0.1
		c-0.014-0.606-0.192-1.076-0.532-1.407c-0.343-0.341-0.795-0.511-1.357-0.511c-0.645,0-1.21,0.2-1.685,0.609
		c-0.478,0.408-0.85,1.037-1.123,1.887c-0.274,0.838-0.416,1.644-0.416,2.412c0,0.818,0.179,1.429,0.531,1.84
		c0.366,0.396,0.813,0.59,1.34,0.59s1.029-0.194,1.505-0.59C102.544,164.319,102.925,163.709,103.206,162.879z M105.672,166.354
		l2.747-13.13h1.618l-2.739,13.13H105.672z M116.858,163.132l1.588,0.146c-0.233,0.786-0.752,1.528-1.57,2.233
		c-0.816,0.708-1.787,1.058-2.911,1.058c-0.703,0-1.355-0.156-1.949-0.477c-0.585-0.331-1.03-0.809-1.342-1.423
		c-0.307-0.63-0.457-1.342-0.457-2.136c0-1.035,0.236-2.039,0.724-3.006c0.483-0.984,1.107-1.709,1.869-2.185
		c0.758-0.476,1.588-0.71,2.48-0.71c1.136,0,2.039,0.35,2.71,1.059c0.684,0.707,1.026,1.664,1.026,2.875
		c0,0.465-0.042,0.944-0.135,1.438H111.9c-0.037,0.19-0.049,0.355-0.049,0.499c0,0.892,0.201,1.574,0.61,2.047
		c0.416,0.466,0.923,0.696,1.503,0.696c0.562,0,1.112-0.182,1.635-0.547C116.144,164.338,116.566,163.813,116.858,163.132z
		 M112.145,160.767h5.344c0.011-0.164,0.016-0.286,0.016-0.363c0-0.805-0.208-1.422-0.608-1.852
		c-0.409-0.441-0.937-0.665-1.577-0.665c-0.688,0-1.325,0.245-1.898,0.73C112.858,159.092,112.431,159.81,112.145,160.767z
		 M120.228,163.101l1.626-0.102c0,0.474,0.066,0.875,0.213,1.207c0.141,0.319,0.409,0.584,0.793,0.794
		c0.385,0.208,0.83,0.314,1.336,0.314c0.716,0,1.253-0.143,1.607-0.43c0.36-0.286,0.544-0.621,0.544-1.011
		c0-0.274-0.104-0.539-0.313-0.794c-0.22-0.252-0.763-0.561-1.626-0.926c-0.857-0.374-1.401-0.635-1.634-0.779
		c-0.397-0.238-0.696-0.525-0.909-0.855c-0.196-0.333-0.301-0.71-0.301-1.141c0-0.762,0.301-1.406,0.898-1.938
		c0.593-0.537,1.431-0.807,2.498-0.807c1.197,0,2.105,0.274,2.729,0.827c0.622,0.549,0.952,1.278,0.97,2.182l-1.587,0.099
		c-0.02-0.573-0.228-1.027-0.612-1.354c-0.371-0.33-0.915-0.5-1.615-0.5c-0.557,0-0.989,0.13-1.308,0.382
		c-0.312,0.255-0.466,0.529-0.466,0.828c0,0.297,0.134,0.562,0.416,0.794c0.178,0.153,0.634,0.391,1.387,0.712
		c1.233,0.538,2.015,0.965,2.334,1.273c0.518,0.494,0.773,1.102,0.773,1.819c0,0.46-0.147,0.925-0.446,1.389
		c-0.286,0.451-0.725,0.814-1.324,1.088c-0.58,0.269-1.276,0.397-2.082,0.397c-1.099,0-2.04-0.267-2.809-0.808
		C120.546,165.208,120.186,164.319,120.228,163.101z M134.579,162.423l0.348-1.622h4.938l-0.33,1.622H134.579z M145.661,166.357
		l2.747-13.133h1.751l-2.429,11.644h6.827l-0.311,1.489H145.661z M158.045,155.062l0.384-1.837h1.617l-0.396,1.837H158.045z
		 M155.68,166.357l1.983-9.51h1.618l-1.983,9.51H155.68z M159.802,166.357l1.985-9.51h1.635l-0.342,1.57
		c0.604-0.683,1.143-1.152,1.617-1.408c0.479-0.251,0.989-0.376,1.558-0.376c0.581,0,1.075,0.158,1.472,0.479
		c0.397,0.309,0.658,0.744,0.793,1.305c0.472-0.595,0.973-1.041,1.504-1.339c0.541-0.296,1.104-0.445,1.702-0.445
		c0.794,0,1.386,0.186,1.781,0.561c0.4,0.376,0.602,0.903,0.602,1.589c0,0.286-0.069,0.771-0.201,1.455l-1.291,6.119h-1.615
		l1.306-6.286c0.122-0.518,0.183-0.886,0.183-1.106c0-0.312-0.104-0.553-0.299-0.73c-0.2-0.177-0.482-0.262-0.843-0.262
		c-0.489,0-0.983,0.147-1.49,0.445c-0.495,0.287-0.879,0.667-1.16,1.144c-0.274,0.473-0.513,1.199-0.726,2.182l-0.96,4.614h-1.617
		l1.337-6.419c0.097-0.438,0.146-0.753,0.146-0.942c0-0.309-0.098-0.556-0.29-0.741c-0.205-0.189-0.454-0.282-0.766-0.282
		c-0.464,0-0.946,0.147-1.453,0.445c-0.495,0.287-0.904,0.69-1.228,1.207c-0.306,0.52-0.568,1.264-0.777,2.231l-0.938,4.501H159.802
		z M177.391,155.062l0.388-1.837h1.616l-0.396,1.837H177.391z M175.029,166.357l1.986-9.51h1.619l-1.986,9.51H175.029z
		 M182.956,165.032l-0.263,1.34c-0.396,0.1-0.776,0.149-1.141,0.149c-0.641,0-1.156-0.157-1.541-0.479
		c-0.286-0.243-0.426-0.567-0.426-0.976c0-0.209,0.079-0.688,0.23-1.439l1.156-5.521h-1.271l0.244-1.258h1.295l0.495-2.329
		l1.849-1.127l-0.728,3.456h1.589l-0.265,1.258h-1.586l-1.092,5.256c-0.143,0.662-0.216,1.061-0.216,1.19
		c0,0.189,0.056,0.336,0.167,0.448c0.109,0.099,0.291,0.147,0.543,0.147C182.35,165.147,182.67,165.11,182.956,165.032z
		 M190.68,165.182c-0.563,0.473-1.106,0.827-1.639,1.06c-0.516,0.218-1.067,0.328-1.652,0.328c-0.879,0-1.59-0.259-2.133-0.773
		c-0.53-0.519-0.793-1.183-0.793-1.985c0-0.532,0.122-1,0.367-1.408c0.238-0.403,0.561-0.733,0.957-0.972
		c0.397-0.255,0.887-0.439,1.473-0.549c0.358-0.066,1.051-0.121,2.063-0.164c1.014-0.047,1.746-0.154,2.186-0.333
		c0.129-0.438,0.197-0.804,0.197-1.09c0-0.375-0.136-0.672-0.41-0.894c-0.379-0.296-0.927-0.445-1.653-0.445
		c-0.673,0-1.235,0.154-1.673,0.462c-0.429,0.296-0.748,0.723-0.94,1.273l-1.639-0.149c0.33-0.938,0.862-1.655,1.591-2.149
		c0.723-0.507,1.639-0.759,2.739-0.759c1.18,0,2.112,0.281,2.796,0.843c0.531,0.418,0.796,0.956,0.796,1.62
		c0,0.507-0.081,1.097-0.233,1.768l-0.53,2.365c-0.165,0.753-0.245,1.361-0.245,1.837c0,0.298,0.068,0.729,0.194,1.291h-1.635
		C190.779,166.048,190.718,165.654,190.68,165.182z M191.278,161.545c-0.233,0.086-0.483,0.152-0.744,0.198
		c-0.257,0.045-0.684,0.092-1.289,0.147c-0.947,0.088-1.618,0.198-2.002,0.332c-0.386,0.119-0.68,0.324-0.874,0.61
		c-0.201,0.274-0.3,0.584-0.3,0.926c0,0.452,0.152,0.827,0.467,1.126c0.314,0.287,0.768,0.43,1.354,0.43
		c0.525,0,1.037-0.138,1.539-0.415c0.494-0.286,0.884-0.683,1.17-1.19C190.888,163.203,191.114,162.48,191.278,161.545z
		 M198.252,165.032l-0.262,1.34c-0.397,0.1-0.777,0.149-1.144,0.149c-0.64,0-1.154-0.157-1.537-0.479
		c-0.287-0.243-0.429-0.567-0.429-0.976c0-0.209,0.073-0.688,0.231-1.439l1.156-5.521h-1.271l0.245-1.258h1.288l0.499-2.329
		l1.853-1.127l-0.729,3.456h1.588l-0.264,1.258h-1.586l-1.093,5.256c-0.146,0.662-0.215,1.061-0.215,1.19
		c0,0.189,0.058,0.336,0.166,0.448c0.108,0.099,0.293,0.147,0.544,0.147C197.646,165.147,197.966,165.11,198.252,165.032z
		 M201.862,155.062l0.376-1.837h1.625l-0.396,1.837H201.862z M199.497,166.357l1.984-9.51h1.618l-1.983,9.51H199.497z
		 M203.917,162.752c0-1.863,0.544-3.401,1.639-4.613c0.903-1.005,2.087-1.505,3.554-1.505c1.147,0,2.069,0.357,2.759,1.074
		c0.708,0.718,1.063,1.683,1.063,2.895c0,1.089-0.221,2.108-0.667,3.058c-0.438,0.938-1.067,1.659-1.88,2.165
		c-0.818,0.496-1.68,0.744-2.585,0.744c-0.738,0-1.41-0.151-2.014-0.464c-0.609-0.317-1.068-0.763-1.391-1.336
		C204.077,164.183,203.917,163.511,203.917,162.752z M205.537,162.585c0,0.893,0.213,1.57,0.645,2.035
		c0.43,0.464,0.974,0.694,1.64,0.694c0.352,0,0.694-0.066,1.026-0.2c0.34-0.142,0.649-0.356,0.939-0.643
		c0.298-0.289,0.548-0.612,0.761-0.976c0.21-0.376,0.373-0.773,0.494-1.192c0.192-0.595,0.282-1.163,0.282-1.701
		c0-0.861-0.22-1.528-0.658-2.002c-0.434-0.473-0.972-0.714-1.626-0.714c-0.507,0-0.969,0.123-1.387,0.368
		c-0.421,0.239-0.797,0.595-1.14,1.055c-0.332,0.465-0.58,1.006-0.745,1.621C205.614,161.548,205.537,162.101,205.537,162.585z
		 M213.835,166.357l1.982-9.51h1.472l-0.348,1.653c0.643-0.651,1.234-1.124,1.79-1.422c0.549-0.296,1.116-0.445,1.704-0.445
		c0.769,0,1.366,0.208,1.8,0.629c0.441,0.419,0.66,0.972,0.66,1.67c0,0.35-0.079,0.908-0.231,1.67l-1.21,5.755h-1.618l1.278-6.022
		c0.114-0.583,0.176-1.018,0.176-1.305c0-0.318-0.11-0.575-0.33-0.762c-0.221-0.198-0.532-0.296-0.941-0.296
		c-0.829,0-1.569,0.296-2.215,0.892c-0.654,0.596-1.124,1.616-1.423,3.061l-0.929,4.433H213.835z M224.183,163.101l1.619-0.102
		c0,0.474,0.073,0.875,0.213,1.207c0.147,0.319,0.408,0.584,0.794,0.794c0.385,0.208,0.837,0.314,1.344,0.314
		c0.713,0,1.251-0.143,1.599-0.43c0.367-0.286,0.551-0.621,0.551-1.011c0-0.274-0.104-0.539-0.317-0.794
		c-0.221-0.252-0.756-0.561-1.619-0.926c-0.862-0.374-1.404-0.635-1.635-0.779c-0.396-0.238-0.703-0.525-0.911-0.855
		c-0.201-0.333-0.299-0.71-0.299-1.141c0-0.762,0.299-1.406,0.892-1.938c0.598-0.537,1.429-0.807,2.497-0.807
		c1.202,0,2.113,0.274,2.73,0.827c0.63,0.549,0.952,1.278,0.977,2.182l-1.59,0.099c-0.022-0.573-0.225-1.027-0.609-1.354
		c-0.38-0.33-0.915-0.5-1.623-0.5c-0.551,0-0.983,0.13-1.308,0.382c-0.306,0.255-0.457,0.529-0.457,0.828
		c0,0.297,0.134,0.562,0.408,0.794c0.177,0.153,0.642,0.391,1.393,0.712c1.232,0.538,2.009,0.965,2.331,1.273
		c0.516,0.494,0.776,1.102,0.776,1.819c0,0.46-0.154,0.925-0.445,1.389c-0.286,0.451-0.727,0.814-1.325,1.088
		c-0.587,0.269-1.276,0.397-2.083,0.397c-1.104,0-2.04-0.267-2.813-0.808C224.503,165.208,224.135,164.319,224.183,163.101z"/>
	<path fill="#FFFFFF" d="M-85,95.823l28.137-112.531l303.731,0.002l28.124,112.532L-85,95.823z"/>
	<path fill="none" stroke="#595959" stroke-linejoin="round" stroke-miterlimit="10" d="M-85,95.823l28.137-112.531l303.731,0.002
		l28.124,112.532L-85,95.823z"/>
	<path fill="#0000FF" fill-opacity="0.4821" d="M-85,95.823l28.137-112.531l303.731,0.002l28.124,112.532L-85,95.823z"/>
	<path fill="none" stroke="#595959" stroke-linejoin="round" stroke-miterlimit="10" d="M-85,95.823l28.137-112.531l303.731,0.002
		l28.124,112.532L-85,95.823z"/>
	<path d="M41.064,43.077c0-1.852,0.274-3.409,0.825-4.662c0.421-0.928,0.982-1.758,1.685-2.498c0.72-0.739,1.508-1.286,2.371-1.637
		c1.124-0.477,2.429-0.711,3.919-0.711c2.674,0,4.817,0.831,6.411,2.497c1.61,1.653,2.419,3.964,2.419,6.928
		c0,2.933-0.801,5.232-2.4,6.897c-1.59,1.651-3.714,2.478-6.381,2.478c-2.712,0-4.868-0.827-6.466-2.478
		C41.858,48.235,41.064,45.964,41.064,43.077z M44.849,42.944c0,2.062,0.478,3.629,1.423,4.697c0.948,1.061,2.157,1.586,3.622,1.586
		c1.466,0,2.668-0.521,3.602-1.569c0.939-1.058,1.413-2.646,1.413-4.762c0-2.084-0.461-3.639-1.377-4.665
		c-0.916-1.025-2.13-1.537-3.638-1.537c-1.509,0-2.731,0.524-3.658,1.572C45.315,39.301,44.849,40.86,44.849,42.944z M70.215,52.055
		v-1.966c-0.487,0.693-1.124,1.246-1.905,1.653c-0.781,0.408-1.6,0.612-2.46,0.612c-0.893,0-1.693-0.191-2.4-0.581
		c-0.696-0.397-1.202-0.943-1.521-1.636c-0.312-0.706-0.462-1.682-0.462-2.929v-8.335h3.491v6.055c0,1.849,0.057,2.985,0.177,3.406
		c0.135,0.419,0.366,0.75,0.697,0.995c0.34,0.24,0.774,0.362,1.305,0.362c0.593,0,1.124-0.161,1.59-0.479
		c0.475-0.333,0.797-0.74,0.977-1.225c0.175-0.485,0.261-1.67,0.261-3.556v-5.558h3.475v13.181H70.215z M83.098,38.875v2.779h-2.382
		v5.308c0,1.083,0.024,1.709,0.068,1.888c0.041,0.174,0.14,0.324,0.299,0.445c0.163,0.11,0.358,0.165,0.592,0.165
		c0.324,0,0.788-0.111,1.405-0.331l0.299,2.693c-0.813,0.355-1.736,0.532-2.76,0.532c-0.63,0-1.198-0.108-1.705-0.314
		c-0.495-0.211-0.866-0.48-1.112-0.813c-0.225-0.337-0.391-0.795-0.477-1.371c-0.078-0.409-0.116-1.224-0.116-2.448v-5.754h-1.606
		v-2.779h1.606v-2.61l3.505-2.037v4.646H83.098z M96.997,42.78l-3.438,0.61c-0.11-0.683-0.372-1.195-0.793-1.538
		c-0.411-0.35-0.936-0.529-1.588-0.529c-0.872,0-1.562,0.304-2.082,0.911c-0.507,0.595-0.764,1.594-0.764,2.993
		c0,1.564,0.262,2.673,0.781,3.325c0.525,0.636,1.233,0.958,2.113,0.958c0.658,0,1.203-0.186,1.624-0.561
		c0.428-0.376,0.726-1.021,0.893-1.937l3.419,0.581c-0.348,1.569-1.031,2.754-2.045,3.553c-1.009,0.808-2.358,1.21-4.055,1.21
		c-1.917,0-3.45-0.608-4.599-1.82c-1.147-1.224-1.716-2.909-1.716-5.059c0-2.174,0.568-3.866,1.716-5.079
		c1.148-1.212,2.706-1.819,4.665-1.819c1.606,0,2.882,0.348,3.817,1.046C95.897,40.32,96.58,41.37,96.997,42.78z M98.84,45.278
		c0-1.161,0.282-2.277,0.843-3.36c0.573-1.079,1.38-1.905,2.429-2.478c1.046-0.573,2.219-0.862,3.507-0.862
		c1.996,0,3.625,0.655,4.896,1.955c1.275,1.292,1.917,2.923,1.917,4.894c0,1.996-0.648,3.651-1.936,4.961
		c-1.288,1.313-2.911,1.967-4.86,1.967c-1.202,0-2.356-0.27-3.455-0.813c-1.096-0.549-1.925-1.35-2.498-2.393
		C99.122,48.086,98.84,46.798,98.84,45.278z M102.412,45.479c0,1.3,0.305,2.296,0.921,2.992c0.617,0.69,1.387,1.038,2.303,1.038
		c0.903,0,1.662-0.348,2.276-1.038c0.618-0.696,0.931-1.704,0.931-3.027c0-1.29-0.313-2.282-0.931-2.975
		c-0.614-0.696-1.373-1.046-2.276-1.046c-0.916,0-1.686,0.35-2.303,1.046C102.717,43.16,102.412,44.167,102.412,45.479z
		 M114.897,38.88h3.206v1.802c1.148-1.4,2.517-2.098,4.104-2.098c0.849,0,1.58,0.176,2.197,0.526
		c0.617,0.343,1.124,0.866,1.521,1.572c0.585-0.706,1.209-1.229,1.867-1.572c0.671-0.35,1.394-0.526,2.15-0.526
		c0.97,0,1.788,0.198,2.448,0.595c0.672,0.397,1.174,0.972,1.509,1.736c0.238,0.563,0.359,1.472,0.359,2.728v8.417h-3.487v-7.522
		c0-1.313-0.113-2.155-0.347-2.532c-0.331-0.495-0.83-0.744-1.492-0.744c-0.494,0-0.956,0.149-1.385,0.448
		c-0.434,0.296-0.737,0.734-0.928,1.308c-0.188,0.571-0.279,1.474-0.279,2.71v6.333h-3.487v-7.226c0-1.281-0.062-2.101-0.184-2.463
		c-0.122-0.373-0.317-0.652-0.581-0.828c-0.262-0.186-0.616-0.281-1.058-0.281c-0.54,0-1.022,0.145-1.459,0.431
		c-0.426,0.287-0.737,0.705-0.92,1.258c-0.188,0.539-0.282,1.442-0.282,2.71v6.399h-3.475V38.88z M145.367,47.861l3.475,0.595
		c-0.452,1.266-1.16,2.238-2.13,2.909c-0.96,0.659-2.162,0.992-3.609,0.992c-2.289,0-3.981-0.749-5.076-2.25
		c-0.871-1.2-1.305-2.711-1.305-4.53c0-2.182,0.568-3.893,1.704-5.125c1.146-1.247,2.589-1.868,4.334-1.868
		c1.962,0,3.507,0.649,4.628,1.949c1.137,1.292,1.681,3.271,1.64,5.938h-8.733c0.025,1.036,0.304,1.841,0.843,2.412
		c0.544,0.576,1.21,0.862,2.003,0.862c0.548,0,1.006-0.149,1.373-0.446C144.885,49,145.172,48.52,145.367,47.861z M145.569,44.337
		c-0.029-1.004-0.3-1.765-0.794-2.284c-0.495-0.527-1.1-0.793-1.803-0.793c-0.762,0-1.391,0.279-1.886,0.828
		c-0.493,0.553-0.738,1.3-0.727,2.25H145.569z"/>
	<path d="M-9.176,75.975l2.729-13.131h2.167l1.32,8.516c0.176,1.114,0.291,2.182,0.348,3.208c0.364-0.882,0.969-2.077,1.819-3.587
		l4.599-8.137h2.197l-2.74,13.131H1.539l1.376-6.383c0.303-1.479,0.757-3.131,1.354-4.961c-0.377,0.847-0.837,1.768-1.391,2.76
		l-4.892,8.584h-1.685l-1.325-8.417c-0.122-0.772-0.208-1.67-0.264-2.694c-0.145,1.156-0.287,2.071-0.434,2.742l-1.75,8.369H-9.176z
		 M12.879,72.748l1.589,0.149c-0.233,0.781-0.752,1.528-1.569,2.233c-0.818,0.706-1.783,1.058-2.914,1.058
		c-0.703,0-1.354-0.157-1.947-0.478c-0.588-0.33-1.034-0.808-1.345-1.422c-0.306-0.629-0.458-1.342-0.458-2.136
		c0-1.035,0.238-2.04,0.727-3.007c0.483-0.984,1.105-1.709,1.869-2.184c0.757-0.475,1.587-0.709,2.478-0.709
		c1.136,0,2.04,0.35,2.712,1.055c0.684,0.705,1.026,1.667,1.026,2.879c0,0.46-0.044,0.942-0.134,1.437H7.92
		c-0.037,0.187-0.049,0.355-0.049,0.5c0,0.892,0.204,1.574,0.612,2.047c0.421,0.465,0.92,0.695,1.501,0.695
		c0.563,0,1.111-0.181,1.638-0.545C12.163,73.958,12.587,73.431,12.879,72.748z M8.165,70.385h5.343
		c0.012-0.164,0.02-0.286,0.02-0.361c0-0.807-0.203-1.423-0.612-1.854c-0.409-0.44-0.933-0.663-1.575-0.663
		c-0.69,0-1.325,0.245-1.9,0.729C8.88,68.71,8.451,69.428,8.165,70.385z M22.521,74.8c-0.568,0.473-1.112,0.828-1.643,1.06
		c-0.512,0.218-1.068,0.329-1.648,0.329c-0.887,0-1.594-0.26-2.138-0.779c-0.526-0.514-0.793-1.178-0.793-1.983
		c0-0.529,0.122-0.997,0.364-1.405c0.245-0.409,0.563-0.732,0.96-0.977c0.396-0.252,0.884-0.434,1.471-0.543
		c0.365-0.066,1.051-0.121,2.064-0.164c1.019-0.047,1.746-0.154,2.184-0.333c0.135-0.438,0.196-0.803,0.196-1.09
		c0-0.375-0.135-0.673-0.409-0.894c-0.376-0.296-0.928-0.445-1.655-0.445c-0.671,0-1.227,0.155-1.673,0.463
		c-0.426,0.297-0.739,0.722-0.94,1.273l-1.636-0.15c0.328-0.938,0.86-1.655,1.586-2.149c0.728-0.507,1.644-0.759,2.743-0.759
		c1.185,0,2.113,0.282,2.796,0.842c0.531,0.418,0.793,0.957,0.793,1.621c0,0.507-0.073,1.097-0.233,1.768l-0.524,2.365
		c-0.171,0.749-0.25,1.361-0.25,1.836c0,0.298,0.067,0.725,0.194,1.29h-1.636C22.612,75.665,22.55,75.273,22.521,74.8z
		 M23.113,71.161c-0.232,0.089-0.478,0.154-0.744,0.199c-0.252,0.046-0.686,0.093-1.29,0.149c-0.945,0.088-1.619,0.199-2.003,0.331
		c-0.384,0.12-0.676,0.326-0.871,0.612c-0.204,0.274-0.299,0.583-0.299,0.925c0,0.453,0.152,0.828,0.463,1.124
		c0.318,0.287,0.769,0.43,1.357,0.43c0.53,0,1.038-0.137,1.537-0.414c0.495-0.287,0.887-0.683,1.173-1.189
		C22.722,72.821,22.947,72.099,23.113,71.161z M26.453,72.719l1.619-0.101c0,0.473,0.073,0.874,0.213,1.205
		c0.147,0.321,0.409,0.585,0.793,0.793c0.384,0.21,0.83,0.315,1.337,0.315c0.72,0,1.251-0.144,1.606-0.43
		c0.367-0.284,0.548-0.625,0.548-1.009c0-0.274-0.108-0.538-0.316-0.793c-0.22-0.252-0.756-0.561-1.619-0.926
		c-0.861-0.375-1.41-0.634-1.635-0.778c-0.396-0.24-0.703-0.526-0.911-0.857c-0.201-0.333-0.299-0.709-0.299-1.141
		c0-0.762,0.299-1.408,0.892-1.937c0.598-0.539,1.43-0.808,2.498-0.808c1.202,0,2.113,0.274,2.729,0.827
		c0.627,0.549,0.953,1.276,0.977,2.182l-1.588,0.098c-0.025-0.573-0.226-1.025-0.617-1.354c-0.372-0.331-0.908-0.5-1.616-0.5
		c-0.551,0-0.989,0.129-1.308,0.382c-0.306,0.255-0.465,0.529-0.465,0.828c0,0.296,0.142,0.561,0.417,0.793
		c0.176,0.155,0.641,0.392,1.385,0.713c1.239,0.539,2.015,0.965,2.333,1.273c0.52,0.495,0.781,1.102,0.781,1.817
		c0,0.463-0.154,0.928-0.446,1.391c-0.287,0.453-0.731,0.815-1.324,1.089c-0.588,0.268-1.283,0.397-2.084,0.397
		c-1.104,0-2.04-0.271-2.813-0.808C26.769,74.827,26.404,73.938,26.453,72.719z M41.949,74.254
		c-1.136,1.291-2.296,1.935-3.486,1.935c-0.74,0-1.332-0.211-1.783-0.626c-0.458-0.419-0.685-0.938-0.685-1.555
		c0-0.397,0.11-1.083,0.317-2.052l1.142-5.49h1.618l-1.268,6.084c-0.11,0.507-0.167,0.9-0.167,1.175
		c0,0.365,0.111,0.644,0.332,0.843c0.221,0.198,0.536,0.298,0.957,0.298c0.466,0,0.911-0.107,1.339-0.33
		c0.434-0.221,0.798-0.517,1.109-0.895c0.319-0.374,0.575-0.82,0.776-1.339c0.135-0.331,0.282-0.908,0.446-1.736l0.862-4.101h1.618
		l-1.986,9.51h-1.484L41.949,74.254z M45.67,75.975l1.983-9.51h1.44l-0.414,1.937c0.495-0.728,0.977-1.269,1.439-1.621
		c0.471-0.353,0.953-0.529,1.436-0.529c0.326,0,0.722,0.115,1.192,0.345l-0.661,1.503c-0.275-0.199-0.585-0.296-0.928-0.296
		c-0.561,0-1.141,0.316-1.734,0.945c-0.597,0.625-1.063,1.761-1.403,3.403l-0.812,3.822H45.67z M58.755,72.748l1.587,0.149
		c-0.233,0.781-0.757,1.528-1.57,2.233c-0.818,0.706-1.79,1.058-2.912,1.058c-0.703,0-1.357-0.157-1.949-0.478
		c-0.585-0.33-1.031-0.808-1.344-1.422c-0.305-0.629-0.464-1.342-0.464-2.136c0-1.035,0.246-2.04,0.732-3.007
		c0.483-0.984,1.104-1.709,1.868-2.184c0.758-0.475,1.59-0.709,2.481-0.709c1.133,0,2.04,0.35,2.711,1.055
		c0.683,0.705,1.025,1.667,1.025,2.879c0,0.46-0.044,0.942-0.134,1.437h-6.991c-0.036,0.187-0.048,0.355-0.048,0.5
		c0,0.892,0.201,1.574,0.609,2.047c0.417,0.465,0.923,0.695,1.504,0.695c0.561,0,1.109-0.181,1.636-0.545
		C58.039,73.958,58.453,73.431,58.755,72.748z M54.039,70.385h5.342c0.013-0.164,0.02-0.286,0.02-0.361
		c0-0.807-0.208-1.423-0.609-1.854c-0.413-0.44-0.936-0.663-1.578-0.663c-0.69,0-1.325,0.245-1.898,0.729
		C54.754,68.71,54.328,69.428,54.039,70.385z M67.302,72.039l0.348-1.62h4.946l-0.335,1.62H67.302z M78.438,75.975l2.743-13.131
		h1.74l-1.124,5.456h6.795l1.136-5.456h1.758L88.74,75.975h-1.753l1.291-6.185H81.48l-1.289,6.185H78.438z M91.801,72.371
		c0-1.863,0.543-3.402,1.634-4.613c0.904-1.007,2.089-1.505,3.554-1.505c1.148,0,2.071,0.359,2.759,1.075
		c0.711,0.712,1.063,1.679,1.063,2.894c0,1.092-0.221,2.113-0.666,3.058c-0.438,0.941-1.067,1.66-1.881,2.167
		c-0.817,0.495-1.677,0.747-2.58,0.747c-0.74,0-1.411-0.159-2.016-0.468c-0.611-0.318-1.07-0.766-1.393-1.336
		C91.956,73.801,91.801,73.13,91.801,72.371z M93.417,72.205c0,0.892,0.215,1.569,0.648,2.035c0.426,0.463,0.97,0.695,1.636,0.695
		c0.354,0,0.696-0.069,1.026-0.201c0.343-0.142,0.653-0.355,0.939-0.642c0.299-0.287,0.55-0.612,0.765-0.977
		c0.208-0.372,0.371-0.769,0.494-1.189c0.188-0.592,0.279-1.161,0.279-1.705c0-0.862-0.218-1.528-0.659-2.003
		c-0.433-0.47-0.969-0.708-1.623-0.708c-0.507,0-0.972,0.12-1.385,0.365c-0.422,0.237-0.802,0.592-1.144,1.052
		c-0.329,0.465-0.582,1.006-0.746,1.621C93.498,71.167,93.417,71.72,93.417,72.205z M103.517,75.978l-0.989-9.512h1.55l0.433,4.268
		l0.179,2.399c0.013,0.184,0.03,0.552,0.054,1.088c0.173-0.605,0.324-1.068,0.446-1.386c0.13-0.331,0.335-0.801,0.612-1.403
		l2.265-4.965l1.753,0.002l0.312,4.748c0.054,0.727,0.091,1.692,0.102,2.892c0.294-0.793,0.781-1.9,1.455-3.322l2.05-4.317h1.619
		l-4.658,9.51h-1.674l-0.365-5.572c-0.02-0.353-0.038-1.031-0.05-2.035c-0.237,0.639-0.531,1.325-0.874,2.064l-2.515,5.543H103.517z
		 M119.442,79.648l0.097-1.521c0.337,0.097,0.66,0.147,0.979,0.147c0.327,0,0.596-0.076,0.792-0.23
		c0.268-0.199,0.549-0.566,0.859-1.107l0.531-0.928l-1.587-9.542h1.587l0.711,4.812c0.145,0.95,0.267,1.897,0.376,2.845l4.252-7.657
		h1.691l-6.058,10.766c-0.58,1.058-1.106,1.751-1.57,2.084c-0.452,0.343-0.972,0.515-1.552,0.515
		C120.162,79.832,119.795,79.77,119.442,79.648z M129.503,72.374c0-1.863,0.545-3.401,1.639-4.613
		c0.903-1.004,2.085-1.507,3.554-1.507c1.146,0,2.068,0.358,2.766,1.076c0.701,0.715,1.056,1.68,1.056,2.894
		c0,1.09-0.22,2.111-0.658,3.058c-0.446,0.938-1.07,1.657-1.888,2.165c-0.818,0.5-1.673,0.747-2.577,0.747
		c-0.738,0-1.418-0.157-2.021-0.465c-0.605-0.318-1.068-0.766-1.387-1.337C129.663,73.806,129.503,73.132,129.503,72.374z
		 M131.122,72.207c0,0.893,0.22,1.569,0.646,2.035c0.434,0.463,0.977,0.693,1.639,0.693c0.352,0,0.695-0.063,1.024-0.198
		c0.342-0.145,0.659-0.357,0.941-0.644c0.298-0.287,0.555-0.612,0.761-0.974c0.208-0.375,0.375-0.771,0.494-1.19
		c0.192-0.594,0.282-1.163,0.282-1.704c0-0.862-0.221-1.525-0.658-2.003c-0.429-0.473-0.973-0.71-1.618-0.71
		c-0.507,0-0.973,0.12-1.394,0.365c-0.414,0.242-0.798,0.595-1.142,1.058c-0.33,0.462-0.579,1.003-0.744,1.621
		C131.203,71.171,131.122,71.722,131.122,72.207z M145.904,74.257c-1.134,1.292-2.295,1.937-3.487,1.937
		c-0.736,0-1.337-0.21-1.786-0.629c-0.454-0.419-0.68-0.938-0.68-1.555c0-0.397,0.104-1.08,0.319-2.052l1.136-5.49h1.623
		l-1.274,6.085c-0.111,0.507-0.167,0.901-0.167,1.175c0,0.365,0.108,0.644,0.329,0.845c0.221,0.198,0.545,0.299,0.961,0.299
		c0.463,0,0.908-0.111,1.342-0.333c0.429-0.221,0.8-0.517,1.104-0.891c0.324-0.377,0.58-0.823,0.783-1.342
		c0.127-0.329,0.278-0.908,0.446-1.736l0.853-4.102h1.624l-1.982,9.51h-1.491L145.904,74.257z M154.917,75.978l2.742-13.129h1.75
		l-1.304,6.315l7.131-6.315h2.46l-6.1,5.338l4.464,7.791h-1.954l-3.786-6.648l-2.742,2.38l-0.908,4.268H154.917z M166.948,75.978
		l1.981-9.51h1.473l-0.342,1.655c0.635-0.648,1.232-1.126,1.783-1.422c0.549-0.299,1.116-0.446,1.702-0.446
		c0.771,0,1.375,0.209,1.802,0.63c0.44,0.418,0.659,0.974,0.659,1.669c0,0.35-0.074,0.906-0.226,1.67l-1.21,5.754h-1.623
		l1.275-6.019c0.123-0.585,0.185-1.021,0.185-1.307c0-0.321-0.111-0.576-0.332-0.762c-0.216-0.198-0.535-0.298-0.944-0.298
		c-0.824,0-1.564,0.298-2.216,0.896c-0.649,0.595-1.124,1.613-1.423,3.059l-0.923,4.432H166.948z M177.429,72.374
		c0-1.863,0.543-3.401,1.638-4.613c0.903-1.004,2.088-1.507,3.553-1.507c1.148,0,2.069,0.358,2.759,1.076
		c0.711,0.715,1.063,1.68,1.063,2.894c0,1.09-0.221,2.111-0.665,3.058c-0.439,0.938-1.068,1.657-1.882,2.165
		c-0.817,0.5-1.677,0.747-2.583,0.747c-0.737,0-1.41-0.157-2.014-0.465c-0.611-0.318-1.068-0.766-1.393-1.337
		C177.589,73.806,177.429,73.132,177.429,72.374z M179.048,72.207c0,0.893,0.216,1.569,0.648,2.035
		c0.427,0.463,0.978,0.693,1.637,0.693c0.354,0,0.695-0.063,1.024-0.198c0.343-0.145,0.654-0.357,0.941-0.644
		c0.299-0.287,0.548-0.612,0.764-0.974c0.205-0.375,0.372-0.771,0.494-1.19c0.188-0.594,0.279-1.163,0.279-1.704
		c0-0.862-0.219-1.525-0.659-2.003c-0.433-0.473-0.972-0.71-1.623-0.71c-0.507,0-0.972,0.12-1.385,0.365
		c-0.422,0.242-0.802,0.595-1.145,1.058c-0.328,0.462-0.581,1.003-0.744,1.621C179.129,71.171,179.048,71.722,179.048,72.207z
		 M189.148,75.978l-0.989-9.51h1.55l0.434,4.268l0.183,2.397c0.008,0.187,0.025,0.552,0.049,1.09
		c0.178-0.603,0.324-1.068,0.446-1.388c0.13-0.331,0.335-0.795,0.611-1.403l2.266-4.963h1.752l0.317,4.748
		c0.056,0.727,0.086,1.692,0.098,2.892c0.298-0.793,0.781-1.9,1.452-3.322l2.052-4.317h1.619l-4.66,9.51h-1.672l-0.359-5.572
		c-0.025-0.353-0.043-1.031-0.055-2.035c-0.24,0.639-0.532,1.33-0.875,2.067l-2.514,5.541H189.148z"/>
	<path fill="#FFFFFF" d="M-84.996,11.505l24.126-96.5l311.743,0.002L275,11.508L-84.996,11.505z"/>
	<path fill="none" stroke="#595959" stroke-linejoin="round" stroke-miterlimit="10" d="M-84.996,11.505l24.126-96.5l311.743,0.002
		L275,11.508L-84.996,11.505z"/>
	<path fill="#00FF00" fill-opacity="0.4881" d="M-84.996,11.505l24.126-96.5l311.743,0.002L275,11.508L-84.996,11.505z"/>
	<path fill="none" stroke="#595959" stroke-linejoin="round" stroke-miterlimit="10" d="M-84.996,11.505l24.126-96.5l311.743,0.002
		L275,11.508L-84.996,11.505z"/>
	<path d="M47.223-42.582l3.573-0.349c0.208,1.2,0.642,2.083,1.289,2.645c0.665,0.564,1.558,0.846,2.681,0.846
		c1.177,0,2.063-0.251,2.662-0.746c0.604-0.507,0.91-1.096,0.91-1.771c0-0.427-0.127-0.794-0.38-1.089
		c-0.254-0.3-0.695-0.562-1.324-0.795c-0.426-0.143-1.411-0.409-2.943-0.793c-1.958-0.486-3.34-1.08-4.134-1.786
		c-1.124-1.004-1.684-2.226-1.684-3.669c0-0.929,0.263-1.793,0.794-2.6c0.524-0.802,1.283-1.417,2.265-1.834
		c0.989-0.418,2.187-0.629,3.584-0.629c2.285,0,3.998,0.501,5.147,1.504c1.154,0.993,1.758,2.328,1.814,4.003l-3.67,0.15
		c-0.151-0.928-0.487-1.594-1.005-2.003c-0.52-0.419-1.295-0.63-2.333-0.63c-1.055,0-1.888,0.223-2.499,0.663
		c-0.383,0.288-0.581,0.664-0.581,1.124c0,0.432,0.185,0.8,0.552,1.108c0.462,0.388,1.586,0.794,3.369,1.225
		c1.791,0.418,3.107,0.855,3.958,1.308c0.854,0.452,1.532,1.067,2.014,1.852c0.482,0.77,0.728,1.735,0.728,2.892
		c0,1.039-0.294,2.012-0.875,2.927c-0.573,0.903-1.391,1.582-2.448,2.034c-1.063,0.443-2.38,0.663-3.97,0.663
		c-2.294,0-4.06-0.527-5.294-1.587C48.189-38.988,47.456-40.543,47.223-42.582z M64.964-49.841h3.254v1.936
		c0.422-0.664,0.99-1.197,1.705-1.606c0.724-0.418,1.525-0.629,2.4-0.629c1.532,0,2.826,0.601,3.883,1.804
		c1.068,1.2,1.604,2.87,1.604,5.01c0,2.205-0.543,3.92-1.624,5.142c-1.068,1.215-2.363,1.82-3.883,1.82
		c-0.728,0-1.39-0.143-1.983-0.431c-0.592-0.297-1.223-0.794-1.868-1.487v6.631h-3.487V-49.841z M68.419-43.477
		c0,1.478,0.287,2.573,0.875,3.291c0.584,0.706,1.299,1.06,2.149,1.06c0.806,0,1.477-0.327,2.021-0.977
		c0.536-0.652,0.805-1.713,0.805-3.191c0-1.39-0.281-2.416-0.842-3.078c-0.549-0.672-1.234-1.007-2.052-1.007
		c-0.85,0-1.55,0.329-2.113,0.991C68.7-45.735,68.419-44.764,68.419-43.477z M88.215-40.862l3.475,0.594
		c-0.452,1.267-1.167,2.238-2.137,2.91c-0.96,0.663-2.163,0.993-3.602,0.993c-2.297,0-3.989-0.748-5.075-2.248
		c-0.873-1.203-1.306-2.713-1.306-4.533c0-2.183,0.568-3.89,1.697-5.126c1.148-1.245,2.595-1.868,4.334-1.868
		c1.961,0,3.506,0.65,4.63,1.951c1.134,1.292,1.685,3.269,1.636,5.938h-8.728c0.021,1.035,0.302,1.841,0.845,2.416
		c0.538,0.571,1.203,0.857,1.997,0.857c0.555,0,1.014-0.146,1.374-0.446C87.725-39.722,88.012-40.2,88.215-40.862z M88.412-44.386
		c-0.032-1.001-0.294-1.765-0.796-2.28c-0.495-0.532-1.093-0.794-1.801-0.794c-0.758,0-1.385,0.274-1.88,0.827
		c-0.502,0.549-0.739,1.301-0.733,2.247H88.412z M106.19-45.94l-3.438,0.61c-0.109-0.677-0.37-1.19-0.792-1.533
		c-0.41-0.354-0.933-0.529-1.587-0.529c-0.874,0-1.564,0.305-2.084,0.909c-0.507,0.592-0.763,1.593-0.763,2.993
		c0,1.562,0.264,2.674,0.781,3.321c0.525,0.64,1.235,0.965,2.113,0.965c0.664,0,1.203-0.19,1.624-0.569
		c0.428-0.372,0.728-1.02,0.892-1.929l3.425,0.575c-0.354,1.568-1.038,2.753-2.052,3.559c-1.005,0.8-2.354,1.203-4.054,1.203
		c-1.918,0-3.449-0.605-4.596-1.82c-1.145-1.221-1.718-2.909-1.718-5.058c0-2.172,0.573-3.867,1.718-5.079
		c1.146-1.208,2.703-1.819,4.664-1.819c1.611,0,2.882,0.349,3.822,1.044C105.091-48.4,105.777-47.351,106.19-45.94z M108.83-51.625
		v-3.223h3.485v3.223H108.83z M108.83-36.66v-13.179h3.485v13.179H108.83z M114.362-49.839h1.933v-0.992
		c0-1.104,0.119-1.923,0.35-2.465c0.244-0.552,0.678-0.998,1.307-1.341c0.642-0.341,1.443-0.512,2.399-0.512
		c0.99,0,1.966,0.15,2.926,0.446l-0.482,2.433c-0.551-0.134-1.081-0.198-1.601-0.198c-0.495,0-0.855,0.112-1.076,0.345
		c-0.217,0.232-0.327,0.683-0.327,1.355v0.928h2.595v2.745h-2.595v10.435h-3.495v-10.435h-1.933V-49.839z M124.344-51.625v-3.223
		h3.487v3.223H124.344z M124.344-36.66v-13.179h3.487v13.179H124.344z M142.894-45.937l-3.442,0.611
		c-0.11-0.681-0.374-1.194-0.797-1.537c-0.408-0.354-0.932-0.529-1.586-0.529c-0.867,0-1.563,0.305-2.081,0.909
		c-0.506,0.596-0.765,1.593-0.765,2.996c0,1.563,0.264,2.671,0.781,3.321c0.527,0.642,1.235,0.963,2.113,0.963
		c0.666,0,1.202-0.19,1.623-0.566c0.429-0.372,0.729-1.02,0.893-1.932l3.425,0.577c-0.353,1.566-1.038,2.751-2.052,3.557
		c-1.002,0.803-2.355,1.206-4.052,1.206c-1.918,0-3.45-0.604-4.599-1.82c-1.145-1.221-1.717-2.909-1.717-5.058
		c0-2.171,0.572-3.866,1.717-5.078c1.148-1.211,2.704-1.819,4.665-1.819c1.61,0,2.881,0.347,3.822,1.044
		C141.79-48.4,142.473-47.348,142.894-45.937z"/>
	<path d="M-12.585-12.744l2.743-13.132h5.507c1.094,0,1.919,0.096,2.48,0.282c0.561,0.176,1.007,0.519,1.325,1.026
		c0.318,0.497,0.482,1.122,0.482,1.887c0,1.067-0.355,1.956-1.063,2.661c-0.695,0.705-1.819,1.163-3.369,1.371
		c0.47,0.354,0.83,0.702,1.075,1.042c0.549,0.772,0.989,1.573,1.317,2.399l1.014,2.465h-1.971l-0.94-2.449
		c-0.33-0.883-0.715-1.643-1.16-2.281c-0.294-0.452-0.6-0.75-0.911-0.895c-0.304-0.144-0.811-0.213-1.521-0.213h-2.032l-1.222,5.838
		H-12.585z M-9.31-20.004h2.411c1.129,0,1.864-0.01,2.205-0.034c0.661-0.063,1.197-0.213,1.618-0.446
		c0.429-0.241,0.764-0.555,0.989-0.942c0.232-0.398,0.348-0.822,0.348-1.273c0-0.385-0.086-0.716-0.262-0.993
		c-0.164-0.287-0.391-0.479-0.678-0.577c-0.275-0.11-0.75-0.166-1.423-0.166h-4.28L-9.31-20.004z M7.388-15.969l1.589,0.147
		c-0.232,0.785-0.756,1.529-1.569,2.234c-0.818,0.707-1.79,1.057-2.914,1.057c-0.708,0-1.354-0.158-1.954-0.479
		c-0.578-0.331-1.026-0.803-1.337-1.423c-0.304-0.626-0.463-1.338-0.463-2.131c0-1.038,0.242-2.04,0.727-3.01
		c0.487-0.979,1.11-1.709,1.869-2.183c0.762-0.473,1.587-0.711,2.485-0.711c1.134,0,2.038,0.355,2.711,1.06
		c0.683,0.706,1.026,1.664,1.026,2.875c0,0.464-0.049,0.943-0.134,1.437H2.426c-0.029,0.19-0.049,0.354-0.049,0.499
		c0,0.892,0.208,1.575,0.617,2.051c0.414,0.461,0.916,0.694,1.501,0.694c0.563,0,1.107-0.183,1.638-0.547
		C6.676-14.763,7.09-15.285,7.388-15.969z M2.675-18.335h5.343c0.012-0.165,0.02-0.287,0.02-0.363c0-0.806-0.208-1.422-0.618-1.854
		c-0.404-0.439-0.927-0.658-1.569-0.658c-0.696,0-1.332,0.241-1.9,0.726C3.391-20.011,2.962-19.293,2.675-18.335z M17.026-13.92
		c-0.563,0.477-1.107,0.827-1.638,1.059c-0.519,0.221-1.067,0.329-1.655,0.329c-0.879,0-1.591-0.26-2.13-0.774
		c-0.531-0.519-0.794-1.182-0.794-1.985c0-0.531,0.123-0.998,0.36-1.408c0.245-0.405,0.568-0.732,0.965-0.973
		c0.396-0.254,0.887-0.438,1.472-0.546c0.36-0.067,1.05-0.123,2.064-0.166c1.014-0.046,1.741-0.155,2.187-0.33
		c0.127-0.443,0.193-0.806,0.193-1.093c0-0.376-0.132-0.672-0.414-0.892c-0.372-0.299-0.923-0.449-1.648-0.449
		c-0.677,0-1.234,0.156-1.674,0.464c-0.426,0.299-0.745,0.724-0.94,1.273l-1.636-0.149c0.331-0.938,0.854-1.651,1.586-2.15
		c0.727-0.507,1.643-0.76,2.742-0.76c1.178,0,2.113,0.281,2.796,0.843c0.526,0.421,0.793,0.958,0.793,1.621
		c0,0.506-0.078,1.096-0.23,1.771l-0.531,2.362c-0.166,0.751-0.245,1.362-0.245,1.836c0,0.298,0.062,0.729,0.196,1.292h-1.638
		C17.121-13.053,17.06-13.443,17.026-13.92z M17.624-17.556c-0.232,0.088-0.482,0.152-0.745,0.199
		c-0.257,0.043-0.685,0.091-1.29,0.146c-0.953,0.089-1.616,0.199-2.001,0.333c-0.387,0.123-0.678,0.324-0.881,0.611
		c-0.193,0.278-0.292,0.586-0.292,0.928c0,0.452,0.152,0.824,0.458,1.124c0.323,0.287,0.773,0.429,1.354,0.429
		c0.532,0,1.046-0.137,1.541-0.415c0.5-0.287,0.891-0.683,1.178-1.19C17.232-15.898,17.46-16.62,17.624-17.556z M20.677-12.744
		l2.747-13.132h1.618l-2.747,13.132H20.677z M27.18-24.039l0.384-1.837h1.616l-0.396,1.837H27.18z M24.815-12.744l1.986-9.511h1.623
		l-1.983,9.511H24.815z M29.11-16.002l1.617-0.101c0,0.477,0.073,0.875,0.215,1.208c0.146,0.321,0.409,0.583,0.793,0.794
		c0.384,0.208,0.835,0.313,1.342,0.313c0.715,0,1.254-0.143,1.601-0.429c0.365-0.288,0.55-0.624,0.55-1.012
		c0-0.274-0.111-0.537-0.316-0.793c-0.221-0.253-0.759-0.562-1.619-0.926c-0.862-0.375-1.405-0.632-1.639-0.775
		c-0.396-0.244-0.7-0.531-0.908-0.86c-0.2-0.331-0.298-0.711-0.298-1.142c0-0.761,0.298-1.404,0.891-1.936
		c0.597-0.538,1.428-0.809,2.497-0.809c1.203,0,2.113,0.275,2.729,0.827c0.629,0.55,0.952,1.279,0.977,2.183l-1.587,0.099
		c-0.024-0.571-0.226-1.024-0.609-1.356c-0.38-0.331-0.917-0.495-1.626-0.495c-0.549,0-0.982,0.125-1.305,0.378
		c-0.306,0.254-0.465,0.532-0.465,0.828c0,0.298,0.143,0.562,0.417,0.793c0.176,0.156,0.642,0.391,1.39,0.711
		c1.235,0.54,2.011,0.965,2.326,1.273c0.52,0.497,0.784,1.102,0.784,1.819c0,0.464-0.153,0.926-0.445,1.39
		c-0.289,0.452-0.735,0.816-1.328,1.09c-0.584,0.266-1.274,0.396-2.081,0.396c-1.104,0-2.04-0.268-2.816-0.809
		C29.426-13.893,29.061-14.778,29.11-16.002z M41.914-14.067l-0.263,1.337c-0.396,0.102-0.783,0.149-1.143,0.149
		c-0.642,0-1.154-0.158-1.539-0.479c-0.286-0.241-0.427-0.568-0.427-0.977c0-0.208,0.074-0.688,0.232-1.439l1.154-5.522h-1.269
		l0.242-1.258h1.291l0.5-2.33l1.851-1.126l-0.728,3.456h1.587l-0.263,1.258h-1.586l-1.095,5.261
		c-0.145,0.659-0.213,1.057-0.213,1.189c0,0.188,0.057,0.337,0.165,0.447c0.111,0.097,0.294,0.149,0.543,0.149
		C41.308-13.951,41.627-13.991,41.914-14.067z M45.523-24.039l0.377-1.837h1.625l-0.396,1.837H45.523z M43.159-12.744l1.983-9.511
		h1.619l-1.986,9.511H43.159z M53.862-16.22l1.619,0.184c-0.408,1.178-0.984,2.061-1.733,2.647c-0.751,0.57-1.606,0.857-2.566,0.857
		c-1.025,0-1.86-0.329-2.514-0.992c-0.634-0.672-0.959-1.608-0.959-2.808c0-1.039,0.208-2.058,0.616-3.06
		c0.417-1.005,1.01-1.764,1.766-2.283c0.776-0.529,1.655-0.794,2.649-0.794c1.014,0,1.82,0.287,2.412,0.86
		c0.6,0.575,0.892,1.338,0.892,2.3l-1.587,0.098c-0.013-0.607-0.183-1.075-0.524-1.404c-0.343-0.341-0.795-0.513-1.355-0.513
		c-0.654,0-1.215,0.205-1.692,0.611c-0.471,0.409-0.848,1.039-1.124,1.887c-0.275,0.836-0.415,1.642-0.415,2.411
		c0,0.818,0.177,1.429,0.532,1.838c0.365,0.397,0.81,0.595,1.337,0.595c0.531,0,1.03-0.198,1.509-0.595
		C53.204-14.778,53.588-15.392,53.862-16.22z M61.793-16.68l0.35-1.622h4.939l-0.331,1.622H61.793z M76.321-12.744l2.43-11.626
		h-4.317l0.313-1.506h10.336L84.77-24.37h-4.267l-2.43,11.626H76.321z M86.102-24.039l0.38-1.837h1.623l-0.396,1.837H86.102z
		 M83.74-12.744l1.983-9.511h1.619l-1.984,9.511H83.74z M87.86-12.744l1.986-9.511h1.636l-0.347,1.572
		c0.609-0.685,1.148-1.151,1.623-1.404c0.47-0.253,0.99-0.382,1.55-0.382c0.588,0,1.075,0.159,1.472,0.482
		c0.399,0.306,0.667,0.746,0.796,1.308c0.475-0.599,0.977-1.044,1.509-1.344c0.536-0.293,1.104-0.445,1.701-0.445
		c0.796,0,1.387,0.189,1.785,0.562c0.396,0.378,0.598,0.903,0.598,1.587c0,0.287-0.068,0.775-0.201,1.459l-1.29,6.118H99.06
		l1.3-6.283c0.123-0.519,0.185-0.892,0.185-1.112c0-0.305-0.099-0.549-0.294-0.726c-0.201-0.177-0.482-0.263-0.85-0.263
		c-0.482,0-0.978,0.146-1.484,0.446c-0.499,0.287-0.884,0.665-1.161,1.141c-0.273,0.47-0.519,1.197-0.724,2.181l-0.96,4.615
		l-1.624-0.002l1.342-6.418c0.098-0.44,0.146-0.754,0.146-0.94c0-0.309-0.097-0.559-0.299-0.746c-0.195-0.186-0.45-0.28-0.756-0.28
		c-0.465,0-0.947,0.149-1.454,0.446c-0.5,0.287-0.903,0.69-1.227,1.206c-0.307,0.519-0.568,1.263-0.776,2.235l-0.941,4.498H87.86z
		 M110.135-15.966l1.581,0.147c-0.224,0.784-0.751,1.529-1.569,2.234c-0.81,0.705-1.782,1.057-2.905,1.057
		c-0.709,0-1.354-0.16-1.956-0.482c-0.584-0.331-1.03-0.801-1.336-1.423c-0.311-0.624-0.463-1.338-0.463-2.131
		c0-1.038,0.243-2.04,0.726-3.01c0.481-0.978,1.106-1.709,1.868-2.18c0.764-0.476,1.589-0.714,2.479-0.711
		c1.137,0,2.04,0.354,2.711,1.059c0.684,0.705,1.026,1.664,1.026,2.875c0,0.464-0.042,0.944-0.127,1.438l-6.999-0.004
		c-0.031,0.19-0.049,0.354-0.049,0.501c0,0.892,0.2,1.576,0.609,2.052c0.421,0.458,0.923,0.69,1.51,0.69
		c0.563,0,1.105-0.18,1.635-0.543C109.416-14.76,109.837-15.282,110.135-15.966z M105.423-18.335l5.337,0.002
		c0.013-0.164,0.018-0.286,0.018-0.363c0-0.806-0.2-1.423-0.61-1.853c-0.408-0.439-0.935-0.66-1.568-0.66
		c-0.699-0.002-1.333,0.241-1.905,0.723C106.13-20.008,105.709-19.293,105.423-18.335z M119.77-14.116
		c-0.929,1.059-1.897,1.588-2.912,1.588c-0.903,0-1.662-0.331-2.264-0.993c-0.593-0.671-0.892-1.642-0.892-2.91
		c0-1.156,0.237-2.21,0.708-3.157c0.486-0.961,1.079-1.676,1.787-2.152c0.715-0.482,1.434-0.726,2.149-0.726
		c1.181,0,2.071,0.568,2.681,1.703l1.075-5.11h1.599l-2.727,13.13h-1.505L119.77-14.116z M115.319-16.726
		c0,0.66,0.067,1.184,0.202,1.569c0.129,0.375,0.353,0.69,0.659,0.943c0.319,0.253,0.703,0.378,1.142,0.378
		c0.739,0,1.405-0.378,2.003-1.138c0.8-1.014,1.201-2.266,1.201-3.755c0-0.748-0.193-1.335-0.589-1.752
		c-0.398-0.431-0.893-0.645-1.491-0.645c-0.385,0-0.74,0.089-1.056,0.263c-0.322,0.167-0.642,0.458-0.959,0.879
		c-0.312,0.407-0.573,0.932-0.795,1.57C115.425-17.772,115.319-17.212,115.319-16.726z M128.882-16.677l0.347-1.621h4.939
		l-0.328,1.621H128.882z M140.029-12.742l2.75-13.13h5.471c0.945,0,1.66,0.11,2.13,0.333c0.479,0.219,0.867,0.595,1.181,1.123
		c0.315,0.529,0.475,1.118,0.475,1.768c0,0.541-0.111,1.093-0.33,1.655c-0.218,0.562-0.5,1.026-0.843,1.388
		c-0.328,0.363-0.671,0.641-1.026,0.828c-0.34,0.187-0.707,0.323-1.104,0.412c-0.843,0.199-1.691,0.299-2.547,0.299h-3.291
		l-1.112,5.324H140.029z M143.206-19.557h2.894c1.124,0,1.949-0.119,2.468-0.363c0.524-0.24,0.946-0.61,1.251-1.108
		c0.324-0.494,0.482-1.02,0.482-1.568c0-0.431-0.085-0.778-0.249-1.042c-0.167-0.278-0.403-0.483-0.71-0.614
		c-0.299-0.13-0.884-0.198-1.751-0.198h-3.36L143.206-19.557z M152.366-16.348c0-1.862,0.543-3.401,1.635-4.613
		c0.903-1.004,2.088-1.504,3.554-1.504c1.147,0,2.07,0.357,2.761,1.075c0.708,0.717,1.061,1.682,1.061,2.894
		c0,1.089-0.218,2.112-0.662,3.058c-0.442,0.938-1.071,1.658-1.881,2.168c-0.821,0.495-1.681,0.742-2.584,0.742
		c-0.738,0-1.41-0.153-2.015-0.461c-0.613-0.321-1.07-0.767-1.395-1.34C152.525-14.913,152.366-15.587,152.366-16.348z
		 M153.984-16.512c0,0.891,0.213,1.572,0.646,2.032c0.427,0.464,0.971,0.697,1.637,0.697c0.354,0,0.695-0.068,1.024-0.198
		c0.345-0.144,0.655-0.36,0.941-0.648c0.299-0.284,0.551-0.61,0.764-0.973c0.208-0.375,0.372-0.772,0.494-1.191
		c0.189-0.595,0.282-1.163,0.282-1.703c0-0.862-0.221-1.527-0.661-2c-0.433-0.477-0.97-0.711-1.623-0.711
		c-0.507,0-0.973,0.119-1.386,0.364c-0.422,0.241-0.8,0.595-1.142,1.059c-0.331,0.461-0.58,1.001-0.747,1.619
		C154.062-17.547,153.984-16.998,153.984-16.512z M162.427-16l1.627-0.101c0,0.477,0.065,0.876,0.212,1.21
		c0.141,0.321,0.409,0.582,0.793,0.793c0.386,0.208,0.83,0.314,1.337,0.314c0.723,0,1.252-0.144,1.607-0.431
		c0.366-0.287,0.543-0.623,0.543-1.011c0-0.275-0.104-0.538-0.312-0.794c-0.221-0.253-0.764-0.561-1.624-0.924
		c-0.856-0.376-1.404-0.632-1.638-0.776c-0.396-0.244-0.695-0.53-0.908-0.861c-0.196-0.329-0.293-0.711-0.293-1.141
		c0-0.761,0.293-1.405,0.892-1.936c0.592-0.538,1.43-0.81,2.497-0.81c1.202,0,2.114,0.274,2.729,0.828
		c0.63,0.549,0.952,1.278,0.97,2.183l-1.582,0.096c-0.024-0.57-0.229-1.022-0.616-1.355c-0.373-0.33-0.916-0.495-1.616-0.495
		c-0.551,0-0.989,0.125-1.307,0.378c-0.312,0.253-0.467,0.531-0.467,0.828c0,0.3,0.143,0.562,0.416,0.794
		c0.178,0.156,0.643,0.391,1.388,0.712c1.238,0.54,2.014,0.965,2.333,1.271c0.519,0.499,0.774,1.104,0.774,1.821
		c0,0.464-0.146,0.924-0.446,1.389c-0.287,0.451-0.726,0.815-1.317,1.091c-0.588,0.266-1.283,0.396-2.089,0.396
		c-1.1,0-2.04-0.27-2.809-0.809C162.753-13.89,162.385-14.775,162.427-16z M173.749-24.035l0.378-1.837h1.625l-0.396,1.837H173.749z
		 M171.386-12.742l1.982-9.511h1.619l-1.983,9.511H171.386z M179.312-14.065l-0.265,1.338c-0.396,0.101-0.781,0.15-1.142,0.15
		c-0.642,0-1.153-0.159-1.537-0.48c-0.29-0.241-0.429-0.567-0.429-0.977c0-0.208,0.074-0.688,0.226-1.438l1.159-5.522h-1.27
		l0.245-1.259h1.288l0.502-2.328l1.848-1.128l-0.724,3.456h1.586l-0.27,1.259h-1.587l-1.087,5.259
		c-0.146,0.66-0.213,1.057-0.213,1.191c0,0.186,0.054,0.335,0.165,0.446c0.109,0.098,0.285,0.149,0.543,0.149
		C178.707-13.948,179.022-13.987,179.312-14.065z M182.919-24.035l0.38-1.837h1.618l-0.397,1.837H182.919z M180.552-12.742
		l1.983-9.511h1.626l-1.986,9.511H180.552z M187.089-12.742l-1.55-9.511h1.57l0.812,5.243c0.086,0.574,0.193,1.504,0.329,2.796
		c0.305-0.671,0.702-1.443,1.192-2.314l3.186-5.726h1.703l-5.441,9.511H187.089z M200.84-15.966l1.59,0.147
		c-0.232,0.784-0.758,1.529-1.57,2.234c-0.818,0.705-1.79,1.057-2.914,1.057c-0.7,0-1.354-0.16-1.945-0.48
		c-0.589-0.329-1.034-0.803-1.345-1.422c-0.304-0.626-0.464-1.337-0.464-2.13c0-1.038,0.243-2.04,0.733-3.011
		c0.481-0.981,1.104-1.71,1.866-2.183c0.759-0.473,1.588-0.711,2.479-0.711c1.137,0,2.04,0.354,2.714,1.059
		c0.683,0.705,1.025,1.664,1.025,2.875c0,0.464-0.044,0.944-0.134,1.438h-6.994c-0.036,0.189-0.046,0.354-0.046,0.497
		c0,0.892,0.2,1.576,0.609,2.052c0.414,0.46,0.92,0.692,1.501,0.692c0.563,0,1.111-0.183,1.639-0.545
		C200.128-14.76,200.541-15.282,200.84-15.966z M196.127-18.333h5.342c0.013-0.164,0.02-0.286,0.02-0.363
		c0-0.806-0.207-1.423-0.611-1.853c-0.41-0.439-0.934-0.66-1.574-0.66c-0.691,0-1.325,0.241-1.9,0.727
		C196.842-20.008,196.413-19.291,196.127-18.333z"/>
</g>
</svg>
